%TF.GenerationSoftware,KiCad,Pcbnew,10.0.1*%
%TF.CreationDate,2026-05-13T00:36:43-05:00*%
%TF.ProjectId,brushed_ethab_redo,62727573-6865-4645-9f65-746861625f72,1.1*%
%TF.SameCoordinates,Original*%
%TF.FileFunction,Legend,Top*%
%TF.FilePolarity,Positive*%
%FSLAX46Y46*%
G04 Gerber Fmt 4.6, Leading zero omitted, Abs format (unit mm)*
G04 Created by KiCad (PCBNEW 10.0.1) date 2026-05-13 00:36:43*
%MOMM*%
%LPD*%
G01*
G04 APERTURE LIST*
%ADD10C,0.100000*%
%ADD11C,0.150000*%
%ADD12C,0.254000*%
%ADD13C,0.152400*%
%ADD14C,0.200000*%
%ADD15C,0.120000*%
%ADD16C,0.250000*%
%ADD17C,0.000000*%
G04 APERTURE END LIST*
D10*
X78494360Y-102605405D02*
X78208646Y-102605405D01*
X78208646Y-102605405D02*
X78180074Y-102891119D01*
X78180074Y-102891119D02*
X78208646Y-102862548D01*
X78208646Y-102862548D02*
X78265789Y-102833976D01*
X78265789Y-102833976D02*
X78408646Y-102833976D01*
X78408646Y-102833976D02*
X78465789Y-102862548D01*
X78465789Y-102862548D02*
X78494360Y-102891119D01*
X78494360Y-102891119D02*
X78522931Y-102948262D01*
X78522931Y-102948262D02*
X78522931Y-103091119D01*
X78522931Y-103091119D02*
X78494360Y-103148262D01*
X78494360Y-103148262D02*
X78465789Y-103176834D01*
X78465789Y-103176834D02*
X78408646Y-103205405D01*
X78408646Y-103205405D02*
X78265789Y-103205405D01*
X78265789Y-103205405D02*
X78208646Y-103176834D01*
X78208646Y-103176834D02*
X78180074Y-103148262D01*
X78694360Y-102605405D02*
X78894360Y-103205405D01*
X78894360Y-103205405D02*
X79094360Y-102605405D01*
X79722932Y-103176834D02*
X79808647Y-103205405D01*
X79808647Y-103205405D02*
X79951504Y-103205405D01*
X79951504Y-103205405D02*
X80008647Y-103176834D01*
X80008647Y-103176834D02*
X80037218Y-103148262D01*
X80037218Y-103148262D02*
X80065789Y-103091119D01*
X80065789Y-103091119D02*
X80065789Y-103033976D01*
X80065789Y-103033976D02*
X80037218Y-102976834D01*
X80037218Y-102976834D02*
X80008647Y-102948262D01*
X80008647Y-102948262D02*
X79951504Y-102919691D01*
X79951504Y-102919691D02*
X79837218Y-102891119D01*
X79837218Y-102891119D02*
X79780075Y-102862548D01*
X79780075Y-102862548D02*
X79751504Y-102833976D01*
X79751504Y-102833976D02*
X79722932Y-102776834D01*
X79722932Y-102776834D02*
X79722932Y-102719691D01*
X79722932Y-102719691D02*
X79751504Y-102662548D01*
X79751504Y-102662548D02*
X79780075Y-102633976D01*
X79780075Y-102633976D02*
X79837218Y-102605405D01*
X79837218Y-102605405D02*
X79980075Y-102605405D01*
X79980075Y-102605405D02*
X80065789Y-102633976D01*
X80265790Y-102605405D02*
X80408647Y-103205405D01*
X80408647Y-103205405D02*
X80522933Y-102776834D01*
X80522933Y-102776834D02*
X80637218Y-103205405D01*
X80637218Y-103205405D02*
X80780076Y-102605405D01*
X81351504Y-103148262D02*
X81322932Y-103176834D01*
X81322932Y-103176834D02*
X81237218Y-103205405D01*
X81237218Y-103205405D02*
X81180075Y-103205405D01*
X81180075Y-103205405D02*
X81094361Y-103176834D01*
X81094361Y-103176834D02*
X81037218Y-103119691D01*
X81037218Y-103119691D02*
X81008647Y-103062548D01*
X81008647Y-103062548D02*
X80980075Y-102948262D01*
X80980075Y-102948262D02*
X80980075Y-102862548D01*
X80980075Y-102862548D02*
X81008647Y-102748262D01*
X81008647Y-102748262D02*
X81037218Y-102691119D01*
X81037218Y-102691119D02*
X81094361Y-102633976D01*
X81094361Y-102633976D02*
X81180075Y-102605405D01*
X81180075Y-102605405D02*
X81237218Y-102605405D01*
X81237218Y-102605405D02*
X81322932Y-102633976D01*
X81322932Y-102633976D02*
X81351504Y-102662548D01*
X81894361Y-103205405D02*
X81608647Y-103205405D01*
X81608647Y-103205405D02*
X81608647Y-102605405D01*
X82094361Y-103205405D02*
X82094361Y-102605405D01*
X82437218Y-103205405D02*
X82180075Y-102862548D01*
X82437218Y-102605405D02*
X82094361Y-102948262D01*
X83151504Y-103205405D02*
X83151504Y-102605405D01*
X83151504Y-102605405D02*
X83494361Y-103205405D01*
X83494361Y-103205405D02*
X83494361Y-102605405D01*
X84122932Y-103205405D02*
X83922932Y-102919691D01*
X83780075Y-103205405D02*
X83780075Y-102605405D01*
X83780075Y-102605405D02*
X84008646Y-102605405D01*
X84008646Y-102605405D02*
X84065789Y-102633976D01*
X84065789Y-102633976D02*
X84094360Y-102662548D01*
X84094360Y-102662548D02*
X84122932Y-102719691D01*
X84122932Y-102719691D02*
X84122932Y-102805405D01*
X84122932Y-102805405D02*
X84094360Y-102862548D01*
X84094360Y-102862548D02*
X84065789Y-102891119D01*
X84065789Y-102891119D02*
X84008646Y-102919691D01*
X84008646Y-102919691D02*
X83780075Y-102919691D01*
X84351503Y-103176834D02*
X84437218Y-103205405D01*
X84437218Y-103205405D02*
X84580075Y-103205405D01*
X84580075Y-103205405D02*
X84637218Y-103176834D01*
X84637218Y-103176834D02*
X84665789Y-103148262D01*
X84665789Y-103148262D02*
X84694360Y-103091119D01*
X84694360Y-103091119D02*
X84694360Y-103033976D01*
X84694360Y-103033976D02*
X84665789Y-102976834D01*
X84665789Y-102976834D02*
X84637218Y-102948262D01*
X84637218Y-102948262D02*
X84580075Y-102919691D01*
X84580075Y-102919691D02*
X84465789Y-102891119D01*
X84465789Y-102891119D02*
X84408646Y-102862548D01*
X84408646Y-102862548D02*
X84380075Y-102833976D01*
X84380075Y-102833976D02*
X84351503Y-102776834D01*
X84351503Y-102776834D02*
X84351503Y-102719691D01*
X84351503Y-102719691D02*
X84380075Y-102662548D01*
X84380075Y-102662548D02*
X84408646Y-102633976D01*
X84408646Y-102633976D02*
X84465789Y-102605405D01*
X84465789Y-102605405D02*
X84608646Y-102605405D01*
X84608646Y-102605405D02*
X84694360Y-102633976D01*
X84865789Y-102605405D02*
X85208647Y-102605405D01*
X85037218Y-103205405D02*
X85037218Y-102605405D01*
X85837218Y-103176834D02*
X85922933Y-103205405D01*
X85922933Y-103205405D02*
X86065790Y-103205405D01*
X86065790Y-103205405D02*
X86122933Y-103176834D01*
X86122933Y-103176834D02*
X86151504Y-103148262D01*
X86151504Y-103148262D02*
X86180075Y-103091119D01*
X86180075Y-103091119D02*
X86180075Y-103033976D01*
X86180075Y-103033976D02*
X86151504Y-102976834D01*
X86151504Y-102976834D02*
X86122933Y-102948262D01*
X86122933Y-102948262D02*
X86065790Y-102919691D01*
X86065790Y-102919691D02*
X85951504Y-102891119D01*
X85951504Y-102891119D02*
X85894361Y-102862548D01*
X85894361Y-102862548D02*
X85865790Y-102833976D01*
X85865790Y-102833976D02*
X85837218Y-102776834D01*
X85837218Y-102776834D02*
X85837218Y-102719691D01*
X85837218Y-102719691D02*
X85865790Y-102662548D01*
X85865790Y-102662548D02*
X85894361Y-102633976D01*
X85894361Y-102633976D02*
X85951504Y-102605405D01*
X85951504Y-102605405D02*
X86094361Y-102605405D01*
X86094361Y-102605405D02*
X86180075Y-102633976D01*
X86380076Y-102605405D02*
X86522933Y-103205405D01*
X86522933Y-103205405D02*
X86637219Y-102776834D01*
X86637219Y-102776834D02*
X86751504Y-103205405D01*
X86751504Y-103205405D02*
X86894362Y-102605405D01*
X87122933Y-103205405D02*
X87122933Y-102605405D01*
X87122933Y-102605405D02*
X87265790Y-102605405D01*
X87265790Y-102605405D02*
X87351504Y-102633976D01*
X87351504Y-102633976D02*
X87408647Y-102691119D01*
X87408647Y-102691119D02*
X87437218Y-102748262D01*
X87437218Y-102748262D02*
X87465790Y-102862548D01*
X87465790Y-102862548D02*
X87465790Y-102948262D01*
X87465790Y-102948262D02*
X87437218Y-103062548D01*
X87437218Y-103062548D02*
X87408647Y-103119691D01*
X87408647Y-103119691D02*
X87351504Y-103176834D01*
X87351504Y-103176834D02*
X87265790Y-103205405D01*
X87265790Y-103205405D02*
X87122933Y-103205405D01*
X87722933Y-103205405D02*
X87722933Y-102605405D01*
X88122932Y-102605405D02*
X88237218Y-102605405D01*
X88237218Y-102605405D02*
X88294361Y-102633976D01*
X88294361Y-102633976D02*
X88351504Y-102691119D01*
X88351504Y-102691119D02*
X88380075Y-102805405D01*
X88380075Y-102805405D02*
X88380075Y-103005405D01*
X88380075Y-103005405D02*
X88351504Y-103119691D01*
X88351504Y-103119691D02*
X88294361Y-103176834D01*
X88294361Y-103176834D02*
X88237218Y-103205405D01*
X88237218Y-103205405D02*
X88122932Y-103205405D01*
X88122932Y-103205405D02*
X88065790Y-103176834D01*
X88065790Y-103176834D02*
X88008647Y-103119691D01*
X88008647Y-103119691D02*
X87980075Y-103005405D01*
X87980075Y-103005405D02*
X87980075Y-102805405D01*
X87980075Y-102805405D02*
X88008647Y-102691119D01*
X88008647Y-102691119D02*
X88065790Y-102633976D01*
X88065790Y-102633976D02*
X88122932Y-102605405D01*
X89408646Y-102633976D02*
X89351504Y-102605405D01*
X89351504Y-102605405D02*
X89265789Y-102605405D01*
X89265789Y-102605405D02*
X89180075Y-102633976D01*
X89180075Y-102633976D02*
X89122932Y-102691119D01*
X89122932Y-102691119D02*
X89094361Y-102748262D01*
X89094361Y-102748262D02*
X89065789Y-102862548D01*
X89065789Y-102862548D02*
X89065789Y-102948262D01*
X89065789Y-102948262D02*
X89094361Y-103062548D01*
X89094361Y-103062548D02*
X89122932Y-103119691D01*
X89122932Y-103119691D02*
X89180075Y-103176834D01*
X89180075Y-103176834D02*
X89265789Y-103205405D01*
X89265789Y-103205405D02*
X89322932Y-103205405D01*
X89322932Y-103205405D02*
X89408646Y-103176834D01*
X89408646Y-103176834D02*
X89437218Y-103148262D01*
X89437218Y-103148262D02*
X89437218Y-102948262D01*
X89437218Y-102948262D02*
X89322932Y-102948262D01*
X89694361Y-103205405D02*
X89694361Y-102605405D01*
X89694361Y-102605405D02*
X90037218Y-103205405D01*
X90037218Y-103205405D02*
X90037218Y-102605405D01*
X90322932Y-103205405D02*
X90322932Y-102605405D01*
X90322932Y-102605405D02*
X90465789Y-102605405D01*
X90465789Y-102605405D02*
X90551503Y-102633976D01*
X90551503Y-102633976D02*
X90608646Y-102691119D01*
X90608646Y-102691119D02*
X90637217Y-102748262D01*
X90637217Y-102748262D02*
X90665789Y-102862548D01*
X90665789Y-102862548D02*
X90665789Y-102948262D01*
X90665789Y-102948262D02*
X90637217Y-103062548D01*
X90637217Y-103062548D02*
X90608646Y-103119691D01*
X90608646Y-103119691D02*
X90551503Y-103176834D01*
X90551503Y-103176834D02*
X90465789Y-103205405D01*
X90465789Y-103205405D02*
X90322932Y-103205405D01*
X78494360Y-103571371D02*
X78208646Y-103571371D01*
X78208646Y-103571371D02*
X78180074Y-103857085D01*
X78180074Y-103857085D02*
X78208646Y-103828514D01*
X78208646Y-103828514D02*
X78265789Y-103799942D01*
X78265789Y-103799942D02*
X78408646Y-103799942D01*
X78408646Y-103799942D02*
X78465789Y-103828514D01*
X78465789Y-103828514D02*
X78494360Y-103857085D01*
X78494360Y-103857085D02*
X78522931Y-103914228D01*
X78522931Y-103914228D02*
X78522931Y-104057085D01*
X78522931Y-104057085D02*
X78494360Y-104114228D01*
X78494360Y-104114228D02*
X78465789Y-104142800D01*
X78465789Y-104142800D02*
X78408646Y-104171371D01*
X78408646Y-104171371D02*
X78265789Y-104171371D01*
X78265789Y-104171371D02*
X78208646Y-104142800D01*
X78208646Y-104142800D02*
X78180074Y-104114228D01*
X78694360Y-103571371D02*
X78894360Y-104171371D01*
X78894360Y-104171371D02*
X79094360Y-103571371D01*
X80608647Y-103571371D02*
X80980075Y-103571371D01*
X80980075Y-103571371D02*
X80780075Y-103799942D01*
X80780075Y-103799942D02*
X80865790Y-103799942D01*
X80865790Y-103799942D02*
X80922933Y-103828514D01*
X80922933Y-103828514D02*
X80951504Y-103857085D01*
X80951504Y-103857085D02*
X80980075Y-103914228D01*
X80980075Y-103914228D02*
X80980075Y-104057085D01*
X80980075Y-104057085D02*
X80951504Y-104114228D01*
X80951504Y-104114228D02*
X80922933Y-104142800D01*
X80922933Y-104142800D02*
X80865790Y-104171371D01*
X80865790Y-104171371D02*
X80694361Y-104171371D01*
X80694361Y-104171371D02*
X80637218Y-104142800D01*
X80637218Y-104142800D02*
X80608647Y-104114228D01*
X81237219Y-104114228D02*
X81265790Y-104142800D01*
X81265790Y-104142800D02*
X81237219Y-104171371D01*
X81237219Y-104171371D02*
X81208647Y-104142800D01*
X81208647Y-104142800D02*
X81237219Y-104114228D01*
X81237219Y-104114228D02*
X81237219Y-104171371D01*
X81465790Y-103571371D02*
X81837218Y-103571371D01*
X81837218Y-103571371D02*
X81637218Y-103799942D01*
X81637218Y-103799942D02*
X81722933Y-103799942D01*
X81722933Y-103799942D02*
X81780076Y-103828514D01*
X81780076Y-103828514D02*
X81808647Y-103857085D01*
X81808647Y-103857085D02*
X81837218Y-103914228D01*
X81837218Y-103914228D02*
X81837218Y-104057085D01*
X81837218Y-104057085D02*
X81808647Y-104114228D01*
X81808647Y-104114228D02*
X81780076Y-104142800D01*
X81780076Y-104142800D02*
X81722933Y-104171371D01*
X81722933Y-104171371D02*
X81551504Y-104171371D01*
X81551504Y-104171371D02*
X81494361Y-104142800D01*
X81494361Y-104142800D02*
X81465790Y-104114228D01*
X82008647Y-103571371D02*
X82208647Y-104171371D01*
X82208647Y-104171371D02*
X82408647Y-103571371D01*
X83465791Y-103571371D02*
X83837219Y-103571371D01*
X83837219Y-103571371D02*
X83637219Y-103799942D01*
X83637219Y-103799942D02*
X83722934Y-103799942D01*
X83722934Y-103799942D02*
X83780077Y-103828514D01*
X83780077Y-103828514D02*
X83808648Y-103857085D01*
X83808648Y-103857085D02*
X83837219Y-103914228D01*
X83837219Y-103914228D02*
X83837219Y-104057085D01*
X83837219Y-104057085D02*
X83808648Y-104114228D01*
X83808648Y-104114228D02*
X83780077Y-104142800D01*
X83780077Y-104142800D02*
X83722934Y-104171371D01*
X83722934Y-104171371D02*
X83551505Y-104171371D01*
X83551505Y-104171371D02*
X83494362Y-104142800D01*
X83494362Y-104142800D02*
X83465791Y-104114228D01*
X84094363Y-104114228D02*
X84122934Y-104142800D01*
X84122934Y-104142800D02*
X84094363Y-104171371D01*
X84094363Y-104171371D02*
X84065791Y-104142800D01*
X84065791Y-104142800D02*
X84094363Y-104114228D01*
X84094363Y-104114228D02*
X84094363Y-104171371D01*
X84322934Y-103571371D02*
X84694362Y-103571371D01*
X84694362Y-103571371D02*
X84494362Y-103799942D01*
X84494362Y-103799942D02*
X84580077Y-103799942D01*
X84580077Y-103799942D02*
X84637220Y-103828514D01*
X84637220Y-103828514D02*
X84665791Y-103857085D01*
X84665791Y-103857085D02*
X84694362Y-103914228D01*
X84694362Y-103914228D02*
X84694362Y-104057085D01*
X84694362Y-104057085D02*
X84665791Y-104114228D01*
X84665791Y-104114228D02*
X84637220Y-104142800D01*
X84637220Y-104142800D02*
X84580077Y-104171371D01*
X84580077Y-104171371D02*
X84408648Y-104171371D01*
X84408648Y-104171371D02*
X84351505Y-104142800D01*
X84351505Y-104142800D02*
X84322934Y-104114228D01*
X84865791Y-103571371D02*
X85065791Y-104171371D01*
X85065791Y-104171371D02*
X85265791Y-103571371D01*
X89437221Y-103599942D02*
X89380079Y-103571371D01*
X89380079Y-103571371D02*
X89294364Y-103571371D01*
X89294364Y-103571371D02*
X89208650Y-103599942D01*
X89208650Y-103599942D02*
X89151507Y-103657085D01*
X89151507Y-103657085D02*
X89122936Y-103714228D01*
X89122936Y-103714228D02*
X89094364Y-103828514D01*
X89094364Y-103828514D02*
X89094364Y-103914228D01*
X89094364Y-103914228D02*
X89122936Y-104028514D01*
X89122936Y-104028514D02*
X89151507Y-104085657D01*
X89151507Y-104085657D02*
X89208650Y-104142800D01*
X89208650Y-104142800D02*
X89294364Y-104171371D01*
X89294364Y-104171371D02*
X89351507Y-104171371D01*
X89351507Y-104171371D02*
X89437221Y-104142800D01*
X89437221Y-104142800D02*
X89465793Y-104114228D01*
X89465793Y-104114228D02*
X89465793Y-103914228D01*
X89465793Y-103914228D02*
X89351507Y-103914228D01*
X89722936Y-104171371D02*
X89722936Y-103571371D01*
X89722936Y-103571371D02*
X90065793Y-104171371D01*
X90065793Y-104171371D02*
X90065793Y-103571371D01*
X90351507Y-104171371D02*
X90351507Y-103571371D01*
X90351507Y-103571371D02*
X90494364Y-103571371D01*
X90494364Y-103571371D02*
X90580078Y-103599942D01*
X90580078Y-103599942D02*
X90637221Y-103657085D01*
X90637221Y-103657085D02*
X90665792Y-103714228D01*
X90665792Y-103714228D02*
X90694364Y-103828514D01*
X90694364Y-103828514D02*
X90694364Y-103914228D01*
X90694364Y-103914228D02*
X90665792Y-104028514D01*
X90665792Y-104028514D02*
X90637221Y-104085657D01*
X90637221Y-104085657D02*
X90580078Y-104142800D01*
X90580078Y-104142800D02*
X90494364Y-104171371D01*
X90494364Y-104171371D02*
X90351507Y-104171371D01*
X94327693Y-100560094D02*
X94232455Y-100512475D01*
X94232455Y-100512475D02*
X94089598Y-100512475D01*
X94089598Y-100512475D02*
X93946741Y-100560094D01*
X93946741Y-100560094D02*
X93851503Y-100655332D01*
X93851503Y-100655332D02*
X93803884Y-100750570D01*
X93803884Y-100750570D02*
X93756265Y-100941046D01*
X93756265Y-100941046D02*
X93756265Y-101083903D01*
X93756265Y-101083903D02*
X93803884Y-101274379D01*
X93803884Y-101274379D02*
X93851503Y-101369617D01*
X93851503Y-101369617D02*
X93946741Y-101464856D01*
X93946741Y-101464856D02*
X94089598Y-101512475D01*
X94089598Y-101512475D02*
X94184836Y-101512475D01*
X94184836Y-101512475D02*
X94327693Y-101464856D01*
X94327693Y-101464856D02*
X94375312Y-101417236D01*
X94375312Y-101417236D02*
X94375312Y-101083903D01*
X94375312Y-101083903D02*
X94184836Y-101083903D01*
X94803884Y-101512475D02*
X94803884Y-100512475D01*
X94803884Y-100512475D02*
X95375312Y-101512475D01*
X95375312Y-101512475D02*
X95375312Y-100512475D01*
X95851503Y-101512475D02*
X95851503Y-100512475D01*
X95851503Y-100512475D02*
X96089598Y-100512475D01*
X96089598Y-100512475D02*
X96232455Y-100560094D01*
X96232455Y-100560094D02*
X96327693Y-100655332D01*
X96327693Y-100655332D02*
X96375312Y-100750570D01*
X96375312Y-100750570D02*
X96422931Y-100941046D01*
X96422931Y-100941046D02*
X96422931Y-101083903D01*
X96422931Y-101083903D02*
X96375312Y-101274379D01*
X96375312Y-101274379D02*
X96327693Y-101369617D01*
X96327693Y-101369617D02*
X96232455Y-101464856D01*
X96232455Y-101464856D02*
X96089598Y-101512475D01*
X96089598Y-101512475D02*
X95851503Y-101512475D01*
X98184836Y-101512475D02*
X97851503Y-101036284D01*
X97613408Y-101512475D02*
X97613408Y-100512475D01*
X97613408Y-100512475D02*
X97994360Y-100512475D01*
X97994360Y-100512475D02*
X98089598Y-100560094D01*
X98089598Y-100560094D02*
X98137217Y-100607713D01*
X98137217Y-100607713D02*
X98184836Y-100702951D01*
X98184836Y-100702951D02*
X98184836Y-100845808D01*
X98184836Y-100845808D02*
X98137217Y-100941046D01*
X98137217Y-100941046D02*
X98089598Y-100988665D01*
X98089598Y-100988665D02*
X97994360Y-101036284D01*
X97994360Y-101036284D02*
X97613408Y-101036284D01*
X98518170Y-100512475D02*
X99184836Y-101512475D01*
X99184836Y-100512475D02*
X98518170Y-101512475D01*
X100184837Y-100512475D02*
X100756265Y-100512475D01*
X100470551Y-101512475D02*
X100470551Y-100512475D01*
X100994361Y-100512475D02*
X101661027Y-101512475D01*
X101661027Y-100512475D02*
X100994361Y-101512475D01*
X96089599Y-102122419D02*
X96089599Y-102931942D01*
X96089599Y-102931942D02*
X96137218Y-103027180D01*
X96137218Y-103027180D02*
X96184837Y-103074800D01*
X96184837Y-103074800D02*
X96280075Y-103122419D01*
X96280075Y-103122419D02*
X96470551Y-103122419D01*
X96470551Y-103122419D02*
X96565789Y-103074800D01*
X96565789Y-103074800D02*
X96613408Y-103027180D01*
X96613408Y-103027180D02*
X96661027Y-102931942D01*
X96661027Y-102931942D02*
X96661027Y-102122419D01*
X97089599Y-102836704D02*
X97565789Y-102836704D01*
X96994361Y-103122419D02*
X97327694Y-102122419D01*
X97327694Y-102122419D02*
X97661027Y-103122419D01*
X98565789Y-103122419D02*
X98232456Y-102646228D01*
X97994361Y-103122419D02*
X97994361Y-102122419D01*
X97994361Y-102122419D02*
X98375313Y-102122419D01*
X98375313Y-102122419D02*
X98470551Y-102170038D01*
X98470551Y-102170038D02*
X98518170Y-102217657D01*
X98518170Y-102217657D02*
X98565789Y-102312895D01*
X98565789Y-102312895D02*
X98565789Y-102455752D01*
X98565789Y-102455752D02*
X98518170Y-102550990D01*
X98518170Y-102550990D02*
X98470551Y-102598609D01*
X98470551Y-102598609D02*
X98375313Y-102646228D01*
X98375313Y-102646228D02*
X97994361Y-102646228D01*
X98851504Y-102122419D02*
X99422932Y-102122419D01*
X99137218Y-103122419D02*
X99137218Y-102122419D01*
X136803884Y-150372419D02*
X136803884Y-149372419D01*
X136803884Y-149372419D02*
X137137217Y-150086704D01*
X137137217Y-150086704D02*
X137470550Y-149372419D01*
X137470550Y-149372419D02*
X137470550Y-150372419D01*
X138137217Y-149372419D02*
X138327693Y-149372419D01*
X138327693Y-149372419D02*
X138422931Y-149420038D01*
X138422931Y-149420038D02*
X138518169Y-149515276D01*
X138518169Y-149515276D02*
X138565788Y-149705752D01*
X138565788Y-149705752D02*
X138565788Y-150039085D01*
X138565788Y-150039085D02*
X138518169Y-150229561D01*
X138518169Y-150229561D02*
X138422931Y-150324800D01*
X138422931Y-150324800D02*
X138327693Y-150372419D01*
X138327693Y-150372419D02*
X138137217Y-150372419D01*
X138137217Y-150372419D02*
X138041979Y-150324800D01*
X138041979Y-150324800D02*
X137946741Y-150229561D01*
X137946741Y-150229561D02*
X137899122Y-150039085D01*
X137899122Y-150039085D02*
X137899122Y-149705752D01*
X137899122Y-149705752D02*
X137946741Y-149515276D01*
X137946741Y-149515276D02*
X138041979Y-149420038D01*
X138041979Y-149420038D02*
X138137217Y-149372419D01*
X138851503Y-149372419D02*
X139422931Y-149372419D01*
X139137217Y-150372419D02*
X139137217Y-149372419D01*
X139946741Y-149372419D02*
X140137217Y-149372419D01*
X140137217Y-149372419D02*
X140232455Y-149420038D01*
X140232455Y-149420038D02*
X140327693Y-149515276D01*
X140327693Y-149515276D02*
X140375312Y-149705752D01*
X140375312Y-149705752D02*
X140375312Y-150039085D01*
X140375312Y-150039085D02*
X140327693Y-150229561D01*
X140327693Y-150229561D02*
X140232455Y-150324800D01*
X140232455Y-150324800D02*
X140137217Y-150372419D01*
X140137217Y-150372419D02*
X139946741Y-150372419D01*
X139946741Y-150372419D02*
X139851503Y-150324800D01*
X139851503Y-150324800D02*
X139756265Y-150229561D01*
X139756265Y-150229561D02*
X139708646Y-150039085D01*
X139708646Y-150039085D02*
X139708646Y-149705752D01*
X139708646Y-149705752D02*
X139756265Y-149515276D01*
X139756265Y-149515276D02*
X139851503Y-149420038D01*
X139851503Y-149420038D02*
X139946741Y-149372419D01*
X141375312Y-150372419D02*
X141041979Y-149896228D01*
X140803884Y-150372419D02*
X140803884Y-149372419D01*
X140803884Y-149372419D02*
X141184836Y-149372419D01*
X141184836Y-149372419D02*
X141280074Y-149420038D01*
X141280074Y-149420038D02*
X141327693Y-149467657D01*
X141327693Y-149467657D02*
X141375312Y-149562895D01*
X141375312Y-149562895D02*
X141375312Y-149705752D01*
X141375312Y-149705752D02*
X141327693Y-149800990D01*
X141327693Y-149800990D02*
X141280074Y-149848609D01*
X141280074Y-149848609D02*
X141184836Y-149896228D01*
X141184836Y-149896228D02*
X140803884Y-149896228D01*
X141803884Y-149991466D02*
X142565789Y-149991466D01*
X132872419Y-111196115D02*
X131872419Y-111196115D01*
X131872419Y-111196115D02*
X132586704Y-110862782D01*
X132586704Y-110862782D02*
X131872419Y-110529449D01*
X131872419Y-110529449D02*
X132872419Y-110529449D01*
X131872419Y-109862782D02*
X131872419Y-109672306D01*
X131872419Y-109672306D02*
X131920038Y-109577068D01*
X131920038Y-109577068D02*
X132015276Y-109481830D01*
X132015276Y-109481830D02*
X132205752Y-109434211D01*
X132205752Y-109434211D02*
X132539085Y-109434211D01*
X132539085Y-109434211D02*
X132729561Y-109481830D01*
X132729561Y-109481830D02*
X132824800Y-109577068D01*
X132824800Y-109577068D02*
X132872419Y-109672306D01*
X132872419Y-109672306D02*
X132872419Y-109862782D01*
X132872419Y-109862782D02*
X132824800Y-109958020D01*
X132824800Y-109958020D02*
X132729561Y-110053258D01*
X132729561Y-110053258D02*
X132539085Y-110100877D01*
X132539085Y-110100877D02*
X132205752Y-110100877D01*
X132205752Y-110100877D02*
X132015276Y-110053258D01*
X132015276Y-110053258D02*
X131920038Y-109958020D01*
X131920038Y-109958020D02*
X131872419Y-109862782D01*
X131872419Y-109148496D02*
X131872419Y-108577068D01*
X132872419Y-108862782D02*
X131872419Y-108862782D01*
X131872419Y-108053258D02*
X131872419Y-107862782D01*
X131872419Y-107862782D02*
X131920038Y-107767544D01*
X131920038Y-107767544D02*
X132015276Y-107672306D01*
X132015276Y-107672306D02*
X132205752Y-107624687D01*
X132205752Y-107624687D02*
X132539085Y-107624687D01*
X132539085Y-107624687D02*
X132729561Y-107672306D01*
X132729561Y-107672306D02*
X132824800Y-107767544D01*
X132824800Y-107767544D02*
X132872419Y-107862782D01*
X132872419Y-107862782D02*
X132872419Y-108053258D01*
X132872419Y-108053258D02*
X132824800Y-108148496D01*
X132824800Y-108148496D02*
X132729561Y-108243734D01*
X132729561Y-108243734D02*
X132539085Y-108291353D01*
X132539085Y-108291353D02*
X132205752Y-108291353D01*
X132205752Y-108291353D02*
X132015276Y-108243734D01*
X132015276Y-108243734D02*
X131920038Y-108148496D01*
X131920038Y-108148496D02*
X131872419Y-108053258D01*
X132872419Y-106624687D02*
X132396228Y-106958020D01*
X132872419Y-107196115D02*
X131872419Y-107196115D01*
X131872419Y-107196115D02*
X131872419Y-106815163D01*
X131872419Y-106815163D02*
X131920038Y-106719925D01*
X131920038Y-106719925D02*
X131967657Y-106672306D01*
X131967657Y-106672306D02*
X132062895Y-106624687D01*
X132062895Y-106624687D02*
X132205752Y-106624687D01*
X132205752Y-106624687D02*
X132300990Y-106672306D01*
X132300990Y-106672306D02*
X132348609Y-106719925D01*
X132348609Y-106719925D02*
X132396228Y-106815163D01*
X132396228Y-106815163D02*
X132396228Y-107196115D01*
X132491466Y-106196115D02*
X132491466Y-105434211D01*
X132872419Y-105815163D02*
X132110514Y-105815163D01*
D11*
X122988095Y-119204819D02*
X122988095Y-120014342D01*
X122988095Y-120014342D02*
X123035714Y-120109580D01*
X123035714Y-120109580D02*
X123083333Y-120157200D01*
X123083333Y-120157200D02*
X123178571Y-120204819D01*
X123178571Y-120204819D02*
X123369047Y-120204819D01*
X123369047Y-120204819D02*
X123464285Y-120157200D01*
X123464285Y-120157200D02*
X123511904Y-120109580D01*
X123511904Y-120109580D02*
X123559523Y-120014342D01*
X123559523Y-120014342D02*
X123559523Y-119204819D01*
X124511904Y-119204819D02*
X124035714Y-119204819D01*
X124035714Y-119204819D02*
X123988095Y-119681009D01*
X123988095Y-119681009D02*
X124035714Y-119633390D01*
X124035714Y-119633390D02*
X124130952Y-119585771D01*
X124130952Y-119585771D02*
X124369047Y-119585771D01*
X124369047Y-119585771D02*
X124464285Y-119633390D01*
X124464285Y-119633390D02*
X124511904Y-119681009D01*
X124511904Y-119681009D02*
X124559523Y-119776247D01*
X124559523Y-119776247D02*
X124559523Y-120014342D01*
X124559523Y-120014342D02*
X124511904Y-120109580D01*
X124511904Y-120109580D02*
X124464285Y-120157200D01*
X124464285Y-120157200D02*
X124369047Y-120204819D01*
X124369047Y-120204819D02*
X124130952Y-120204819D01*
X124130952Y-120204819D02*
X124035714Y-120157200D01*
X124035714Y-120157200D02*
X123988095Y-120109580D01*
X105018878Y-155106467D02*
X105018878Y-154319065D01*
X105018878Y-154319065D02*
X105281346Y-154881495D01*
X105281346Y-154881495D02*
X105543813Y-154319065D01*
X105543813Y-154319065D02*
X105543813Y-155106467D01*
X105918766Y-155106467D02*
X105918766Y-154319065D01*
X105918766Y-154319065D02*
X106218729Y-154319065D01*
X106218729Y-154319065D02*
X106293720Y-154356560D01*
X106293720Y-154356560D02*
X106331215Y-154394056D01*
X106331215Y-154394056D02*
X106368710Y-154469046D01*
X106368710Y-154469046D02*
X106368710Y-154581532D01*
X106368710Y-154581532D02*
X106331215Y-154656523D01*
X106331215Y-154656523D02*
X106293720Y-154694018D01*
X106293720Y-154694018D02*
X106218729Y-154731514D01*
X106218729Y-154731514D02*
X105918766Y-154731514D01*
X106668673Y-154394056D02*
X106706168Y-154356560D01*
X106706168Y-154356560D02*
X106781159Y-154319065D01*
X106781159Y-154319065D02*
X106968636Y-154319065D01*
X106968636Y-154319065D02*
X107043626Y-154356560D01*
X107043626Y-154356560D02*
X107081122Y-154394056D01*
X107081122Y-154394056D02*
X107118617Y-154469046D01*
X107118617Y-154469046D02*
X107118617Y-154544037D01*
X107118617Y-154544037D02*
X107081122Y-154656523D01*
X107081122Y-154656523D02*
X106631178Y-155106467D01*
X106631178Y-155106467D02*
X107118617Y-155106467D01*
X60682319Y-120161904D02*
X61491842Y-120161904D01*
X61491842Y-120161904D02*
X61587080Y-120114285D01*
X61587080Y-120114285D02*
X61634700Y-120066666D01*
X61634700Y-120066666D02*
X61682319Y-119971428D01*
X61682319Y-119971428D02*
X61682319Y-119780952D01*
X61682319Y-119780952D02*
X61634700Y-119685714D01*
X61634700Y-119685714D02*
X61587080Y-119638095D01*
X61587080Y-119638095D02*
X61491842Y-119590476D01*
X61491842Y-119590476D02*
X60682319Y-119590476D01*
X60777557Y-119161904D02*
X60729938Y-119114285D01*
X60729938Y-119114285D02*
X60682319Y-119019047D01*
X60682319Y-119019047D02*
X60682319Y-118780952D01*
X60682319Y-118780952D02*
X60729938Y-118685714D01*
X60729938Y-118685714D02*
X60777557Y-118638095D01*
X60777557Y-118638095D02*
X60872795Y-118590476D01*
X60872795Y-118590476D02*
X60968033Y-118590476D01*
X60968033Y-118590476D02*
X61110890Y-118638095D01*
X61110890Y-118638095D02*
X61682319Y-119209523D01*
X61682319Y-119209523D02*
X61682319Y-118590476D01*
X140988095Y-94204819D02*
X140988095Y-93204819D01*
X140988095Y-93681009D02*
X141559523Y-93681009D01*
X141559523Y-94204819D02*
X141559523Y-93204819D01*
X141988095Y-93300057D02*
X142035714Y-93252438D01*
X142035714Y-93252438D02*
X142130952Y-93204819D01*
X142130952Y-93204819D02*
X142369047Y-93204819D01*
X142369047Y-93204819D02*
X142464285Y-93252438D01*
X142464285Y-93252438D02*
X142511904Y-93300057D01*
X142511904Y-93300057D02*
X142559523Y-93395295D01*
X142559523Y-93395295D02*
X142559523Y-93490533D01*
X142559523Y-93490533D02*
X142511904Y-93633390D01*
X142511904Y-93633390D02*
X141940476Y-94204819D01*
X141940476Y-94204819D02*
X142559523Y-94204819D01*
X83636411Y-136122112D02*
X83636411Y-136189456D01*
X83636411Y-136189456D02*
X83569067Y-136324143D01*
X83569067Y-136324143D02*
X83501724Y-136391486D01*
X83501724Y-136391486D02*
X83367037Y-136458830D01*
X83367037Y-136458830D02*
X83232350Y-136458830D01*
X83232350Y-136458830D02*
X83131335Y-136425158D01*
X83131335Y-136425158D02*
X82962976Y-136324143D01*
X82962976Y-136324143D02*
X82861961Y-136223128D01*
X82861961Y-136223128D02*
X82760945Y-136054769D01*
X82760945Y-136054769D02*
X82727274Y-135953754D01*
X82727274Y-135953754D02*
X82727274Y-135819067D01*
X82727274Y-135819067D02*
X82794617Y-135684380D01*
X82794617Y-135684380D02*
X82861961Y-135617036D01*
X82861961Y-135617036D02*
X82996648Y-135549693D01*
X82996648Y-135549693D02*
X83063991Y-135549693D01*
X84377189Y-135516021D02*
X83973128Y-135920082D01*
X84175159Y-135718051D02*
X83468052Y-135010945D01*
X83468052Y-135010945D02*
X83501724Y-135179303D01*
X83501724Y-135179303D02*
X83501724Y-135313990D01*
X83501724Y-135313990D02*
X83468052Y-135415006D01*
X84554819Y-129892857D02*
X84078628Y-130226190D01*
X84554819Y-130464285D02*
X83554819Y-130464285D01*
X83554819Y-130464285D02*
X83554819Y-130083333D01*
X83554819Y-130083333D02*
X83602438Y-129988095D01*
X83602438Y-129988095D02*
X83650057Y-129940476D01*
X83650057Y-129940476D02*
X83745295Y-129892857D01*
X83745295Y-129892857D02*
X83888152Y-129892857D01*
X83888152Y-129892857D02*
X83983390Y-129940476D01*
X83983390Y-129940476D02*
X84031009Y-129988095D01*
X84031009Y-129988095D02*
X84078628Y-130083333D01*
X84078628Y-130083333D02*
X84078628Y-130464285D01*
X84554819Y-128940476D02*
X84554819Y-129511904D01*
X84554819Y-129226190D02*
X83554819Y-129226190D01*
X83554819Y-129226190D02*
X83697676Y-129321428D01*
X83697676Y-129321428D02*
X83792914Y-129416666D01*
X83792914Y-129416666D02*
X83840533Y-129511904D01*
X83554819Y-128607142D02*
X83554819Y-127940476D01*
X83554819Y-127940476D02*
X84554819Y-128369047D01*
X52988095Y-94204819D02*
X52988095Y-93204819D01*
X52988095Y-93681009D02*
X53559523Y-93681009D01*
X53559523Y-94204819D02*
X53559523Y-93204819D01*
X54559523Y-94204819D02*
X53988095Y-94204819D01*
X54273809Y-94204819D02*
X54273809Y-93204819D01*
X54273809Y-93204819D02*
X54178571Y-93347676D01*
X54178571Y-93347676D02*
X54083333Y-93442914D01*
X54083333Y-93442914D02*
X53988095Y-93490533D01*
X74607142Y-124359580D02*
X74559523Y-124407200D01*
X74559523Y-124407200D02*
X74416666Y-124454819D01*
X74416666Y-124454819D02*
X74321428Y-124454819D01*
X74321428Y-124454819D02*
X74178571Y-124407200D01*
X74178571Y-124407200D02*
X74083333Y-124311961D01*
X74083333Y-124311961D02*
X74035714Y-124216723D01*
X74035714Y-124216723D02*
X73988095Y-124026247D01*
X73988095Y-124026247D02*
X73988095Y-123883390D01*
X73988095Y-123883390D02*
X74035714Y-123692914D01*
X74035714Y-123692914D02*
X74083333Y-123597676D01*
X74083333Y-123597676D02*
X74178571Y-123502438D01*
X74178571Y-123502438D02*
X74321428Y-123454819D01*
X74321428Y-123454819D02*
X74416666Y-123454819D01*
X74416666Y-123454819D02*
X74559523Y-123502438D01*
X74559523Y-123502438D02*
X74607142Y-123550057D01*
X75559523Y-124454819D02*
X74988095Y-124454819D01*
X75273809Y-124454819D02*
X75273809Y-123454819D01*
X75273809Y-123454819D02*
X75178571Y-123597676D01*
X75178571Y-123597676D02*
X75083333Y-123692914D01*
X75083333Y-123692914D02*
X74988095Y-123740533D01*
X75892857Y-123454819D02*
X76559523Y-123454819D01*
X76559523Y-123454819D02*
X76130952Y-124454819D01*
X72539580Y-139892857D02*
X72587200Y-139940476D01*
X72587200Y-139940476D02*
X72634819Y-140083333D01*
X72634819Y-140083333D02*
X72634819Y-140178571D01*
X72634819Y-140178571D02*
X72587200Y-140321428D01*
X72587200Y-140321428D02*
X72491961Y-140416666D01*
X72491961Y-140416666D02*
X72396723Y-140464285D01*
X72396723Y-140464285D02*
X72206247Y-140511904D01*
X72206247Y-140511904D02*
X72063390Y-140511904D01*
X72063390Y-140511904D02*
X71872914Y-140464285D01*
X71872914Y-140464285D02*
X71777676Y-140416666D01*
X71777676Y-140416666D02*
X71682438Y-140321428D01*
X71682438Y-140321428D02*
X71634819Y-140178571D01*
X71634819Y-140178571D02*
X71634819Y-140083333D01*
X71634819Y-140083333D02*
X71682438Y-139940476D01*
X71682438Y-139940476D02*
X71730057Y-139892857D01*
X72634819Y-138940476D02*
X72634819Y-139511904D01*
X72634819Y-139226190D02*
X71634819Y-139226190D01*
X71634819Y-139226190D02*
X71777676Y-139321428D01*
X71777676Y-139321428D02*
X71872914Y-139416666D01*
X71872914Y-139416666D02*
X71920533Y-139511904D01*
X72634819Y-138464285D02*
X72634819Y-138273809D01*
X72634819Y-138273809D02*
X72587200Y-138178571D01*
X72587200Y-138178571D02*
X72539580Y-138130952D01*
X72539580Y-138130952D02*
X72396723Y-138035714D01*
X72396723Y-138035714D02*
X72206247Y-137988095D01*
X72206247Y-137988095D02*
X71825295Y-137988095D01*
X71825295Y-137988095D02*
X71730057Y-138035714D01*
X71730057Y-138035714D02*
X71682438Y-138083333D01*
X71682438Y-138083333D02*
X71634819Y-138178571D01*
X71634819Y-138178571D02*
X71634819Y-138369047D01*
X71634819Y-138369047D02*
X71682438Y-138464285D01*
X71682438Y-138464285D02*
X71730057Y-138511904D01*
X71730057Y-138511904D02*
X71825295Y-138559523D01*
X71825295Y-138559523D02*
X72063390Y-138559523D01*
X72063390Y-138559523D02*
X72158628Y-138511904D01*
X72158628Y-138511904D02*
X72206247Y-138464285D01*
X72206247Y-138464285D02*
X72253866Y-138369047D01*
X72253866Y-138369047D02*
X72253866Y-138178571D01*
X72253866Y-138178571D02*
X72206247Y-138083333D01*
X72206247Y-138083333D02*
X72158628Y-138035714D01*
X72158628Y-138035714D02*
X72063390Y-137988095D01*
X138218878Y-136856467D02*
X138218878Y-136069065D01*
X138218878Y-136069065D02*
X138481346Y-136631495D01*
X138481346Y-136631495D02*
X138743813Y-136069065D01*
X138743813Y-136069065D02*
X138743813Y-136856467D01*
X139118766Y-136856467D02*
X139118766Y-136069065D01*
X139118766Y-136069065D02*
X139418729Y-136069065D01*
X139418729Y-136069065D02*
X139493720Y-136106560D01*
X139493720Y-136106560D02*
X139531215Y-136144056D01*
X139531215Y-136144056D02*
X139568710Y-136219046D01*
X139568710Y-136219046D02*
X139568710Y-136331532D01*
X139568710Y-136331532D02*
X139531215Y-136406523D01*
X139531215Y-136406523D02*
X139493720Y-136444018D01*
X139493720Y-136444018D02*
X139418729Y-136481514D01*
X139418729Y-136481514D02*
X139118766Y-136481514D01*
X140243626Y-136331532D02*
X140243626Y-136856467D01*
X140056150Y-136031570D02*
X139868673Y-136594000D01*
X139868673Y-136594000D02*
X140356112Y-136594000D01*
X88495833Y-133704819D02*
X88162500Y-133228628D01*
X87924405Y-133704819D02*
X87924405Y-132704819D01*
X87924405Y-132704819D02*
X88305357Y-132704819D01*
X88305357Y-132704819D02*
X88400595Y-132752438D01*
X88400595Y-132752438D02*
X88448214Y-132800057D01*
X88448214Y-132800057D02*
X88495833Y-132895295D01*
X88495833Y-132895295D02*
X88495833Y-133038152D01*
X88495833Y-133038152D02*
X88448214Y-133133390D01*
X88448214Y-133133390D02*
X88400595Y-133181009D01*
X88400595Y-133181009D02*
X88305357Y-133228628D01*
X88305357Y-133228628D02*
X87924405Y-133228628D01*
X89352976Y-133038152D02*
X89352976Y-133704819D01*
X89114881Y-132657200D02*
X88876786Y-133371485D01*
X88876786Y-133371485D02*
X89495833Y-133371485D01*
X65791169Y-136049693D02*
X65723825Y-136049693D01*
X65723825Y-136049693D02*
X65589138Y-135982349D01*
X65589138Y-135982349D02*
X65521795Y-135915006D01*
X65521795Y-135915006D02*
X65454451Y-135780319D01*
X65454451Y-135780319D02*
X65454451Y-135645632D01*
X65454451Y-135645632D02*
X65488123Y-135544617D01*
X65488123Y-135544617D02*
X65589138Y-135376258D01*
X65589138Y-135376258D02*
X65690153Y-135275243D01*
X65690153Y-135275243D02*
X65858512Y-135174227D01*
X65858512Y-135174227D02*
X65959527Y-135140556D01*
X65959527Y-135140556D02*
X66094214Y-135140556D01*
X66094214Y-135140556D02*
X66228901Y-135207899D01*
X66228901Y-135207899D02*
X66296245Y-135275243D01*
X66296245Y-135275243D02*
X66363588Y-135409930D01*
X66363588Y-135409930D02*
X66363588Y-135477273D01*
X66397260Y-136790471D02*
X65993199Y-136386410D01*
X66195230Y-136588441D02*
X66902336Y-135881334D01*
X66902336Y-135881334D02*
X66733978Y-135915006D01*
X66733978Y-135915006D02*
X66599291Y-135915006D01*
X66599291Y-135915006D02*
X66498275Y-135881334D01*
X67205382Y-136790472D02*
X67171711Y-136689456D01*
X67171711Y-136689456D02*
X67171711Y-136622113D01*
X67171711Y-136622113D02*
X67205382Y-136521098D01*
X67205382Y-136521098D02*
X67239054Y-136487426D01*
X67239054Y-136487426D02*
X67340069Y-136453754D01*
X67340069Y-136453754D02*
X67407413Y-136453754D01*
X67407413Y-136453754D02*
X67508428Y-136487426D01*
X67508428Y-136487426D02*
X67643115Y-136622113D01*
X67643115Y-136622113D02*
X67676787Y-136723128D01*
X67676787Y-136723128D02*
X67676787Y-136790472D01*
X67676787Y-136790472D02*
X67643115Y-136891487D01*
X67643115Y-136891487D02*
X67609443Y-136925159D01*
X67609443Y-136925159D02*
X67508428Y-136958830D01*
X67508428Y-136958830D02*
X67441085Y-136958830D01*
X67441085Y-136958830D02*
X67340069Y-136925159D01*
X67340069Y-136925159D02*
X67205382Y-136790472D01*
X67205382Y-136790472D02*
X67104367Y-136756800D01*
X67104367Y-136756800D02*
X67037024Y-136756800D01*
X67037024Y-136756800D02*
X66936008Y-136790472D01*
X66936008Y-136790472D02*
X66801321Y-136925159D01*
X66801321Y-136925159D02*
X66767650Y-137026174D01*
X66767650Y-137026174D02*
X66767650Y-137093517D01*
X66767650Y-137093517D02*
X66801321Y-137194533D01*
X66801321Y-137194533D02*
X66936008Y-137329220D01*
X66936008Y-137329220D02*
X67037024Y-137362891D01*
X67037024Y-137362891D02*
X67104367Y-137362891D01*
X67104367Y-137362891D02*
X67205382Y-137329220D01*
X67205382Y-137329220D02*
X67340069Y-137194533D01*
X67340069Y-137194533D02*
X67373741Y-137093517D01*
X67373741Y-137093517D02*
X67373741Y-137026174D01*
X67373741Y-137026174D02*
X67340069Y-136925159D01*
X89083333Y-135704819D02*
X88750000Y-135228628D01*
X88511905Y-135704819D02*
X88511905Y-134704819D01*
X88511905Y-134704819D02*
X88892857Y-134704819D01*
X88892857Y-134704819D02*
X88988095Y-134752438D01*
X88988095Y-134752438D02*
X89035714Y-134800057D01*
X89035714Y-134800057D02*
X89083333Y-134895295D01*
X89083333Y-134895295D02*
X89083333Y-135038152D01*
X89083333Y-135038152D02*
X89035714Y-135133390D01*
X89035714Y-135133390D02*
X88988095Y-135181009D01*
X88988095Y-135181009D02*
X88892857Y-135228628D01*
X88892857Y-135228628D02*
X88511905Y-135228628D01*
X89416667Y-134704819D02*
X90035714Y-134704819D01*
X90035714Y-134704819D02*
X89702381Y-135085771D01*
X89702381Y-135085771D02*
X89845238Y-135085771D01*
X89845238Y-135085771D02*
X89940476Y-135133390D01*
X89940476Y-135133390D02*
X89988095Y-135181009D01*
X89988095Y-135181009D02*
X90035714Y-135276247D01*
X90035714Y-135276247D02*
X90035714Y-135514342D01*
X90035714Y-135514342D02*
X89988095Y-135609580D01*
X89988095Y-135609580D02*
X89940476Y-135657200D01*
X89940476Y-135657200D02*
X89845238Y-135704819D01*
X89845238Y-135704819D02*
X89559524Y-135704819D01*
X89559524Y-135704819D02*
X89464286Y-135657200D01*
X89464286Y-135657200D02*
X89416667Y-135609580D01*
X89607142Y-129609580D02*
X89559523Y-129657200D01*
X89559523Y-129657200D02*
X89416666Y-129704819D01*
X89416666Y-129704819D02*
X89321428Y-129704819D01*
X89321428Y-129704819D02*
X89178571Y-129657200D01*
X89178571Y-129657200D02*
X89083333Y-129561961D01*
X89083333Y-129561961D02*
X89035714Y-129466723D01*
X89035714Y-129466723D02*
X88988095Y-129276247D01*
X88988095Y-129276247D02*
X88988095Y-129133390D01*
X88988095Y-129133390D02*
X89035714Y-128942914D01*
X89035714Y-128942914D02*
X89083333Y-128847676D01*
X89083333Y-128847676D02*
X89178571Y-128752438D01*
X89178571Y-128752438D02*
X89321428Y-128704819D01*
X89321428Y-128704819D02*
X89416666Y-128704819D01*
X89416666Y-128704819D02*
X89559523Y-128752438D01*
X89559523Y-128752438D02*
X89607142Y-128800057D01*
X90559523Y-129704819D02*
X89988095Y-129704819D01*
X90273809Y-129704819D02*
X90273809Y-128704819D01*
X90273809Y-128704819D02*
X90178571Y-128847676D01*
X90178571Y-128847676D02*
X90083333Y-128942914D01*
X90083333Y-128942914D02*
X89988095Y-128990533D01*
X90940476Y-128800057D02*
X90988095Y-128752438D01*
X90988095Y-128752438D02*
X91083333Y-128704819D01*
X91083333Y-128704819D02*
X91321428Y-128704819D01*
X91321428Y-128704819D02*
X91416666Y-128752438D01*
X91416666Y-128752438D02*
X91464285Y-128800057D01*
X91464285Y-128800057D02*
X91511904Y-128895295D01*
X91511904Y-128895295D02*
X91511904Y-128990533D01*
X91511904Y-128990533D02*
X91464285Y-129133390D01*
X91464285Y-129133390D02*
X90892857Y-129704819D01*
X90892857Y-129704819D02*
X91511904Y-129704819D01*
X52357142Y-137104819D02*
X52023809Y-136628628D01*
X51785714Y-137104819D02*
X51785714Y-136104819D01*
X51785714Y-136104819D02*
X52166666Y-136104819D01*
X52166666Y-136104819D02*
X52261904Y-136152438D01*
X52261904Y-136152438D02*
X52309523Y-136200057D01*
X52309523Y-136200057D02*
X52357142Y-136295295D01*
X52357142Y-136295295D02*
X52357142Y-136438152D01*
X52357142Y-136438152D02*
X52309523Y-136533390D01*
X52309523Y-136533390D02*
X52261904Y-136581009D01*
X52261904Y-136581009D02*
X52166666Y-136628628D01*
X52166666Y-136628628D02*
X51785714Y-136628628D01*
X53309523Y-137104819D02*
X52738095Y-137104819D01*
X53023809Y-137104819D02*
X53023809Y-136104819D01*
X53023809Y-136104819D02*
X52928571Y-136247676D01*
X52928571Y-136247676D02*
X52833333Y-136342914D01*
X52833333Y-136342914D02*
X52738095Y-136390533D01*
X54166666Y-136438152D02*
X54166666Y-137104819D01*
X53928571Y-136057200D02*
X53690476Y-136771485D01*
X53690476Y-136771485D02*
X54309523Y-136771485D01*
X83857142Y-138609580D02*
X83809523Y-138657200D01*
X83809523Y-138657200D02*
X83666666Y-138704819D01*
X83666666Y-138704819D02*
X83571428Y-138704819D01*
X83571428Y-138704819D02*
X83428571Y-138657200D01*
X83428571Y-138657200D02*
X83333333Y-138561961D01*
X83333333Y-138561961D02*
X83285714Y-138466723D01*
X83285714Y-138466723D02*
X83238095Y-138276247D01*
X83238095Y-138276247D02*
X83238095Y-138133390D01*
X83238095Y-138133390D02*
X83285714Y-137942914D01*
X83285714Y-137942914D02*
X83333333Y-137847676D01*
X83333333Y-137847676D02*
X83428571Y-137752438D01*
X83428571Y-137752438D02*
X83571428Y-137704819D01*
X83571428Y-137704819D02*
X83666666Y-137704819D01*
X83666666Y-137704819D02*
X83809523Y-137752438D01*
X83809523Y-137752438D02*
X83857142Y-137800057D01*
X84809523Y-138704819D02*
X84238095Y-138704819D01*
X84523809Y-138704819D02*
X84523809Y-137704819D01*
X84523809Y-137704819D02*
X84428571Y-137847676D01*
X84428571Y-137847676D02*
X84333333Y-137942914D01*
X84333333Y-137942914D02*
X84238095Y-137990533D01*
X85666666Y-137704819D02*
X85476190Y-137704819D01*
X85476190Y-137704819D02*
X85380952Y-137752438D01*
X85380952Y-137752438D02*
X85333333Y-137800057D01*
X85333333Y-137800057D02*
X85238095Y-137942914D01*
X85238095Y-137942914D02*
X85190476Y-138133390D01*
X85190476Y-138133390D02*
X85190476Y-138514342D01*
X85190476Y-138514342D02*
X85238095Y-138609580D01*
X85238095Y-138609580D02*
X85285714Y-138657200D01*
X85285714Y-138657200D02*
X85380952Y-138704819D01*
X85380952Y-138704819D02*
X85571428Y-138704819D01*
X85571428Y-138704819D02*
X85666666Y-138657200D01*
X85666666Y-138657200D02*
X85714285Y-138609580D01*
X85714285Y-138609580D02*
X85761904Y-138514342D01*
X85761904Y-138514342D02*
X85761904Y-138276247D01*
X85761904Y-138276247D02*
X85714285Y-138181009D01*
X85714285Y-138181009D02*
X85666666Y-138133390D01*
X85666666Y-138133390D02*
X85571428Y-138085771D01*
X85571428Y-138085771D02*
X85380952Y-138085771D01*
X85380952Y-138085771D02*
X85285714Y-138133390D01*
X85285714Y-138133390D02*
X85238095Y-138181009D01*
X85238095Y-138181009D02*
X85190476Y-138276247D01*
X140988095Y-168954819D02*
X140988095Y-167954819D01*
X140988095Y-168431009D02*
X141559523Y-168431009D01*
X141559523Y-168954819D02*
X141559523Y-167954819D01*
X142464285Y-168288152D02*
X142464285Y-168954819D01*
X142226190Y-167907200D02*
X141988095Y-168621485D01*
X141988095Y-168621485D02*
X142607142Y-168621485D01*
X91107142Y-132109580D02*
X91059523Y-132157200D01*
X91059523Y-132157200D02*
X90916666Y-132204819D01*
X90916666Y-132204819D02*
X90821428Y-132204819D01*
X90821428Y-132204819D02*
X90678571Y-132157200D01*
X90678571Y-132157200D02*
X90583333Y-132061961D01*
X90583333Y-132061961D02*
X90535714Y-131966723D01*
X90535714Y-131966723D02*
X90488095Y-131776247D01*
X90488095Y-131776247D02*
X90488095Y-131633390D01*
X90488095Y-131633390D02*
X90535714Y-131442914D01*
X90535714Y-131442914D02*
X90583333Y-131347676D01*
X90583333Y-131347676D02*
X90678571Y-131252438D01*
X90678571Y-131252438D02*
X90821428Y-131204819D01*
X90821428Y-131204819D02*
X90916666Y-131204819D01*
X90916666Y-131204819D02*
X91059523Y-131252438D01*
X91059523Y-131252438D02*
X91107142Y-131300057D01*
X92059523Y-132204819D02*
X91488095Y-132204819D01*
X91773809Y-132204819D02*
X91773809Y-131204819D01*
X91773809Y-131204819D02*
X91678571Y-131347676D01*
X91678571Y-131347676D02*
X91583333Y-131442914D01*
X91583333Y-131442914D02*
X91488095Y-131490533D01*
X92392857Y-131204819D02*
X93011904Y-131204819D01*
X93011904Y-131204819D02*
X92678571Y-131585771D01*
X92678571Y-131585771D02*
X92821428Y-131585771D01*
X92821428Y-131585771D02*
X92916666Y-131633390D01*
X92916666Y-131633390D02*
X92964285Y-131681009D01*
X92964285Y-131681009D02*
X93011904Y-131776247D01*
X93011904Y-131776247D02*
X93011904Y-132014342D01*
X93011904Y-132014342D02*
X92964285Y-132109580D01*
X92964285Y-132109580D02*
X92916666Y-132157200D01*
X92916666Y-132157200D02*
X92821428Y-132204819D01*
X92821428Y-132204819D02*
X92535714Y-132204819D01*
X92535714Y-132204819D02*
X92440476Y-132157200D01*
X92440476Y-132157200D02*
X92392857Y-132109580D01*
X124718878Y-101606467D02*
X124718878Y-100819065D01*
X124718878Y-100819065D02*
X124981346Y-101381495D01*
X124981346Y-101381495D02*
X125243813Y-100819065D01*
X125243813Y-100819065D02*
X125243813Y-101606467D01*
X125618766Y-101606467D02*
X125618766Y-100819065D01*
X125618766Y-100819065D02*
X125918729Y-100819065D01*
X125918729Y-100819065D02*
X125993720Y-100856560D01*
X125993720Y-100856560D02*
X126031215Y-100894056D01*
X126031215Y-100894056D02*
X126068710Y-100969046D01*
X126068710Y-100969046D02*
X126068710Y-101081532D01*
X126068710Y-101081532D02*
X126031215Y-101156523D01*
X126031215Y-101156523D02*
X125993720Y-101194018D01*
X125993720Y-101194018D02*
X125918729Y-101231514D01*
X125918729Y-101231514D02*
X125618766Y-101231514D01*
X126818617Y-101606467D02*
X126368673Y-101606467D01*
X126593645Y-101606467D02*
X126593645Y-100819065D01*
X126593645Y-100819065D02*
X126518654Y-100931551D01*
X126518654Y-100931551D02*
X126443664Y-101006542D01*
X126443664Y-101006542D02*
X126368673Y-101044037D01*
X94988095Y-136454819D02*
X94988095Y-137264342D01*
X94988095Y-137264342D02*
X95035714Y-137359580D01*
X95035714Y-137359580D02*
X95083333Y-137407200D01*
X95083333Y-137407200D02*
X95178571Y-137454819D01*
X95178571Y-137454819D02*
X95369047Y-137454819D01*
X95369047Y-137454819D02*
X95464285Y-137407200D01*
X95464285Y-137407200D02*
X95511904Y-137359580D01*
X95511904Y-137359580D02*
X95559523Y-137264342D01*
X95559523Y-137264342D02*
X95559523Y-136454819D01*
X95940476Y-136454819D02*
X96559523Y-136454819D01*
X96559523Y-136454819D02*
X96226190Y-136835771D01*
X96226190Y-136835771D02*
X96369047Y-136835771D01*
X96369047Y-136835771D02*
X96464285Y-136883390D01*
X96464285Y-136883390D02*
X96511904Y-136931009D01*
X96511904Y-136931009D02*
X96559523Y-137026247D01*
X96559523Y-137026247D02*
X96559523Y-137264342D01*
X96559523Y-137264342D02*
X96511904Y-137359580D01*
X96511904Y-137359580D02*
X96464285Y-137407200D01*
X96464285Y-137407200D02*
X96369047Y-137454819D01*
X96369047Y-137454819D02*
X96083333Y-137454819D01*
X96083333Y-137454819D02*
X95988095Y-137407200D01*
X95988095Y-137407200D02*
X95940476Y-137359580D01*
X87795833Y-150609580D02*
X87748214Y-150657200D01*
X87748214Y-150657200D02*
X87605357Y-150704819D01*
X87605357Y-150704819D02*
X87510119Y-150704819D01*
X87510119Y-150704819D02*
X87367262Y-150657200D01*
X87367262Y-150657200D02*
X87272024Y-150561961D01*
X87272024Y-150561961D02*
X87224405Y-150466723D01*
X87224405Y-150466723D02*
X87176786Y-150276247D01*
X87176786Y-150276247D02*
X87176786Y-150133390D01*
X87176786Y-150133390D02*
X87224405Y-149942914D01*
X87224405Y-149942914D02*
X87272024Y-149847676D01*
X87272024Y-149847676D02*
X87367262Y-149752438D01*
X87367262Y-149752438D02*
X87510119Y-149704819D01*
X87510119Y-149704819D02*
X87605357Y-149704819D01*
X87605357Y-149704819D02*
X87748214Y-149752438D01*
X87748214Y-149752438D02*
X87795833Y-149800057D01*
X88129167Y-149704819D02*
X88795833Y-149704819D01*
X88795833Y-149704819D02*
X88367262Y-150704819D01*
X66136411Y-130122112D02*
X66136411Y-130189456D01*
X66136411Y-130189456D02*
X66069067Y-130324143D01*
X66069067Y-130324143D02*
X66001724Y-130391486D01*
X66001724Y-130391486D02*
X65867037Y-130458830D01*
X65867037Y-130458830D02*
X65732350Y-130458830D01*
X65732350Y-130458830D02*
X65631335Y-130425158D01*
X65631335Y-130425158D02*
X65462976Y-130324143D01*
X65462976Y-130324143D02*
X65361961Y-130223128D01*
X65361961Y-130223128D02*
X65260945Y-130054769D01*
X65260945Y-130054769D02*
X65227274Y-129953754D01*
X65227274Y-129953754D02*
X65227274Y-129819067D01*
X65227274Y-129819067D02*
X65294617Y-129684380D01*
X65294617Y-129684380D02*
X65361961Y-129617036D01*
X65361961Y-129617036D02*
X65496648Y-129549693D01*
X65496648Y-129549693D02*
X65563991Y-129549693D01*
X65833365Y-129280319D02*
X65833365Y-129212975D01*
X65833365Y-129212975D02*
X65867037Y-129111960D01*
X65867037Y-129111960D02*
X66035396Y-128943601D01*
X66035396Y-128943601D02*
X66136411Y-128909929D01*
X66136411Y-128909929D02*
X66203754Y-128909929D01*
X66203754Y-128909929D02*
X66304770Y-128943601D01*
X66304770Y-128943601D02*
X66372113Y-129010945D01*
X66372113Y-129010945D02*
X66439457Y-129145632D01*
X66439457Y-129145632D02*
X66439457Y-129953754D01*
X66439457Y-129953754D02*
X66877189Y-129516021D01*
X56261905Y-131554819D02*
X56261905Y-130554819D01*
X56261905Y-130554819D02*
X56500000Y-130554819D01*
X56500000Y-130554819D02*
X56642857Y-130602438D01*
X56642857Y-130602438D02*
X56738095Y-130697676D01*
X56738095Y-130697676D02*
X56785714Y-130792914D01*
X56785714Y-130792914D02*
X56833333Y-130983390D01*
X56833333Y-130983390D02*
X56833333Y-131126247D01*
X56833333Y-131126247D02*
X56785714Y-131316723D01*
X56785714Y-131316723D02*
X56738095Y-131411961D01*
X56738095Y-131411961D02*
X56642857Y-131507200D01*
X56642857Y-131507200D02*
X56500000Y-131554819D01*
X56500000Y-131554819D02*
X56261905Y-131554819D01*
X57214286Y-130650057D02*
X57261905Y-130602438D01*
X57261905Y-130602438D02*
X57357143Y-130554819D01*
X57357143Y-130554819D02*
X57595238Y-130554819D01*
X57595238Y-130554819D02*
X57690476Y-130602438D01*
X57690476Y-130602438D02*
X57738095Y-130650057D01*
X57738095Y-130650057D02*
X57785714Y-130745295D01*
X57785714Y-130745295D02*
X57785714Y-130840533D01*
X57785714Y-130840533D02*
X57738095Y-130983390D01*
X57738095Y-130983390D02*
X57166667Y-131554819D01*
X57166667Y-131554819D02*
X57785714Y-131554819D01*
X52988095Y-168954819D02*
X52988095Y-167954819D01*
X52988095Y-168431009D02*
X53559523Y-168431009D01*
X53559523Y-168954819D02*
X53559523Y-167954819D01*
X53940476Y-167954819D02*
X54559523Y-167954819D01*
X54559523Y-167954819D02*
X54226190Y-168335771D01*
X54226190Y-168335771D02*
X54369047Y-168335771D01*
X54369047Y-168335771D02*
X54464285Y-168383390D01*
X54464285Y-168383390D02*
X54511904Y-168431009D01*
X54511904Y-168431009D02*
X54559523Y-168526247D01*
X54559523Y-168526247D02*
X54559523Y-168764342D01*
X54559523Y-168764342D02*
X54511904Y-168859580D01*
X54511904Y-168859580D02*
X54464285Y-168907200D01*
X54464285Y-168907200D02*
X54369047Y-168954819D01*
X54369047Y-168954819D02*
X54083333Y-168954819D01*
X54083333Y-168954819D02*
X53988095Y-168907200D01*
X53988095Y-168907200D02*
X53940476Y-168859580D01*
X84954819Y-156011904D02*
X85764342Y-156011904D01*
X85764342Y-156011904D02*
X85859580Y-155964285D01*
X85859580Y-155964285D02*
X85907200Y-155916666D01*
X85907200Y-155916666D02*
X85954819Y-155821428D01*
X85954819Y-155821428D02*
X85954819Y-155630952D01*
X85954819Y-155630952D02*
X85907200Y-155535714D01*
X85907200Y-155535714D02*
X85859580Y-155488095D01*
X85859580Y-155488095D02*
X85764342Y-155440476D01*
X85764342Y-155440476D02*
X84954819Y-155440476D01*
X85288152Y-154535714D02*
X85954819Y-154535714D01*
X84907200Y-154773809D02*
X85621485Y-155011904D01*
X85621485Y-155011904D02*
X85621485Y-154392857D01*
X136583333Y-135381800D02*
X136535714Y-135429420D01*
X136535714Y-135429420D02*
X136392857Y-135477039D01*
X136392857Y-135477039D02*
X136297619Y-135477039D01*
X136297619Y-135477039D02*
X136154762Y-135429420D01*
X136154762Y-135429420D02*
X136059524Y-135334181D01*
X136059524Y-135334181D02*
X136011905Y-135238943D01*
X136011905Y-135238943D02*
X135964286Y-135048467D01*
X135964286Y-135048467D02*
X135964286Y-134905610D01*
X135964286Y-134905610D02*
X136011905Y-134715134D01*
X136011905Y-134715134D02*
X136059524Y-134619896D01*
X136059524Y-134619896D02*
X136154762Y-134524658D01*
X136154762Y-134524658D02*
X136297619Y-134477039D01*
X136297619Y-134477039D02*
X136392857Y-134477039D01*
X136392857Y-134477039D02*
X136535714Y-134524658D01*
X136535714Y-134524658D02*
X136583333Y-134572277D01*
X137154762Y-134905610D02*
X137059524Y-134857991D01*
X137059524Y-134857991D02*
X137011905Y-134810372D01*
X137011905Y-134810372D02*
X136964286Y-134715134D01*
X136964286Y-134715134D02*
X136964286Y-134667515D01*
X136964286Y-134667515D02*
X137011905Y-134572277D01*
X137011905Y-134572277D02*
X137059524Y-134524658D01*
X137059524Y-134524658D02*
X137154762Y-134477039D01*
X137154762Y-134477039D02*
X137345238Y-134477039D01*
X137345238Y-134477039D02*
X137440476Y-134524658D01*
X137440476Y-134524658D02*
X137488095Y-134572277D01*
X137488095Y-134572277D02*
X137535714Y-134667515D01*
X137535714Y-134667515D02*
X137535714Y-134715134D01*
X137535714Y-134715134D02*
X137488095Y-134810372D01*
X137488095Y-134810372D02*
X137440476Y-134857991D01*
X137440476Y-134857991D02*
X137345238Y-134905610D01*
X137345238Y-134905610D02*
X137154762Y-134905610D01*
X137154762Y-134905610D02*
X137059524Y-134953229D01*
X137059524Y-134953229D02*
X137011905Y-135000848D01*
X137011905Y-135000848D02*
X136964286Y-135096086D01*
X136964286Y-135096086D02*
X136964286Y-135286562D01*
X136964286Y-135286562D02*
X137011905Y-135381800D01*
X137011905Y-135381800D02*
X137059524Y-135429420D01*
X137059524Y-135429420D02*
X137154762Y-135477039D01*
X137154762Y-135477039D02*
X137345238Y-135477039D01*
X137345238Y-135477039D02*
X137440476Y-135429420D01*
X137440476Y-135429420D02*
X137488095Y-135381800D01*
X137488095Y-135381800D02*
X137535714Y-135286562D01*
X137535714Y-135286562D02*
X137535714Y-135096086D01*
X137535714Y-135096086D02*
X137488095Y-135000848D01*
X137488095Y-135000848D02*
X137440476Y-134953229D01*
X137440476Y-134953229D02*
X137345238Y-134905610D01*
X89607142Y-126609580D02*
X89559523Y-126657200D01*
X89559523Y-126657200D02*
X89416666Y-126704819D01*
X89416666Y-126704819D02*
X89321428Y-126704819D01*
X89321428Y-126704819D02*
X89178571Y-126657200D01*
X89178571Y-126657200D02*
X89083333Y-126561961D01*
X89083333Y-126561961D02*
X89035714Y-126466723D01*
X89035714Y-126466723D02*
X88988095Y-126276247D01*
X88988095Y-126276247D02*
X88988095Y-126133390D01*
X88988095Y-126133390D02*
X89035714Y-125942914D01*
X89035714Y-125942914D02*
X89083333Y-125847676D01*
X89083333Y-125847676D02*
X89178571Y-125752438D01*
X89178571Y-125752438D02*
X89321428Y-125704819D01*
X89321428Y-125704819D02*
X89416666Y-125704819D01*
X89416666Y-125704819D02*
X89559523Y-125752438D01*
X89559523Y-125752438D02*
X89607142Y-125800057D01*
X90559523Y-126704819D02*
X89988095Y-126704819D01*
X90273809Y-126704819D02*
X90273809Y-125704819D01*
X90273809Y-125704819D02*
X90178571Y-125847676D01*
X90178571Y-125847676D02*
X90083333Y-125942914D01*
X90083333Y-125942914D02*
X89988095Y-125990533D01*
X91511904Y-126704819D02*
X90940476Y-126704819D01*
X91226190Y-126704819D02*
X91226190Y-125704819D01*
X91226190Y-125704819D02*
X91130952Y-125847676D01*
X91130952Y-125847676D02*
X91035714Y-125942914D01*
X91035714Y-125942914D02*
X90940476Y-125990533D01*
X73109580Y-114416666D02*
X73157200Y-114464285D01*
X73157200Y-114464285D02*
X73204819Y-114607142D01*
X73204819Y-114607142D02*
X73204819Y-114702380D01*
X73204819Y-114702380D02*
X73157200Y-114845237D01*
X73157200Y-114845237D02*
X73061961Y-114940475D01*
X73061961Y-114940475D02*
X72966723Y-114988094D01*
X72966723Y-114988094D02*
X72776247Y-115035713D01*
X72776247Y-115035713D02*
X72633390Y-115035713D01*
X72633390Y-115035713D02*
X72442914Y-114988094D01*
X72442914Y-114988094D02*
X72347676Y-114940475D01*
X72347676Y-114940475D02*
X72252438Y-114845237D01*
X72252438Y-114845237D02*
X72204819Y-114702380D01*
X72204819Y-114702380D02*
X72204819Y-114607142D01*
X72204819Y-114607142D02*
X72252438Y-114464285D01*
X72252438Y-114464285D02*
X72300057Y-114416666D01*
X72204819Y-113559523D02*
X72204819Y-113749999D01*
X72204819Y-113749999D02*
X72252438Y-113845237D01*
X72252438Y-113845237D02*
X72300057Y-113892856D01*
X72300057Y-113892856D02*
X72442914Y-113988094D01*
X72442914Y-113988094D02*
X72633390Y-114035713D01*
X72633390Y-114035713D02*
X73014342Y-114035713D01*
X73014342Y-114035713D02*
X73109580Y-113988094D01*
X73109580Y-113988094D02*
X73157200Y-113940475D01*
X73157200Y-113940475D02*
X73204819Y-113845237D01*
X73204819Y-113845237D02*
X73204819Y-113654761D01*
X73204819Y-113654761D02*
X73157200Y-113559523D01*
X73157200Y-113559523D02*
X73109580Y-113511904D01*
X73109580Y-113511904D02*
X73014342Y-113464285D01*
X73014342Y-113464285D02*
X72776247Y-113464285D01*
X72776247Y-113464285D02*
X72681009Y-113511904D01*
X72681009Y-113511904D02*
X72633390Y-113559523D01*
X72633390Y-113559523D02*
X72585771Y-113654761D01*
X72585771Y-113654761D02*
X72585771Y-113845237D01*
X72585771Y-113845237D02*
X72633390Y-113940475D01*
X72633390Y-113940475D02*
X72681009Y-113988094D01*
X72681009Y-113988094D02*
X72776247Y-114035713D01*
X94333333Y-150604819D02*
X93857143Y-150604819D01*
X93857143Y-150604819D02*
X93857143Y-149604819D01*
X95190476Y-150604819D02*
X94619048Y-150604819D01*
X94904762Y-150604819D02*
X94904762Y-149604819D01*
X94904762Y-149604819D02*
X94809524Y-149747676D01*
X94809524Y-149747676D02*
X94714286Y-149842914D01*
X94714286Y-149842914D02*
X94619048Y-149890533D01*
X61590833Y-128689580D02*
X61543214Y-128737200D01*
X61543214Y-128737200D02*
X61400357Y-128784819D01*
X61400357Y-128784819D02*
X61305119Y-128784819D01*
X61305119Y-128784819D02*
X61162262Y-128737200D01*
X61162262Y-128737200D02*
X61067024Y-128641961D01*
X61067024Y-128641961D02*
X61019405Y-128546723D01*
X61019405Y-128546723D02*
X60971786Y-128356247D01*
X60971786Y-128356247D02*
X60971786Y-128213390D01*
X60971786Y-128213390D02*
X61019405Y-128022914D01*
X61019405Y-128022914D02*
X61067024Y-127927676D01*
X61067024Y-127927676D02*
X61162262Y-127832438D01*
X61162262Y-127832438D02*
X61305119Y-127784819D01*
X61305119Y-127784819D02*
X61400357Y-127784819D01*
X61400357Y-127784819D02*
X61543214Y-127832438D01*
X61543214Y-127832438D02*
X61590833Y-127880057D01*
X62447976Y-128118152D02*
X62447976Y-128784819D01*
X62209881Y-127737200D02*
X61971786Y-128451485D01*
X61971786Y-128451485D02*
X62590833Y-128451485D01*
X73309580Y-118416666D02*
X73357200Y-118464285D01*
X73357200Y-118464285D02*
X73404819Y-118607142D01*
X73404819Y-118607142D02*
X73404819Y-118702380D01*
X73404819Y-118702380D02*
X73357200Y-118845237D01*
X73357200Y-118845237D02*
X73261961Y-118940475D01*
X73261961Y-118940475D02*
X73166723Y-118988094D01*
X73166723Y-118988094D02*
X72976247Y-119035713D01*
X72976247Y-119035713D02*
X72833390Y-119035713D01*
X72833390Y-119035713D02*
X72642914Y-118988094D01*
X72642914Y-118988094D02*
X72547676Y-118940475D01*
X72547676Y-118940475D02*
X72452438Y-118845237D01*
X72452438Y-118845237D02*
X72404819Y-118702380D01*
X72404819Y-118702380D02*
X72404819Y-118607142D01*
X72404819Y-118607142D02*
X72452438Y-118464285D01*
X72452438Y-118464285D02*
X72500057Y-118416666D01*
X72404819Y-118083332D02*
X72404819Y-117464285D01*
X72404819Y-117464285D02*
X72785771Y-117797618D01*
X72785771Y-117797618D02*
X72785771Y-117654761D01*
X72785771Y-117654761D02*
X72833390Y-117559523D01*
X72833390Y-117559523D02*
X72881009Y-117511904D01*
X72881009Y-117511904D02*
X72976247Y-117464285D01*
X72976247Y-117464285D02*
X73214342Y-117464285D01*
X73214342Y-117464285D02*
X73309580Y-117511904D01*
X73309580Y-117511904D02*
X73357200Y-117559523D01*
X73357200Y-117559523D02*
X73404819Y-117654761D01*
X73404819Y-117654761D02*
X73404819Y-117940475D01*
X73404819Y-117940475D02*
X73357200Y-118035713D01*
X73357200Y-118035713D02*
X73309580Y-118083332D01*
X95238095Y-159454819D02*
X95809523Y-159454819D01*
X95523809Y-160454819D02*
X95523809Y-159454819D01*
X96142857Y-160454819D02*
X96142857Y-159454819D01*
X96142857Y-159454819D02*
X96523809Y-159454819D01*
X96523809Y-159454819D02*
X96619047Y-159502438D01*
X96619047Y-159502438D02*
X96666666Y-159550057D01*
X96666666Y-159550057D02*
X96714285Y-159645295D01*
X96714285Y-159645295D02*
X96714285Y-159788152D01*
X96714285Y-159788152D02*
X96666666Y-159883390D01*
X96666666Y-159883390D02*
X96619047Y-159931009D01*
X96619047Y-159931009D02*
X96523809Y-159978628D01*
X96523809Y-159978628D02*
X96142857Y-159978628D01*
X97047619Y-159454819D02*
X97714285Y-159454819D01*
X97714285Y-159454819D02*
X97285714Y-160454819D01*
X84554819Y-125892857D02*
X84078628Y-126226190D01*
X84554819Y-126464285D02*
X83554819Y-126464285D01*
X83554819Y-126464285D02*
X83554819Y-126083333D01*
X83554819Y-126083333D02*
X83602438Y-125988095D01*
X83602438Y-125988095D02*
X83650057Y-125940476D01*
X83650057Y-125940476D02*
X83745295Y-125892857D01*
X83745295Y-125892857D02*
X83888152Y-125892857D01*
X83888152Y-125892857D02*
X83983390Y-125940476D01*
X83983390Y-125940476D02*
X84031009Y-125988095D01*
X84031009Y-125988095D02*
X84078628Y-126083333D01*
X84078628Y-126083333D02*
X84078628Y-126464285D01*
X84554819Y-124940476D02*
X84554819Y-125511904D01*
X84554819Y-125226190D02*
X83554819Y-125226190D01*
X83554819Y-125226190D02*
X83697676Y-125321428D01*
X83697676Y-125321428D02*
X83792914Y-125416666D01*
X83792914Y-125416666D02*
X83840533Y-125511904D01*
X83554819Y-124083333D02*
X83554819Y-124273809D01*
X83554819Y-124273809D02*
X83602438Y-124369047D01*
X83602438Y-124369047D02*
X83650057Y-124416666D01*
X83650057Y-124416666D02*
X83792914Y-124511904D01*
X83792914Y-124511904D02*
X83983390Y-124559523D01*
X83983390Y-124559523D02*
X84364342Y-124559523D01*
X84364342Y-124559523D02*
X84459580Y-124511904D01*
X84459580Y-124511904D02*
X84507200Y-124464285D01*
X84507200Y-124464285D02*
X84554819Y-124369047D01*
X84554819Y-124369047D02*
X84554819Y-124178571D01*
X84554819Y-124178571D02*
X84507200Y-124083333D01*
X84507200Y-124083333D02*
X84459580Y-124035714D01*
X84459580Y-124035714D02*
X84364342Y-123988095D01*
X84364342Y-123988095D02*
X84126247Y-123988095D01*
X84126247Y-123988095D02*
X84031009Y-124035714D01*
X84031009Y-124035714D02*
X83983390Y-124083333D01*
X83983390Y-124083333D02*
X83935771Y-124178571D01*
X83935771Y-124178571D02*
X83935771Y-124369047D01*
X83935771Y-124369047D02*
X83983390Y-124464285D01*
X83983390Y-124464285D02*
X84031009Y-124511904D01*
X84031009Y-124511904D02*
X84126247Y-124559523D01*
D12*
X58054318Y-149163094D02*
X59324318Y-148739761D01*
X59324318Y-148739761D02*
X58054318Y-148316427D01*
X59324318Y-147167380D02*
X58719556Y-147590714D01*
X59324318Y-147893095D02*
X58054318Y-147893095D01*
X58054318Y-147893095D02*
X58054318Y-147409285D01*
X58054318Y-147409285D02*
X58114794Y-147288333D01*
X58114794Y-147288333D02*
X58175270Y-147227856D01*
X58175270Y-147227856D02*
X58296222Y-147167380D01*
X58296222Y-147167380D02*
X58477651Y-147167380D01*
X58477651Y-147167380D02*
X58598603Y-147227856D01*
X58598603Y-147227856D02*
X58659080Y-147288333D01*
X58659080Y-147288333D02*
X58719556Y-147409285D01*
X58719556Y-147409285D02*
X58719556Y-147893095D01*
X59324318Y-145957856D02*
X59324318Y-146683571D01*
X59324318Y-146320714D02*
X58054318Y-146320714D01*
X58054318Y-146320714D02*
X58235746Y-146441666D01*
X58235746Y-146441666D02*
X58356699Y-146562618D01*
X58356699Y-146562618D02*
X58417175Y-146683571D01*
D11*
X75894819Y-99853333D02*
X76609104Y-99853333D01*
X76609104Y-99853333D02*
X76751961Y-99900952D01*
X76751961Y-99900952D02*
X76847200Y-99996190D01*
X76847200Y-99996190D02*
X76894819Y-100139047D01*
X76894819Y-100139047D02*
X76894819Y-100234285D01*
X75990057Y-99424761D02*
X75942438Y-99377142D01*
X75942438Y-99377142D02*
X75894819Y-99281904D01*
X75894819Y-99281904D02*
X75894819Y-99043809D01*
X75894819Y-99043809D02*
X75942438Y-98948571D01*
X75942438Y-98948571D02*
X75990057Y-98900952D01*
X75990057Y-98900952D02*
X76085295Y-98853333D01*
X76085295Y-98853333D02*
X76180533Y-98853333D01*
X76180533Y-98853333D02*
X76323390Y-98900952D01*
X76323390Y-98900952D02*
X76894819Y-99472380D01*
X76894819Y-99472380D02*
X76894819Y-98853333D01*
X118304819Y-151392857D02*
X117828628Y-151726190D01*
X118304819Y-151964285D02*
X117304819Y-151964285D01*
X117304819Y-151964285D02*
X117304819Y-151583333D01*
X117304819Y-151583333D02*
X117352438Y-151488095D01*
X117352438Y-151488095D02*
X117400057Y-151440476D01*
X117400057Y-151440476D02*
X117495295Y-151392857D01*
X117495295Y-151392857D02*
X117638152Y-151392857D01*
X117638152Y-151392857D02*
X117733390Y-151440476D01*
X117733390Y-151440476D02*
X117781009Y-151488095D01*
X117781009Y-151488095D02*
X117828628Y-151583333D01*
X117828628Y-151583333D02*
X117828628Y-151964285D01*
X118304819Y-150440476D02*
X118304819Y-151011904D01*
X118304819Y-150726190D02*
X117304819Y-150726190D01*
X117304819Y-150726190D02*
X117447676Y-150821428D01*
X117447676Y-150821428D02*
X117542914Y-150916666D01*
X117542914Y-150916666D02*
X117590533Y-151011904D01*
X117304819Y-149821428D02*
X117304819Y-149726190D01*
X117304819Y-149726190D02*
X117352438Y-149630952D01*
X117352438Y-149630952D02*
X117400057Y-149583333D01*
X117400057Y-149583333D02*
X117495295Y-149535714D01*
X117495295Y-149535714D02*
X117685771Y-149488095D01*
X117685771Y-149488095D02*
X117923866Y-149488095D01*
X117923866Y-149488095D02*
X118114342Y-149535714D01*
X118114342Y-149535714D02*
X118209580Y-149583333D01*
X118209580Y-149583333D02*
X118257200Y-149630952D01*
X118257200Y-149630952D02*
X118304819Y-149726190D01*
X118304819Y-149726190D02*
X118304819Y-149821428D01*
X118304819Y-149821428D02*
X118257200Y-149916666D01*
X118257200Y-149916666D02*
X118209580Y-149964285D01*
X118209580Y-149964285D02*
X118114342Y-150011904D01*
X118114342Y-150011904D02*
X117923866Y-150059523D01*
X117923866Y-150059523D02*
X117685771Y-150059523D01*
X117685771Y-150059523D02*
X117495295Y-150011904D01*
X117495295Y-150011904D02*
X117400057Y-149964285D01*
X117400057Y-149964285D02*
X117352438Y-149916666D01*
X117352438Y-149916666D02*
X117304819Y-149821428D01*
X75424166Y-105854819D02*
X75424166Y-106569104D01*
X75424166Y-106569104D02*
X75376547Y-106711961D01*
X75376547Y-106711961D02*
X75281309Y-106807200D01*
X75281309Y-106807200D02*
X75138452Y-106854819D01*
X75138452Y-106854819D02*
X75043214Y-106854819D01*
X76424166Y-106854819D02*
X75852738Y-106854819D01*
X76138452Y-106854819D02*
X76138452Y-105854819D01*
X76138452Y-105854819D02*
X76043214Y-105997676D01*
X76043214Y-105997676D02*
X75947976Y-106092914D01*
X75947976Y-106092914D02*
X75852738Y-106140533D01*
D12*
X124629047Y-135945270D02*
X124508095Y-135884794D01*
X124508095Y-135884794D02*
X124387142Y-135763842D01*
X124387142Y-135763842D02*
X124205714Y-135582413D01*
X124205714Y-135582413D02*
X124084761Y-135521937D01*
X124084761Y-135521937D02*
X123963809Y-135521937D01*
X124024285Y-135824318D02*
X123903333Y-135763842D01*
X123903333Y-135763842D02*
X123782380Y-135642889D01*
X123782380Y-135642889D02*
X123721904Y-135400984D01*
X123721904Y-135400984D02*
X123721904Y-134977651D01*
X123721904Y-134977651D02*
X123782380Y-134735746D01*
X123782380Y-134735746D02*
X123903333Y-134614794D01*
X123903333Y-134614794D02*
X124024285Y-134554318D01*
X124024285Y-134554318D02*
X124266190Y-134554318D01*
X124266190Y-134554318D02*
X124387142Y-134614794D01*
X124387142Y-134614794D02*
X124508095Y-134735746D01*
X124508095Y-134735746D02*
X124568571Y-134977651D01*
X124568571Y-134977651D02*
X124568571Y-135400984D01*
X124568571Y-135400984D02*
X124508095Y-135642889D01*
X124508095Y-135642889D02*
X124387142Y-135763842D01*
X124387142Y-135763842D02*
X124266190Y-135824318D01*
X124266190Y-135824318D02*
X124024285Y-135824318D01*
X125052380Y-134675270D02*
X125112856Y-134614794D01*
X125112856Y-134614794D02*
X125233809Y-134554318D01*
X125233809Y-134554318D02*
X125536190Y-134554318D01*
X125536190Y-134554318D02*
X125657142Y-134614794D01*
X125657142Y-134614794D02*
X125717618Y-134675270D01*
X125717618Y-134675270D02*
X125778095Y-134796222D01*
X125778095Y-134796222D02*
X125778095Y-134917175D01*
X125778095Y-134917175D02*
X125717618Y-135098603D01*
X125717618Y-135098603D02*
X124991904Y-135824318D01*
X124991904Y-135824318D02*
X125778095Y-135824318D01*
D11*
X56261905Y-137204819D02*
X56261905Y-136204819D01*
X56261905Y-136204819D02*
X56500000Y-136204819D01*
X56500000Y-136204819D02*
X56642857Y-136252438D01*
X56642857Y-136252438D02*
X56738095Y-136347676D01*
X56738095Y-136347676D02*
X56785714Y-136442914D01*
X56785714Y-136442914D02*
X56833333Y-136633390D01*
X56833333Y-136633390D02*
X56833333Y-136776247D01*
X56833333Y-136776247D02*
X56785714Y-136966723D01*
X56785714Y-136966723D02*
X56738095Y-137061961D01*
X56738095Y-137061961D02*
X56642857Y-137157200D01*
X56642857Y-137157200D02*
X56500000Y-137204819D01*
X56500000Y-137204819D02*
X56261905Y-137204819D01*
X57785714Y-137204819D02*
X57214286Y-137204819D01*
X57500000Y-137204819D02*
X57500000Y-136204819D01*
X57500000Y-136204819D02*
X57404762Y-136347676D01*
X57404762Y-136347676D02*
X57309524Y-136442914D01*
X57309524Y-136442914D02*
X57214286Y-136490533D01*
X52357142Y-131454819D02*
X52023809Y-130978628D01*
X51785714Y-131454819D02*
X51785714Y-130454819D01*
X51785714Y-130454819D02*
X52166666Y-130454819D01*
X52166666Y-130454819D02*
X52261904Y-130502438D01*
X52261904Y-130502438D02*
X52309523Y-130550057D01*
X52309523Y-130550057D02*
X52357142Y-130645295D01*
X52357142Y-130645295D02*
X52357142Y-130788152D01*
X52357142Y-130788152D02*
X52309523Y-130883390D01*
X52309523Y-130883390D02*
X52261904Y-130931009D01*
X52261904Y-130931009D02*
X52166666Y-130978628D01*
X52166666Y-130978628D02*
X51785714Y-130978628D01*
X53309523Y-131454819D02*
X52738095Y-131454819D01*
X53023809Y-131454819D02*
X53023809Y-130454819D01*
X53023809Y-130454819D02*
X52928571Y-130597676D01*
X52928571Y-130597676D02*
X52833333Y-130692914D01*
X52833333Y-130692914D02*
X52738095Y-130740533D01*
X54214285Y-130454819D02*
X53738095Y-130454819D01*
X53738095Y-130454819D02*
X53690476Y-130931009D01*
X53690476Y-130931009D02*
X53738095Y-130883390D01*
X53738095Y-130883390D02*
X53833333Y-130835771D01*
X53833333Y-130835771D02*
X54071428Y-130835771D01*
X54071428Y-130835771D02*
X54166666Y-130883390D01*
X54166666Y-130883390D02*
X54214285Y-130931009D01*
X54214285Y-130931009D02*
X54261904Y-131026247D01*
X54261904Y-131026247D02*
X54261904Y-131264342D01*
X54261904Y-131264342D02*
X54214285Y-131359580D01*
X54214285Y-131359580D02*
X54166666Y-131407200D01*
X54166666Y-131407200D02*
X54071428Y-131454819D01*
X54071428Y-131454819D02*
X53833333Y-131454819D01*
X53833333Y-131454819D02*
X53738095Y-131407200D01*
X53738095Y-131407200D02*
X53690476Y-131359580D01*
X89607142Y-123609580D02*
X89559523Y-123657200D01*
X89559523Y-123657200D02*
X89416666Y-123704819D01*
X89416666Y-123704819D02*
X89321428Y-123704819D01*
X89321428Y-123704819D02*
X89178571Y-123657200D01*
X89178571Y-123657200D02*
X89083333Y-123561961D01*
X89083333Y-123561961D02*
X89035714Y-123466723D01*
X89035714Y-123466723D02*
X88988095Y-123276247D01*
X88988095Y-123276247D02*
X88988095Y-123133390D01*
X88988095Y-123133390D02*
X89035714Y-122942914D01*
X89035714Y-122942914D02*
X89083333Y-122847676D01*
X89083333Y-122847676D02*
X89178571Y-122752438D01*
X89178571Y-122752438D02*
X89321428Y-122704819D01*
X89321428Y-122704819D02*
X89416666Y-122704819D01*
X89416666Y-122704819D02*
X89559523Y-122752438D01*
X89559523Y-122752438D02*
X89607142Y-122800057D01*
X90559523Y-123704819D02*
X89988095Y-123704819D01*
X90273809Y-123704819D02*
X90273809Y-122704819D01*
X90273809Y-122704819D02*
X90178571Y-122847676D01*
X90178571Y-122847676D02*
X90083333Y-122942914D01*
X90083333Y-122942914D02*
X89988095Y-122990533D01*
X91178571Y-122704819D02*
X91273809Y-122704819D01*
X91273809Y-122704819D02*
X91369047Y-122752438D01*
X91369047Y-122752438D02*
X91416666Y-122800057D01*
X91416666Y-122800057D02*
X91464285Y-122895295D01*
X91464285Y-122895295D02*
X91511904Y-123085771D01*
X91511904Y-123085771D02*
X91511904Y-123323866D01*
X91511904Y-123323866D02*
X91464285Y-123514342D01*
X91464285Y-123514342D02*
X91416666Y-123609580D01*
X91416666Y-123609580D02*
X91369047Y-123657200D01*
X91369047Y-123657200D02*
X91273809Y-123704819D01*
X91273809Y-123704819D02*
X91178571Y-123704819D01*
X91178571Y-123704819D02*
X91083333Y-123657200D01*
X91083333Y-123657200D02*
X91035714Y-123609580D01*
X91035714Y-123609580D02*
X90988095Y-123514342D01*
X90988095Y-123514342D02*
X90940476Y-123323866D01*
X90940476Y-123323866D02*
X90940476Y-123085771D01*
X90940476Y-123085771D02*
X90988095Y-122895295D01*
X90988095Y-122895295D02*
X91035714Y-122800057D01*
X91035714Y-122800057D02*
X91083333Y-122752438D01*
X91083333Y-122752438D02*
X91178571Y-122704819D01*
X100744580Y-134892857D02*
X100792200Y-134940476D01*
X100792200Y-134940476D02*
X100839819Y-135083333D01*
X100839819Y-135083333D02*
X100839819Y-135178571D01*
X100839819Y-135178571D02*
X100792200Y-135321428D01*
X100792200Y-135321428D02*
X100696961Y-135416666D01*
X100696961Y-135416666D02*
X100601723Y-135464285D01*
X100601723Y-135464285D02*
X100411247Y-135511904D01*
X100411247Y-135511904D02*
X100268390Y-135511904D01*
X100268390Y-135511904D02*
X100077914Y-135464285D01*
X100077914Y-135464285D02*
X99982676Y-135416666D01*
X99982676Y-135416666D02*
X99887438Y-135321428D01*
X99887438Y-135321428D02*
X99839819Y-135178571D01*
X99839819Y-135178571D02*
X99839819Y-135083333D01*
X99839819Y-135083333D02*
X99887438Y-134940476D01*
X99887438Y-134940476D02*
X99935057Y-134892857D01*
X100839819Y-133940476D02*
X100839819Y-134511904D01*
X100839819Y-134226190D02*
X99839819Y-134226190D01*
X99839819Y-134226190D02*
X99982676Y-134321428D01*
X99982676Y-134321428D02*
X100077914Y-134416666D01*
X100077914Y-134416666D02*
X100125533Y-134511904D01*
X100173152Y-133083333D02*
X100839819Y-133083333D01*
X99792200Y-133321428D02*
X100506485Y-133559523D01*
X100506485Y-133559523D02*
X100506485Y-132940476D01*
X95333333Y-154704819D02*
X95000000Y-154228628D01*
X94761905Y-154704819D02*
X94761905Y-153704819D01*
X94761905Y-153704819D02*
X95142857Y-153704819D01*
X95142857Y-153704819D02*
X95238095Y-153752438D01*
X95238095Y-153752438D02*
X95285714Y-153800057D01*
X95285714Y-153800057D02*
X95333333Y-153895295D01*
X95333333Y-153895295D02*
X95333333Y-154038152D01*
X95333333Y-154038152D02*
X95285714Y-154133390D01*
X95285714Y-154133390D02*
X95238095Y-154181009D01*
X95238095Y-154181009D02*
X95142857Y-154228628D01*
X95142857Y-154228628D02*
X94761905Y-154228628D01*
X95809524Y-154704819D02*
X96000000Y-154704819D01*
X96000000Y-154704819D02*
X96095238Y-154657200D01*
X96095238Y-154657200D02*
X96142857Y-154609580D01*
X96142857Y-154609580D02*
X96238095Y-154466723D01*
X96238095Y-154466723D02*
X96285714Y-154276247D01*
X96285714Y-154276247D02*
X96285714Y-153895295D01*
X96285714Y-153895295D02*
X96238095Y-153800057D01*
X96238095Y-153800057D02*
X96190476Y-153752438D01*
X96190476Y-153752438D02*
X96095238Y-153704819D01*
X96095238Y-153704819D02*
X95904762Y-153704819D01*
X95904762Y-153704819D02*
X95809524Y-153752438D01*
X95809524Y-153752438D02*
X95761905Y-153800057D01*
X95761905Y-153800057D02*
X95714286Y-153895295D01*
X95714286Y-153895295D02*
X95714286Y-154133390D01*
X95714286Y-154133390D02*
X95761905Y-154228628D01*
X95761905Y-154228628D02*
X95809524Y-154276247D01*
X95809524Y-154276247D02*
X95904762Y-154323866D01*
X95904762Y-154323866D02*
X96095238Y-154323866D01*
X96095238Y-154323866D02*
X96190476Y-154276247D01*
X96190476Y-154276247D02*
X96238095Y-154228628D01*
X96238095Y-154228628D02*
X96285714Y-154133390D01*
X83857142Y-147409580D02*
X83809523Y-147457200D01*
X83809523Y-147457200D02*
X83666666Y-147504819D01*
X83666666Y-147504819D02*
X83571428Y-147504819D01*
X83571428Y-147504819D02*
X83428571Y-147457200D01*
X83428571Y-147457200D02*
X83333333Y-147361961D01*
X83333333Y-147361961D02*
X83285714Y-147266723D01*
X83285714Y-147266723D02*
X83238095Y-147076247D01*
X83238095Y-147076247D02*
X83238095Y-146933390D01*
X83238095Y-146933390D02*
X83285714Y-146742914D01*
X83285714Y-146742914D02*
X83333333Y-146647676D01*
X83333333Y-146647676D02*
X83428571Y-146552438D01*
X83428571Y-146552438D02*
X83571428Y-146504819D01*
X83571428Y-146504819D02*
X83666666Y-146504819D01*
X83666666Y-146504819D02*
X83809523Y-146552438D01*
X83809523Y-146552438D02*
X83857142Y-146600057D01*
X84809523Y-147504819D02*
X84238095Y-147504819D01*
X84523809Y-147504819D02*
X84523809Y-146504819D01*
X84523809Y-146504819D02*
X84428571Y-146647676D01*
X84428571Y-146647676D02*
X84333333Y-146742914D01*
X84333333Y-146742914D02*
X84238095Y-146790533D01*
X85714285Y-146504819D02*
X85238095Y-146504819D01*
X85238095Y-146504819D02*
X85190476Y-146981009D01*
X85190476Y-146981009D02*
X85238095Y-146933390D01*
X85238095Y-146933390D02*
X85333333Y-146885771D01*
X85333333Y-146885771D02*
X85571428Y-146885771D01*
X85571428Y-146885771D02*
X85666666Y-146933390D01*
X85666666Y-146933390D02*
X85714285Y-146981009D01*
X85714285Y-146981009D02*
X85761904Y-147076247D01*
X85761904Y-147076247D02*
X85761904Y-147314342D01*
X85761904Y-147314342D02*
X85714285Y-147409580D01*
X85714285Y-147409580D02*
X85666666Y-147457200D01*
X85666666Y-147457200D02*
X85571428Y-147504819D01*
X85571428Y-147504819D02*
X85333333Y-147504819D01*
X85333333Y-147504819D02*
X85238095Y-147457200D01*
X85238095Y-147457200D02*
X85190476Y-147409580D01*
X73825750Y-132653246D02*
X74398170Y-133225666D01*
X74398170Y-133225666D02*
X74499185Y-133259338D01*
X74499185Y-133259338D02*
X74566529Y-133259338D01*
X74566529Y-133259338D02*
X74667544Y-133225666D01*
X74667544Y-133225666D02*
X74802231Y-133090979D01*
X74802231Y-133090979D02*
X74835903Y-132989964D01*
X74835903Y-132989964D02*
X74835903Y-132922620D01*
X74835903Y-132922620D02*
X74802231Y-132821605D01*
X74802231Y-132821605D02*
X74229811Y-132249185D01*
X75644025Y-132249185D02*
X75239964Y-132653246D01*
X75441994Y-132451216D02*
X74734888Y-131744109D01*
X74734888Y-131744109D02*
X74768559Y-131912468D01*
X74768559Y-131912468D02*
X74768559Y-132047155D01*
X74768559Y-132047155D02*
X74734888Y-132148170D01*
X134968878Y-103856467D02*
X134968878Y-103069065D01*
X134968878Y-103069065D02*
X135231346Y-103631495D01*
X135231346Y-103631495D02*
X135493813Y-103069065D01*
X135493813Y-103069065D02*
X135493813Y-103856467D01*
X135868766Y-103856467D02*
X135868766Y-103069065D01*
X135868766Y-103069065D02*
X136168729Y-103069065D01*
X136168729Y-103069065D02*
X136243720Y-103106560D01*
X136243720Y-103106560D02*
X136281215Y-103144056D01*
X136281215Y-103144056D02*
X136318710Y-103219046D01*
X136318710Y-103219046D02*
X136318710Y-103331532D01*
X136318710Y-103331532D02*
X136281215Y-103406523D01*
X136281215Y-103406523D02*
X136243720Y-103444018D01*
X136243720Y-103444018D02*
X136168729Y-103481514D01*
X136168729Y-103481514D02*
X135868766Y-103481514D01*
X136581178Y-103069065D02*
X137068617Y-103069065D01*
X137068617Y-103069065D02*
X136806150Y-103369028D01*
X136806150Y-103369028D02*
X136918636Y-103369028D01*
X136918636Y-103369028D02*
X136993626Y-103406523D01*
X136993626Y-103406523D02*
X137031122Y-103444018D01*
X137031122Y-103444018D02*
X137068617Y-103519009D01*
X137068617Y-103519009D02*
X137068617Y-103706486D01*
X137068617Y-103706486D02*
X137031122Y-103781476D01*
X137031122Y-103781476D02*
X136993626Y-103818972D01*
X136993626Y-103818972D02*
X136918636Y-103856467D01*
X136918636Y-103856467D02*
X136693664Y-103856467D01*
X136693664Y-103856467D02*
X136618673Y-103818972D01*
X136618673Y-103818972D02*
X136581178Y-103781476D01*
X110833333Y-106109580D02*
X110785714Y-106157200D01*
X110785714Y-106157200D02*
X110642857Y-106204819D01*
X110642857Y-106204819D02*
X110547619Y-106204819D01*
X110547619Y-106204819D02*
X110404762Y-106157200D01*
X110404762Y-106157200D02*
X110309524Y-106061961D01*
X110309524Y-106061961D02*
X110261905Y-105966723D01*
X110261905Y-105966723D02*
X110214286Y-105776247D01*
X110214286Y-105776247D02*
X110214286Y-105633390D01*
X110214286Y-105633390D02*
X110261905Y-105442914D01*
X110261905Y-105442914D02*
X110309524Y-105347676D01*
X110309524Y-105347676D02*
X110404762Y-105252438D01*
X110404762Y-105252438D02*
X110547619Y-105204819D01*
X110547619Y-105204819D02*
X110642857Y-105204819D01*
X110642857Y-105204819D02*
X110785714Y-105252438D01*
X110785714Y-105252438D02*
X110833333Y-105300057D01*
X111309524Y-106204819D02*
X111500000Y-106204819D01*
X111500000Y-106204819D02*
X111595238Y-106157200D01*
X111595238Y-106157200D02*
X111642857Y-106109580D01*
X111642857Y-106109580D02*
X111738095Y-105966723D01*
X111738095Y-105966723D02*
X111785714Y-105776247D01*
X111785714Y-105776247D02*
X111785714Y-105395295D01*
X111785714Y-105395295D02*
X111738095Y-105300057D01*
X111738095Y-105300057D02*
X111690476Y-105252438D01*
X111690476Y-105252438D02*
X111595238Y-105204819D01*
X111595238Y-105204819D02*
X111404762Y-105204819D01*
X111404762Y-105204819D02*
X111309524Y-105252438D01*
X111309524Y-105252438D02*
X111261905Y-105300057D01*
X111261905Y-105300057D02*
X111214286Y-105395295D01*
X111214286Y-105395295D02*
X111214286Y-105633390D01*
X111214286Y-105633390D02*
X111261905Y-105728628D01*
X111261905Y-105728628D02*
X111309524Y-105776247D01*
X111309524Y-105776247D02*
X111404762Y-105823866D01*
X111404762Y-105823866D02*
X111595238Y-105823866D01*
X111595238Y-105823866D02*
X111690476Y-105776247D01*
X111690476Y-105776247D02*
X111738095Y-105728628D01*
X111738095Y-105728628D02*
X111785714Y-105633390D01*
X91894819Y-98813333D02*
X92609104Y-98813333D01*
X92609104Y-98813333D02*
X92751961Y-98860952D01*
X92751961Y-98860952D02*
X92847200Y-98956190D01*
X92847200Y-98956190D02*
X92894819Y-99099047D01*
X92894819Y-99099047D02*
X92894819Y-99194285D01*
X91894819Y-98432380D02*
X91894819Y-97813333D01*
X91894819Y-97813333D02*
X92275771Y-98146666D01*
X92275771Y-98146666D02*
X92275771Y-98003809D01*
X92275771Y-98003809D02*
X92323390Y-97908571D01*
X92323390Y-97908571D02*
X92371009Y-97860952D01*
X92371009Y-97860952D02*
X92466247Y-97813333D01*
X92466247Y-97813333D02*
X92704342Y-97813333D01*
X92704342Y-97813333D02*
X92799580Y-97860952D01*
X92799580Y-97860952D02*
X92847200Y-97908571D01*
X92847200Y-97908571D02*
X92894819Y-98003809D01*
X92894819Y-98003809D02*
X92894819Y-98289523D01*
X92894819Y-98289523D02*
X92847200Y-98384761D01*
X92847200Y-98384761D02*
X92799580Y-98432380D01*
X63590833Y-111854819D02*
X63257500Y-111378628D01*
X63019405Y-111854819D02*
X63019405Y-110854819D01*
X63019405Y-110854819D02*
X63400357Y-110854819D01*
X63400357Y-110854819D02*
X63495595Y-110902438D01*
X63495595Y-110902438D02*
X63543214Y-110950057D01*
X63543214Y-110950057D02*
X63590833Y-111045295D01*
X63590833Y-111045295D02*
X63590833Y-111188152D01*
X63590833Y-111188152D02*
X63543214Y-111283390D01*
X63543214Y-111283390D02*
X63495595Y-111331009D01*
X63495595Y-111331009D02*
X63400357Y-111378628D01*
X63400357Y-111378628D02*
X63019405Y-111378628D01*
X64543214Y-111854819D02*
X63971786Y-111854819D01*
X64257500Y-111854819D02*
X64257500Y-110854819D01*
X64257500Y-110854819D02*
X64162262Y-110997676D01*
X64162262Y-110997676D02*
X64067024Y-111092914D01*
X64067024Y-111092914D02*
X63971786Y-111140533D01*
D12*
X79510237Y-117324318D02*
X79510237Y-116054318D01*
X80840714Y-117203365D02*
X80780238Y-117263842D01*
X80780238Y-117263842D02*
X80598809Y-117324318D01*
X80598809Y-117324318D02*
X80477857Y-117324318D01*
X80477857Y-117324318D02*
X80296428Y-117263842D01*
X80296428Y-117263842D02*
X80175476Y-117142889D01*
X80175476Y-117142889D02*
X80114999Y-117021937D01*
X80114999Y-117021937D02*
X80054523Y-116780032D01*
X80054523Y-116780032D02*
X80054523Y-116598603D01*
X80054523Y-116598603D02*
X80114999Y-116356699D01*
X80114999Y-116356699D02*
X80175476Y-116235746D01*
X80175476Y-116235746D02*
X80296428Y-116114794D01*
X80296428Y-116114794D02*
X80477857Y-116054318D01*
X80477857Y-116054318D02*
X80598809Y-116054318D01*
X80598809Y-116054318D02*
X80780238Y-116114794D01*
X80780238Y-116114794D02*
X80840714Y-116175270D01*
X82050238Y-117324318D02*
X81324523Y-117324318D01*
X81687380Y-117324318D02*
X81687380Y-116054318D01*
X81687380Y-116054318D02*
X81566428Y-116235746D01*
X81566428Y-116235746D02*
X81445476Y-116356699D01*
X81445476Y-116356699D02*
X81324523Y-116417175D01*
D11*
X63590833Y-109259580D02*
X63543214Y-109307200D01*
X63543214Y-109307200D02*
X63400357Y-109354819D01*
X63400357Y-109354819D02*
X63305119Y-109354819D01*
X63305119Y-109354819D02*
X63162262Y-109307200D01*
X63162262Y-109307200D02*
X63067024Y-109211961D01*
X63067024Y-109211961D02*
X63019405Y-109116723D01*
X63019405Y-109116723D02*
X62971786Y-108926247D01*
X62971786Y-108926247D02*
X62971786Y-108783390D01*
X62971786Y-108783390D02*
X63019405Y-108592914D01*
X63019405Y-108592914D02*
X63067024Y-108497676D01*
X63067024Y-108497676D02*
X63162262Y-108402438D01*
X63162262Y-108402438D02*
X63305119Y-108354819D01*
X63305119Y-108354819D02*
X63400357Y-108354819D01*
X63400357Y-108354819D02*
X63543214Y-108402438D01*
X63543214Y-108402438D02*
X63590833Y-108450057D01*
X64495595Y-108354819D02*
X64019405Y-108354819D01*
X64019405Y-108354819D02*
X63971786Y-108831009D01*
X63971786Y-108831009D02*
X64019405Y-108783390D01*
X64019405Y-108783390D02*
X64114643Y-108735771D01*
X64114643Y-108735771D02*
X64352738Y-108735771D01*
X64352738Y-108735771D02*
X64447976Y-108783390D01*
X64447976Y-108783390D02*
X64495595Y-108831009D01*
X64495595Y-108831009D02*
X64543214Y-108926247D01*
X64543214Y-108926247D02*
X64543214Y-109164342D01*
X64543214Y-109164342D02*
X64495595Y-109259580D01*
X64495595Y-109259580D02*
X64447976Y-109307200D01*
X64447976Y-109307200D02*
X64352738Y-109354819D01*
X64352738Y-109354819D02*
X64114643Y-109354819D01*
X64114643Y-109354819D02*
X64019405Y-109307200D01*
X64019405Y-109307200D02*
X63971786Y-109259580D01*
%TO.C,U5*%
D13*
X121019500Y-120524200D02*
X121019500Y-126975800D01*
X121019500Y-126975800D02*
X121262192Y-126975800D01*
X121262192Y-120524200D02*
X121019500Y-120524200D01*
X126480500Y-120524200D02*
X126237808Y-120524200D01*
X126480500Y-126975800D02*
X126480500Y-120524200D01*
X121972000Y-127839400D02*
G75*
G02*
X121718000Y-127839400I-127000J0D01*
G01*
X121718000Y-127839400D02*
G75*
G02*
X121972000Y-127839400I127000J0D01*
G01*
%TO.C,MP2*%
D14*
X103650000Y-155650000D02*
X113850000Y-155650000D01*
X103650000Y-165850000D02*
X103650000Y-155650000D01*
X113850000Y-155650000D02*
X113850000Y-165850000D01*
X113850000Y-165850000D02*
X103650000Y-165850000D01*
%TO.C,U2*%
D15*
X62072500Y-115980000D02*
X62362500Y-115980000D01*
X62072500Y-122820000D02*
X62072500Y-115980000D01*
X62362500Y-122820000D02*
X62072500Y-122820000D01*
X71152500Y-115980000D02*
X71442500Y-115980000D01*
X71442500Y-115980000D02*
X71442500Y-122820000D01*
X71442500Y-122820000D02*
X71152500Y-122820000D01*
X64007500Y-124270000D02*
X63537500Y-123930000D01*
X64007500Y-123590000D01*
X64007500Y-124270000D01*
G36*
X64007500Y-124270000D02*
G01*
X63537500Y-123930000D01*
X64007500Y-123590000D01*
X64007500Y-124270000D01*
G37*
%TO.C,C1*%
X81545543Y-134165010D02*
X81915010Y-133795543D01*
X82584990Y-135204457D02*
X82954457Y-134834990D01*
%TO.C,R17*%
X85015000Y-129477064D02*
X85015000Y-129022936D01*
X86485000Y-129477064D02*
X86485000Y-129022936D01*
%TO.C,C17*%
X75511253Y-125015000D02*
X74988747Y-125015000D01*
X75511253Y-126485000D02*
X74988747Y-126485000D01*
%TO.C,C19*%
X69765000Y-138988748D02*
X69765000Y-139511252D01*
X71235000Y-138988748D02*
X71235000Y-139511252D01*
%TO.C,MP4*%
D14*
X134580000Y-137630000D02*
X144780000Y-137630000D01*
X134580000Y-147830000D02*
X134580000Y-137630000D01*
X144780000Y-137630000D02*
X144780000Y-147830000D01*
X144780000Y-147830000D02*
X134580000Y-147830000D01*
%TO.C,R4*%
D15*
X91417224Y-132727500D02*
X90907776Y-132727500D01*
X91417224Y-133772500D02*
X90907776Y-133772500D01*
%TO.C,C18*%
X67295543Y-135584990D02*
X67665010Y-135954457D01*
X68334990Y-134545543D02*
X68704457Y-134915010D01*
%TO.C,R3*%
X91332379Y-134870000D02*
X91667621Y-134870000D01*
X91332379Y-135630000D02*
X91667621Y-135630000D01*
%TO.C,C12*%
X94961252Y-128340000D02*
X93538748Y-128340000D01*
X94961252Y-130160000D02*
X93538748Y-130160000D01*
%TO.C,R14*%
X53227064Y-134265000D02*
X52772936Y-134265000D01*
X53227064Y-135735000D02*
X52772936Y-135735000D01*
%TO.C,C16*%
X85211252Y-139390000D02*
X83788748Y-139390000D01*
X85211252Y-142110000D02*
X83788748Y-142110000D01*
%TO.C,C13*%
X94896267Y-131240000D02*
X94603733Y-131240000D01*
X94896267Y-132260000D02*
X94603733Y-132260000D01*
%TO.C,MP1*%
D14*
X113920000Y-96150000D02*
X124120000Y-96150000D01*
X113920000Y-106350000D02*
X113920000Y-96150000D01*
X124120000Y-96150000D02*
X124120000Y-106350000D01*
X124120000Y-106350000D02*
X113920000Y-106350000D01*
%TO.C,U3*%
D11*
X95300007Y-132724999D02*
X96149993Y-132724999D01*
X95300007Y-135775001D02*
X96149993Y-135775001D01*
D16*
X93400001Y-133299999D02*
G75*
G02*
X93149999Y-133299999I-125001J0D01*
G01*
X93149999Y-133299999D02*
G75*
G02*
X93400001Y-133299999I125001J0D01*
G01*
%TO.C,C7*%
D15*
X88223752Y-151015000D02*
X87701248Y-151015000D01*
X88223752Y-152485000D02*
X87701248Y-152485000D01*
%TO.C,C2*%
X66915010Y-130045543D02*
X66545543Y-130415010D01*
X67954457Y-131084990D02*
X67584990Y-131454457D01*
%TO.C,D2*%
X55140000Y-131790000D02*
X55140000Y-133710000D01*
X55140000Y-133710000D02*
X58000000Y-133710000D01*
X58000000Y-131790000D02*
X55140000Y-131790000D01*
%TO.C,U4*%
D13*
X86425200Y-154838120D02*
X86425200Y-155661880D01*
X87732739Y-156177100D02*
X88267261Y-156177100D01*
X89574800Y-155661880D02*
X89574800Y-154838120D01*
X89026200Y-152921501D02*
G75*
G02*
X88873800Y-152921501I-76200J0D01*
G01*
X88873800Y-152921501D02*
G75*
G02*
X89026200Y-152921501I76200J0D01*
G01*
%TO.C,C8*%
D15*
X135310000Y-127342220D02*
X127970000Y-127342220D01*
X135310000Y-127382220D02*
X127981000Y-127382220D01*
X135310000Y-127422220D02*
X127991000Y-127422220D01*
X135310000Y-127462220D02*
X128002000Y-127462220D01*
X135310000Y-127502220D02*
X128014000Y-127502220D01*
X135310000Y-127542220D02*
X128025000Y-127542220D01*
X135310000Y-127582220D02*
X128037000Y-127582220D01*
X135310000Y-127622220D02*
X128048000Y-127622220D01*
X135310000Y-127662220D02*
X128060000Y-127662220D01*
X135310000Y-127702220D02*
X128073000Y-127702220D01*
X135310000Y-127742220D02*
X128085000Y-127742220D01*
X135310000Y-127782220D02*
X128098000Y-127782220D01*
X135310000Y-127822220D02*
X128110000Y-127822220D01*
X135310000Y-127862220D02*
X128123000Y-127862220D01*
X135310000Y-127902220D02*
X128137000Y-127902220D01*
X135310000Y-127942220D02*
X128150000Y-127942220D01*
X135310000Y-127982220D02*
X128164000Y-127982220D01*
X135310000Y-128022220D02*
X128178000Y-128022220D01*
X135310000Y-128062220D02*
X128192000Y-128062220D01*
X135310000Y-128102220D02*
X128206000Y-128102220D01*
X135310000Y-128142220D02*
X128220000Y-128142220D01*
X135310000Y-128182220D02*
X128235000Y-128182220D01*
X135310000Y-128222220D02*
X128250000Y-128222220D01*
X135310000Y-128262220D02*
X128265000Y-128262220D01*
X135310000Y-128302220D02*
X128280000Y-128302220D01*
X135310000Y-128342220D02*
X128296000Y-128342220D01*
X135310000Y-128382220D02*
X128312000Y-128382220D01*
X135310000Y-128422220D02*
X128327000Y-128422220D01*
X135310000Y-128462220D02*
X128344000Y-128462220D01*
X135310000Y-128502220D02*
X128360000Y-128502220D01*
X135310000Y-128542220D02*
X128377000Y-128542220D01*
X135310000Y-128582220D02*
X128394000Y-128582220D01*
X135310000Y-128622220D02*
X128411000Y-128622220D01*
X135310000Y-128662220D02*
X128428000Y-128662220D01*
X135310000Y-128702220D02*
X128445000Y-128702220D01*
X135310000Y-128742220D02*
X128463000Y-128742220D01*
X135310000Y-128782220D02*
X128481000Y-128782220D01*
X135310000Y-128822220D02*
X128499000Y-128822220D01*
X135310000Y-128862220D02*
X128518000Y-128862220D01*
X135310000Y-128902220D02*
X128537000Y-128902220D01*
X135310000Y-128942220D02*
X128555000Y-128942220D01*
X135310000Y-128982220D02*
X128575000Y-128982220D01*
X135310000Y-129022220D02*
X128594000Y-129022220D01*
X135310000Y-129062220D02*
X128614000Y-129062220D01*
X135310000Y-129102220D02*
X128634000Y-129102220D01*
X135310000Y-129142220D02*
X128654000Y-129142220D01*
X135310000Y-129182220D02*
X128674000Y-129182220D01*
X135310000Y-129222220D02*
X128695000Y-129222220D01*
X135310000Y-129262220D02*
X128716000Y-129262220D01*
X135310000Y-129302220D02*
X128737000Y-129302220D01*
X135310000Y-129342220D02*
X128758000Y-129342220D01*
X135310000Y-129382220D02*
X128780000Y-129382220D01*
X135310000Y-129422220D02*
X128802000Y-129422220D01*
X135310000Y-129462220D02*
X128824000Y-129462220D01*
X135310000Y-129502220D02*
X128846000Y-129502220D01*
X135310000Y-129542220D02*
X128869000Y-129542220D01*
X135310000Y-129582220D02*
X128892000Y-129582220D01*
X135310000Y-129622220D02*
X128915000Y-129622220D01*
X135310000Y-129662220D02*
X128939000Y-129662220D01*
X135310000Y-129702220D02*
X128962000Y-129702220D01*
X135310000Y-129742220D02*
X128986000Y-129742220D01*
X135310000Y-129782220D02*
X129011000Y-129782220D01*
X135310000Y-129822220D02*
X129035000Y-129822220D01*
X135310000Y-129862220D02*
X129060000Y-129862220D01*
X135310000Y-129902220D02*
X129085000Y-129902220D01*
X135310000Y-129942220D02*
X129111000Y-129942220D01*
X135310000Y-129982220D02*
X129137000Y-129982220D01*
X135310000Y-130022220D02*
X129163000Y-130022220D01*
X135310000Y-130062220D02*
X129189000Y-130062220D01*
X135310000Y-130102220D02*
X129216000Y-130102220D01*
X135310000Y-130142220D02*
X129243000Y-130142220D01*
X135310000Y-130182220D02*
X129270000Y-130182220D01*
X136710000Y-134142220D02*
X136790000Y-134142220D01*
X137563000Y-134102220D02*
X135937000Y-134102220D01*
X137915000Y-134062220D02*
X135585000Y-134062220D01*
X138185000Y-134022220D02*
X135315000Y-134022220D01*
X138411000Y-133982220D02*
X135089000Y-133982220D01*
X138609000Y-133942220D02*
X134891000Y-133942220D01*
X138788000Y-133902220D02*
X134712000Y-133902220D01*
X138952000Y-133862220D02*
X134548000Y-133862220D01*
X139105000Y-133822220D02*
X134395000Y-133822220D01*
X139247000Y-133782220D02*
X134253000Y-133782220D01*
X139381000Y-133742220D02*
X134119000Y-133742220D01*
X139509000Y-133702220D02*
X133991000Y-133702220D01*
X139630000Y-133662220D02*
X133870000Y-133662220D01*
X139746000Y-133622220D02*
X133754000Y-133622220D01*
X139857000Y-133582220D02*
X133643000Y-133582220D01*
X139963000Y-133542220D02*
X133537000Y-133542220D01*
X140066000Y-133502220D02*
X133434000Y-133502220D01*
X140166000Y-133462220D02*
X133334000Y-133462220D01*
X140262000Y-133422220D02*
X133238000Y-133422220D01*
X140355000Y-133382220D02*
X133145000Y-133382220D01*
X140445000Y-133342220D02*
X133055000Y-133342220D01*
X140533000Y-133302220D02*
X132967000Y-133302220D01*
X140619000Y-133262220D02*
X132881000Y-133262220D01*
X140702000Y-133222220D02*
X132798000Y-133222220D01*
X140783000Y-133182220D02*
X132717000Y-133182220D01*
X140862000Y-133142220D02*
X132638000Y-133142220D01*
X140939000Y-133102220D02*
X132561000Y-133102220D01*
X141015000Y-133062220D02*
X132485000Y-133062220D01*
X141089000Y-133022220D02*
X132411000Y-133022220D01*
X141161000Y-132982220D02*
X132339000Y-132982220D01*
X141232000Y-132942220D02*
X132268000Y-132942220D01*
X141301000Y-132902220D02*
X132199000Y-132902220D01*
X141369000Y-132862220D02*
X132131000Y-132862220D01*
X141436000Y-132822220D02*
X132064000Y-132822220D01*
X141501000Y-132782220D02*
X131999000Y-132782220D01*
X141566000Y-132742220D02*
X131934000Y-132742220D01*
X141629000Y-132702220D02*
X131871000Y-132702220D01*
X141690000Y-132662220D02*
X131810000Y-132662220D01*
X141751000Y-132622220D02*
X131749000Y-132622220D01*
X141811000Y-132582220D02*
X131689000Y-132582220D01*
X141865000Y-115262780D02*
X141865000Y-117062780D01*
X141870000Y-132542220D02*
X131630000Y-132542220D01*
X141928000Y-132502220D02*
X131572000Y-132502220D01*
X141985000Y-132462220D02*
X131515000Y-132462220D01*
X142041000Y-132422220D02*
X131459000Y-132422220D01*
X142096000Y-132382220D02*
X131404000Y-132382220D01*
X142150000Y-132342220D02*
X131350000Y-132342220D01*
X142203000Y-132302220D02*
X131297000Y-132302220D01*
X142256000Y-132262220D02*
X131244000Y-132262220D01*
X142308000Y-132222220D02*
X131192000Y-132222220D01*
X142359000Y-132182220D02*
X131141000Y-132182220D01*
X142409000Y-132142220D02*
X131091000Y-132142220D01*
X142459000Y-132102220D02*
X131041000Y-132102220D01*
X142508000Y-132062220D02*
X130992000Y-132062220D01*
X142556000Y-132022220D02*
X130944000Y-132022220D01*
X142603000Y-131982220D02*
X130897000Y-131982220D01*
X142650000Y-131942220D02*
X130850000Y-131942220D01*
X142697000Y-131902220D02*
X130803000Y-131902220D01*
X142742000Y-131862220D02*
X130758000Y-131862220D01*
X142765000Y-116162780D02*
X140965000Y-116162780D01*
X142787000Y-131822220D02*
X130713000Y-131822220D01*
X142832000Y-131782220D02*
X130668000Y-131782220D01*
X142876000Y-131742220D02*
X130624000Y-131742220D01*
X142919000Y-131702220D02*
X130581000Y-131702220D01*
X142962000Y-131662220D02*
X130538000Y-131662220D01*
X143004000Y-131622220D02*
X130496000Y-131622220D01*
X143046000Y-131582220D02*
X130454000Y-131582220D01*
X143087000Y-131542220D02*
X130413000Y-131542220D01*
X143127000Y-131502220D02*
X130373000Y-131502220D01*
X143168000Y-131462220D02*
X130332000Y-131462220D01*
X143207000Y-131422220D02*
X130293000Y-131422220D01*
X143246000Y-131382220D02*
X130254000Y-131382220D01*
X143285000Y-131342220D02*
X130215000Y-131342220D01*
X143323000Y-131302220D02*
X130177000Y-131302220D01*
X143361000Y-131262220D02*
X130139000Y-131262220D01*
X143398000Y-131222220D02*
X130102000Y-131222220D01*
X143435000Y-131182220D02*
X130065000Y-131182220D01*
X143472000Y-131142220D02*
X130028000Y-131142220D01*
X143508000Y-131102220D02*
X129992000Y-131102220D01*
X143543000Y-131062220D02*
X129957000Y-131062220D01*
X143578000Y-131022220D02*
X129922000Y-131022220D01*
X143613000Y-130982220D02*
X129887000Y-130982220D01*
X143647000Y-130942220D02*
X129853000Y-130942220D01*
X143681000Y-130902220D02*
X129819000Y-130902220D01*
X143715000Y-130862220D02*
X129785000Y-130862220D01*
X143748000Y-130822220D02*
X129752000Y-130822220D01*
X143781000Y-130782220D02*
X129719000Y-130782220D01*
X143813000Y-130742220D02*
X129687000Y-130742220D01*
X143845000Y-130702220D02*
X129655000Y-130702220D01*
X143877000Y-130662220D02*
X129623000Y-130662220D01*
X143908000Y-130622220D02*
X129592000Y-130622220D01*
X143939000Y-130582220D02*
X129561000Y-130582220D01*
X143970000Y-130542220D02*
X129530000Y-130542220D01*
X144000000Y-130502220D02*
X129500000Y-130502220D01*
X144030000Y-130462220D02*
X129470000Y-130462220D01*
X144059000Y-130422220D02*
X129441000Y-130422220D01*
X144089000Y-130382220D02*
X129411000Y-130382220D01*
X144118000Y-130342220D02*
X129382000Y-130342220D01*
X144146000Y-130302220D02*
X129354000Y-130302220D01*
X144174000Y-130262220D02*
X129326000Y-130262220D01*
X144202000Y-130222220D02*
X129298000Y-130222220D01*
X144230000Y-130182220D02*
X138190000Y-130182220D01*
X144257000Y-130142220D02*
X138190000Y-130142220D01*
X144284000Y-130102220D02*
X138190000Y-130102220D01*
X144311000Y-130062220D02*
X138190000Y-130062220D01*
X144337000Y-130022220D02*
X138190000Y-130022220D01*
X144363000Y-129982220D02*
X138190000Y-129982220D01*
X144389000Y-129942220D02*
X138190000Y-129942220D01*
X144415000Y-129902220D02*
X138190000Y-129902220D01*
X144440000Y-129862220D02*
X138190000Y-129862220D01*
X144465000Y-129822220D02*
X138190000Y-129822220D01*
X144489000Y-129782220D02*
X138190000Y-129782220D01*
X144514000Y-129742220D02*
X138190000Y-129742220D01*
X144538000Y-129702220D02*
X138190000Y-129702220D01*
X144561000Y-129662220D02*
X138190000Y-129662220D01*
X144585000Y-129622220D02*
X138190000Y-129622220D01*
X144608000Y-129582220D02*
X138190000Y-129582220D01*
X144631000Y-129542220D02*
X138190000Y-129542220D01*
X144654000Y-129502220D02*
X138190000Y-129502220D01*
X144676000Y-129462220D02*
X138190000Y-129462220D01*
X144698000Y-129422220D02*
X138190000Y-129422220D01*
X144720000Y-129382220D02*
X138190000Y-129382220D01*
X144742000Y-129342220D02*
X138190000Y-129342220D01*
X144763000Y-129302220D02*
X138190000Y-129302220D01*
X144784000Y-129262220D02*
X138190000Y-129262220D01*
X144805000Y-129222220D02*
X138190000Y-129222220D01*
X144826000Y-129182220D02*
X138190000Y-129182220D01*
X144846000Y-129142220D02*
X138190000Y-129142220D01*
X144866000Y-129102220D02*
X138190000Y-129102220D01*
X144886000Y-129062220D02*
X138190000Y-129062220D01*
X144906000Y-129022220D02*
X138190000Y-129022220D01*
X144925000Y-128982220D02*
X138190000Y-128982220D01*
X144945000Y-128942220D02*
X138190000Y-128942220D01*
X144963000Y-128902220D02*
X138190000Y-128902220D01*
X144982000Y-128862220D02*
X138190000Y-128862220D01*
X145001000Y-128822220D02*
X138190000Y-128822220D01*
X145019000Y-128782220D02*
X138190000Y-128782220D01*
X145037000Y-128742220D02*
X138190000Y-128742220D01*
X145055000Y-128702220D02*
X138190000Y-128702220D01*
X145072000Y-128662220D02*
X138190000Y-128662220D01*
X145089000Y-128622220D02*
X138190000Y-128622220D01*
X145106000Y-128582220D02*
X138190000Y-128582220D01*
X145123000Y-128542220D02*
X138190000Y-128542220D01*
X145140000Y-128502220D02*
X138190000Y-128502220D01*
X145156000Y-128462220D02*
X138190000Y-128462220D01*
X145173000Y-128422220D02*
X138190000Y-128422220D01*
X145188000Y-128382220D02*
X138190000Y-128382220D01*
X145204000Y-128342220D02*
X138190000Y-128342220D01*
X145220000Y-128302220D02*
X138190000Y-128302220D01*
X145235000Y-128262220D02*
X138190000Y-128262220D01*
X145250000Y-128222220D02*
X138190000Y-128222220D01*
X145265000Y-128182220D02*
X138190000Y-128182220D01*
X145280000Y-128142220D02*
X138190000Y-128142220D01*
X145294000Y-128102220D02*
X138190000Y-128102220D01*
X145308000Y-128062220D02*
X138190000Y-128062220D01*
X145322000Y-128022220D02*
X138190000Y-128022220D01*
X145336000Y-127982220D02*
X138190000Y-127982220D01*
X145350000Y-127942220D02*
X138190000Y-127942220D01*
X145363000Y-127902220D02*
X138190000Y-127902220D01*
X145377000Y-127862220D02*
X138190000Y-127862220D01*
X145390000Y-127822220D02*
X138190000Y-127822220D01*
X145402000Y-127782220D02*
X138190000Y-127782220D01*
X145415000Y-127742220D02*
X138190000Y-127742220D01*
X145427000Y-127702220D02*
X138190000Y-127702220D01*
X145440000Y-127662220D02*
X138190000Y-127662220D01*
X145452000Y-127622220D02*
X138190000Y-127622220D01*
X145463000Y-127582220D02*
X138190000Y-127582220D01*
X145475000Y-127542220D02*
X138190000Y-127542220D01*
X145486000Y-127502220D02*
X138190000Y-127502220D01*
X145498000Y-127462220D02*
X138190000Y-127462220D01*
X145509000Y-127422220D02*
X138190000Y-127422220D01*
X145519000Y-127382220D02*
X138190000Y-127382220D01*
X145530000Y-127342220D02*
X138190000Y-127342220D01*
X145540000Y-127302220D02*
X127960000Y-127302220D01*
X145551000Y-127262220D02*
X127949000Y-127262220D01*
X145561000Y-127222220D02*
X127939000Y-127222220D01*
X145571000Y-127182220D02*
X127929000Y-127182220D01*
X145580000Y-127142220D02*
X127920000Y-127142220D01*
X145590000Y-127102220D02*
X127910000Y-127102220D01*
X145599000Y-127062220D02*
X127901000Y-127062220D01*
X145608000Y-127022220D02*
X127892000Y-127022220D01*
X145617000Y-126982220D02*
X127883000Y-126982220D01*
X145626000Y-126942220D02*
X127874000Y-126942220D01*
X145634000Y-126902220D02*
X127866000Y-126902220D01*
X145642000Y-126862220D02*
X127858000Y-126862220D01*
X145651000Y-126822220D02*
X127849000Y-126822220D01*
X145659000Y-126782220D02*
X127841000Y-126782220D01*
X145666000Y-126742220D02*
X127834000Y-126742220D01*
X145674000Y-126702220D02*
X127826000Y-126702220D01*
X145681000Y-126662220D02*
X127819000Y-126662220D01*
X145689000Y-126622220D02*
X127811000Y-126622220D01*
X145696000Y-126582220D02*
X127804000Y-126582220D01*
X145702000Y-126542220D02*
X127798000Y-126542220D01*
X145709000Y-126502220D02*
X127791000Y-126502220D01*
X145716000Y-126462220D02*
X127784000Y-126462220D01*
X145722000Y-126422220D02*
X127778000Y-126422220D01*
X145728000Y-126382220D02*
X127772000Y-126382220D01*
X145734000Y-126342220D02*
X127766000Y-126342220D01*
X145740000Y-126302220D02*
X127760000Y-126302220D01*
X145745000Y-126262220D02*
X127755000Y-126262220D01*
X145751000Y-126222220D02*
X127749000Y-126222220D01*
X145756000Y-126182220D02*
X127744000Y-126182220D01*
X145761000Y-126142220D02*
X127739000Y-126142220D01*
X145766000Y-126102220D02*
X127734000Y-126102220D01*
X145771000Y-126062220D02*
X127729000Y-126062220D01*
X145775000Y-126022220D02*
X127725000Y-126022220D01*
X145779000Y-125982220D02*
X127721000Y-125982220D01*
X145783000Y-125942220D02*
X127717000Y-125942220D01*
X145787000Y-125902220D02*
X127713000Y-125902220D01*
X145791000Y-125862220D02*
X127709000Y-125862220D01*
X145795000Y-125822220D02*
X127705000Y-125822220D01*
X145798000Y-125782220D02*
X127702000Y-125782220D01*
X145802000Y-125742220D02*
X127698000Y-125742220D01*
X145805000Y-125702220D02*
X127695000Y-125702220D01*
X145808000Y-125662220D02*
X127692000Y-125662220D01*
X145810000Y-125622220D02*
X127690000Y-125622220D01*
X145813000Y-125582220D02*
X127687000Y-125582220D01*
X145815000Y-125542220D02*
X127685000Y-125542220D01*
X145817000Y-125502220D02*
X127683000Y-125502220D01*
X145819000Y-125462220D02*
X127681000Y-125462220D01*
X145821000Y-125422220D02*
X127679000Y-125422220D01*
X145823000Y-125382220D02*
X127677000Y-125382220D01*
X145824000Y-125342220D02*
X127676000Y-125342220D01*
X145826000Y-125302220D02*
X127674000Y-125302220D01*
X145827000Y-125262220D02*
X127673000Y-125262220D01*
X145828000Y-125222220D02*
X127672000Y-125222220D01*
X145829000Y-125142220D02*
X127671000Y-125142220D01*
X145829000Y-125182220D02*
X127671000Y-125182220D01*
X145830000Y-125022220D02*
X127670000Y-125022220D01*
X145830000Y-125062220D02*
X127670000Y-125062220D01*
X145830000Y-125102220D02*
X127670000Y-125102220D01*
X145870000Y-125022220D02*
G75*
G02*
X127630000Y-125022220I-9120000J0D01*
G01*
X127630000Y-125022220D02*
G75*
G02*
X145870000Y-125022220I9120000J0D01*
G01*
%TO.C,C11*%
X94961252Y-125340000D02*
X93538748Y-125340000D01*
X94961252Y-127160000D02*
X93538748Y-127160000D01*
%TO.C,C6*%
X74015000Y-113988748D02*
X74015000Y-114511252D01*
X75485000Y-113988748D02*
X75485000Y-114511252D01*
%TO.C,L1*%
X88000000Y-139000000D02*
X88000000Y-136650000D01*
X88000000Y-148850000D02*
X88000000Y-146500000D01*
X88400000Y-136250000D02*
X100600000Y-136250000D01*
X100600000Y-149250000D02*
X88400000Y-149250000D01*
X101000000Y-139000000D02*
X101000000Y-136650000D01*
X101000000Y-146500000D02*
X101750000Y-146500000D01*
X101000000Y-148850000D02*
X101000000Y-146500000D01*
X88000000Y-136650000D02*
G75*
G02*
X88400000Y-136250000I400000J0D01*
G01*
X88400000Y-149250000D02*
G75*
G02*
X88000000Y-148850000I0J400000D01*
G01*
X100600000Y-136250000D02*
G75*
G02*
X101000000Y-136650000I1J-399999D01*
G01*
X101000000Y-148850000D02*
G75*
G02*
X100600000Y-149250000I-399999J-1D01*
G01*
%TO.C,C4*%
X62018752Y-125915000D02*
X61496248Y-125915000D01*
X62018752Y-127385000D02*
X61496248Y-127385000D01*
%TO.C,C3*%
X74015000Y-117988748D02*
X74015000Y-118511252D01*
X75485000Y-117988748D02*
X75485000Y-118511252D01*
%TO.C,TP7*%
X97200000Y-158250000D02*
G75*
G02*
X95800000Y-158250000I-700000J0D01*
G01*
X95800000Y-158250000D02*
G75*
G02*
X97200000Y-158250000I700000J0D01*
G01*
%TO.C,R16*%
X85015000Y-125477064D02*
X85015000Y-125022936D01*
X86485000Y-125477064D02*
X86485000Y-125022936D01*
%TO.C,VR1*%
D14*
X59975000Y-142350000D02*
X60975000Y-141000000D01*
X59975000Y-152650000D02*
X60975000Y-154000000D01*
X60975000Y-141000000D02*
X65975000Y-141000000D01*
X60975000Y-154000000D02*
X65975000Y-154000000D01*
X65975000Y-141000000D02*
X65975000Y-142300000D01*
X65975000Y-154000000D02*
X65975000Y-152700000D01*
D10*
D17*
X67675000Y-151250000D02*
X67674999Y-151250000D01*
X67674999Y-151250000D01*
X67674999Y-151250000D01*
X67674999Y-151250000D01*
X67674999Y-151250000D01*
X67674999Y-151250000D01*
X67674999Y-151250000D01*
X67674999Y-151249999D01*
X67674999Y-151249999D01*
X67674999Y-151249999D01*
X67674999Y-151249999D01*
X67674999Y-151249999D01*
X67675000Y-151249999D01*
X67675000Y-151249999D01*
X67675000Y-151249999D01*
X67675000Y-151249999D01*
X67675000Y-151249999D01*
X67675000Y-151249999D01*
X67675000Y-151249999D01*
X67675000Y-151249999D01*
X67675000Y-151249999D01*
X67675000Y-151249999D01*
X67675000Y-151249999D01*
X67675000Y-151249999D01*
X67675001Y-151249999D01*
X67675001Y-151249999D01*
X67675001Y-151249999D01*
X67675001Y-151249999D01*
X67675001Y-151249999D01*
X67675001Y-151249999D01*
X67675001Y-151250000D01*
X67675001Y-151250000D01*
X67675001Y-151250000D01*
X67675001Y-151250000D01*
X67675001Y-151250000D01*
X67675001Y-151250000D01*
X67675001Y-151250000D01*
X67675000Y-151250000D01*
X67675000Y-151250000D02*
X67675001Y-151250000D01*
X67675001Y-151250000D01*
X67675001Y-151250000D01*
X67675001Y-151250000D01*
X67675001Y-151250000D01*
X67675001Y-151250000D01*
X67675001Y-151250001D01*
X67675001Y-151250001D01*
X67675001Y-151250001D01*
X67675001Y-151250001D01*
X67675001Y-151250001D01*
X67675001Y-151250001D01*
X67675001Y-151250001D01*
X67675000Y-151250001D01*
X67675000Y-151250001D01*
X67675000Y-151250001D01*
X67675000Y-151250001D01*
X67675000Y-151250001D01*
X67675000Y-151250001D01*
X67675000Y-151250001D01*
X67675000Y-151250001D01*
X67675000Y-151250001D01*
X67675000Y-151250001D01*
X67675000Y-151250001D01*
X67675000Y-151250001D01*
X67674999Y-151250001D01*
X67674999Y-151250001D01*
X67674999Y-151250001D01*
X67674999Y-151250001D01*
X67674999Y-151250001D01*
X67674999Y-151250001D01*
X67674999Y-151250000D01*
X67674999Y-151250000D01*
X67674999Y-151250000D01*
X67674999Y-151250000D01*
X67674999Y-151250000D01*
X67674999Y-151250000D01*
X67675000Y-151250000D01*
D10*
D17*
X67775000Y-151250000D02*
X67774999Y-151250000D01*
X67774999Y-151250000D01*
X67774999Y-151250000D01*
X67774999Y-151250000D01*
X67774999Y-151250000D01*
X67774999Y-151250000D01*
X67774999Y-151250000D01*
X67774999Y-151249999D01*
X67774999Y-151249999D01*
X67774999Y-151249999D01*
X67774999Y-151249999D01*
X67774999Y-151249999D01*
X67775000Y-151249999D01*
X67775000Y-151249999D01*
X67775000Y-151249999D01*
X67775000Y-151249999D01*
X67775000Y-151249999D01*
X67775000Y-151249999D01*
X67775000Y-151249999D01*
X67775000Y-151249999D01*
X67775000Y-151249999D01*
X67775000Y-151249999D01*
X67775000Y-151249999D01*
X67775000Y-151249999D01*
X67775001Y-151249999D01*
X67775001Y-151249999D01*
X67775001Y-151249999D01*
X67775001Y-151249999D01*
X67775001Y-151249999D01*
X67775001Y-151249999D01*
X67775001Y-151250000D01*
X67775001Y-151250000D01*
X67775001Y-151250000D01*
X67775001Y-151250000D01*
X67775001Y-151250000D01*
X67775001Y-151250000D01*
X67775001Y-151250000D01*
X67775000Y-151250000D01*
X67775000Y-151250000D02*
X67775001Y-151250000D01*
X67775001Y-151250000D01*
X67775001Y-151250000D01*
X67775001Y-151250000D01*
X67775001Y-151250000D01*
X67775001Y-151250000D01*
X67775001Y-151250001D01*
X67775001Y-151250001D01*
X67775001Y-151250001D01*
X67775001Y-151250001D01*
X67775001Y-151250001D01*
X67775001Y-151250001D01*
X67775001Y-151250001D01*
X67775000Y-151250001D01*
X67775000Y-151250001D01*
X67775000Y-151250001D01*
X67775000Y-151250001D01*
X67775000Y-151250001D01*
X67775000Y-151250001D01*
X67775000Y-151250001D01*
X67775000Y-151250001D01*
X67775000Y-151250001D01*
X67775000Y-151250001D01*
X67775000Y-151250001D01*
X67775000Y-151250001D01*
X67774999Y-151250001D01*
X67774999Y-151250001D01*
X67774999Y-151250001D01*
X67774999Y-151250001D01*
X67774999Y-151250001D01*
X67774999Y-151250001D01*
X67774999Y-151250000D01*
X67774999Y-151250000D01*
X67774999Y-151250000D01*
X67774999Y-151250000D01*
X67774999Y-151250000D01*
X67774999Y-151250000D01*
X67775000Y-151250000D01*
D10*
X67675000Y-151250000D02*
G75*
G02*
X67775000Y-151250000I50000J0D01*
G01*
X67775000Y-151250000D02*
G75*
G02*
X67675000Y-151250000I-50000J0D01*
G01*
%TO.C,J2*%
D15*
X77880000Y-96920000D02*
X79210000Y-96920000D01*
X77880000Y-98250000D02*
X77880000Y-96920000D01*
X77880000Y-99520000D02*
X80480000Y-99520000D01*
X77880000Y-102120000D02*
X77880000Y-99520000D01*
X77880000Y-102120000D02*
X90700000Y-102120000D01*
X80480000Y-96920000D02*
X90700000Y-96920000D01*
X80480000Y-99520000D02*
X80480000Y-96920000D01*
X90700000Y-102120000D02*
X90700000Y-96920000D01*
%TO.C,R10*%
X118765000Y-150977064D02*
X118765000Y-150522936D01*
X120235000Y-150977064D02*
X120235000Y-150522936D01*
%TO.C,J1*%
X58835000Y-106880000D02*
X58835000Y-88920000D01*
X58835000Y-106880000D02*
X74355000Y-106880000D01*
X74355000Y-88920000D02*
X58835000Y-88920000D01*
X74355000Y-106880000D02*
X74355000Y-88920000D01*
X74540000Y-103000000D02*
X75040000Y-103500000D01*
X75040000Y-102500000D02*
X74540000Y-103000000D01*
X75040000Y-103500000D02*
X75040000Y-102500000D01*
%TO.C,Q2*%
D14*
D17*
X117450000Y-138275000D02*
X117449999Y-138275000D01*
X117449999Y-138275000D01*
X117449999Y-138275000D01*
X117449999Y-138275000D01*
X117449999Y-138275000D01*
X117449999Y-138275000D01*
X117449999Y-138275000D01*
X117449999Y-138274999D01*
X117449999Y-138274999D01*
X117449999Y-138274999D01*
X117449999Y-138274999D01*
X117449999Y-138274999D01*
X117450000Y-138274999D01*
X117450000Y-138274999D01*
X117450000Y-138274999D01*
X117450000Y-138274999D01*
X117450000Y-138274999D01*
X117450000Y-138274999D01*
X117450000Y-138274999D01*
X117450000Y-138274999D01*
X117450000Y-138274999D01*
X117450000Y-138274999D01*
X117450000Y-138274999D01*
X117450000Y-138274999D01*
X117450001Y-138274999D01*
X117450001Y-138274999D01*
X117450001Y-138274999D01*
X117450001Y-138274999D01*
X117450001Y-138274999D01*
X117450001Y-138274999D01*
X117450001Y-138275000D01*
X117450001Y-138275000D01*
X117450001Y-138275000D01*
X117450001Y-138275000D01*
X117450001Y-138275000D01*
X117450001Y-138275000D01*
X117450001Y-138275000D01*
X117450000Y-138275000D01*
X117450000Y-138275000D02*
X117450001Y-138275000D01*
X117450001Y-138275000D01*
X117450001Y-138275000D01*
X117450001Y-138275000D01*
X117450001Y-138275000D01*
X117450001Y-138275000D01*
X117450001Y-138275001D01*
X117450001Y-138275001D01*
X117450001Y-138275001D01*
X117450001Y-138275001D01*
X117450001Y-138275001D01*
X117450001Y-138275001D01*
X117450001Y-138275001D01*
X117450000Y-138275001D01*
X117450000Y-138275001D01*
X117450000Y-138275001D01*
X117450000Y-138275001D01*
X117450000Y-138275001D01*
X117450000Y-138275001D01*
X117450000Y-138275001D01*
X117450000Y-138275001D01*
X117450000Y-138275001D01*
X117450000Y-138275001D01*
X117450000Y-138275001D01*
X117450000Y-138275001D01*
X117449999Y-138275001D01*
X117449999Y-138275001D01*
X117449999Y-138275001D01*
X117449999Y-138275001D01*
X117449999Y-138275001D01*
X117449999Y-138275001D01*
X117449999Y-138275000D01*
X117449999Y-138275000D01*
X117449999Y-138275000D01*
X117449999Y-138275000D01*
X117449999Y-138275000D01*
X117449999Y-138275000D01*
X117450000Y-138275000D01*
D14*
D17*
X117550000Y-138275000D02*
X117549999Y-138275000D01*
X117549999Y-138275000D01*
X117549999Y-138275000D01*
X117549999Y-138275000D01*
X117549999Y-138275000D01*
X117549999Y-138275000D01*
X117549999Y-138275000D01*
X117549999Y-138274999D01*
X117549999Y-138274999D01*
X117549999Y-138274999D01*
X117549999Y-138274999D01*
X117549999Y-138274999D01*
X117550000Y-138274999D01*
X117550000Y-138274999D01*
X117550000Y-138274999D01*
X117550000Y-138274999D01*
X117550000Y-138274999D01*
X117550000Y-138274999D01*
X117550000Y-138274999D01*
X117550000Y-138274999D01*
X117550000Y-138274999D01*
X117550000Y-138274999D01*
X117550000Y-138274999D01*
X117550000Y-138274999D01*
X117550001Y-138274999D01*
X117550001Y-138274999D01*
X117550001Y-138274999D01*
X117550001Y-138274999D01*
X117550001Y-138274999D01*
X117550001Y-138274999D01*
X117550001Y-138275000D01*
X117550001Y-138275000D01*
X117550001Y-138275000D01*
X117550001Y-138275000D01*
X117550001Y-138275000D01*
X117550001Y-138275000D01*
X117550001Y-138275000D01*
X117550000Y-138275000D01*
X117550000Y-138275000D02*
X117550001Y-138275000D01*
X117550001Y-138275000D01*
X117550001Y-138275000D01*
X117550001Y-138275000D01*
X117550001Y-138275000D01*
X117550001Y-138275000D01*
X117550001Y-138275001D01*
X117550001Y-138275001D01*
X117550001Y-138275001D01*
X117550001Y-138275001D01*
X117550001Y-138275001D01*
X117550001Y-138275001D01*
X117550001Y-138275001D01*
X117550000Y-138275001D01*
X117550000Y-138275001D01*
X117550000Y-138275001D01*
X117550000Y-138275001D01*
X117550000Y-138275001D01*
X117550000Y-138275001D01*
X117550000Y-138275001D01*
X117550000Y-138275001D01*
X117550000Y-138275001D01*
X117550000Y-138275001D01*
X117550000Y-138275001D01*
X117550000Y-138275001D01*
X117549999Y-138275001D01*
X117549999Y-138275001D01*
X117549999Y-138275001D01*
X117549999Y-138275001D01*
X117549999Y-138275001D01*
X117549999Y-138275001D01*
X117549999Y-138275000D01*
X117549999Y-138275000D01*
X117549999Y-138275000D01*
X117549999Y-138275000D01*
X117549999Y-138275000D01*
X117549999Y-138275000D01*
X117550000Y-138275000D01*
D14*
D17*
X117550000Y-138275000D02*
X117549999Y-138275000D01*
X117549999Y-138275000D01*
X117549999Y-138275000D01*
X117549999Y-138275000D01*
X117549999Y-138275000D01*
X117549999Y-138275000D01*
X117549999Y-138275000D01*
X117549999Y-138274999D01*
X117549999Y-138274999D01*
X117549999Y-138274999D01*
X117549999Y-138274999D01*
X117549999Y-138274999D01*
X117550000Y-138274999D01*
X117550000Y-138274999D01*
X117550000Y-138274999D01*
X117550000Y-138274999D01*
X117550000Y-138274999D01*
X117550000Y-138274999D01*
X117550000Y-138274999D01*
X117550000Y-138274999D01*
X117550000Y-138274999D01*
X117550000Y-138274999D01*
X117550000Y-138274999D01*
X117550000Y-138274999D01*
X117550001Y-138274999D01*
X117550001Y-138274999D01*
X117550001Y-138274999D01*
X117550001Y-138274999D01*
X117550001Y-138274999D01*
X117550001Y-138274999D01*
X117550001Y-138275000D01*
X117550001Y-138275000D01*
X117550001Y-138275000D01*
X117550001Y-138275000D01*
X117550001Y-138275000D01*
X117550001Y-138275000D01*
X117550001Y-138275000D01*
X117550000Y-138275000D01*
X117550000Y-138275000D02*
X117550001Y-138275000D01*
X117550001Y-138275000D01*
X117550001Y-138275000D01*
X117550001Y-138275000D01*
X117550001Y-138275000D01*
X117550001Y-138275000D01*
X117550001Y-138275001D01*
X117550001Y-138275001D01*
X117550001Y-138275001D01*
X117550001Y-138275001D01*
X117550001Y-138275001D01*
X117550001Y-138275001D01*
X117550001Y-138275001D01*
X117550000Y-138275001D01*
X117550000Y-138275001D01*
X117550000Y-138275001D01*
X117550000Y-138275001D01*
X117550000Y-138275001D01*
X117550000Y-138275001D01*
X117550000Y-138275001D01*
X117550000Y-138275001D01*
X117550000Y-138275001D01*
X117550000Y-138275001D01*
X117550000Y-138275001D01*
X117550000Y-138275001D01*
X117549999Y-138275001D01*
X117549999Y-138275001D01*
X117549999Y-138275001D01*
X117549999Y-138275001D01*
X117549999Y-138275001D01*
X117549999Y-138275001D01*
X117549999Y-138275000D01*
X117549999Y-138275000D01*
X117549999Y-138275000D01*
X117549999Y-138275000D01*
X117549999Y-138275000D01*
X117549999Y-138275000D01*
X117550000Y-138275000D01*
D14*
X121000000Y-137575000D02*
X123250000Y-137575000D01*
X121000000Y-147375000D02*
X123250000Y-147375000D01*
X117450000Y-138275000D02*
G75*
G02*
X117550000Y-138275000I50000J0D01*
G01*
X117450000Y-138275000D02*
G75*
G02*
X117550000Y-138275000I50000J0D01*
G01*
X117550000Y-138275000D02*
G75*
G02*
X117450000Y-138275000I-50000J0D01*
G01*
%TO.C,D1*%
D15*
X55140000Y-134040000D02*
X55140000Y-135960000D01*
X55140000Y-135960000D02*
X58000000Y-135960000D01*
X58000000Y-134040000D02*
X55140000Y-134040000D01*
%TO.C,R15*%
X53227064Y-132015000D02*
X52772936Y-132015000D01*
X53227064Y-133485000D02*
X52772936Y-133485000D01*
%TO.C,C10*%
X94961252Y-122340000D02*
X93538748Y-122340000D01*
X94961252Y-124160000D02*
X93538748Y-124160000D01*
%TO.C,C14*%
X98865000Y-133634165D02*
X98865000Y-133865835D01*
X99585000Y-133634165D02*
X99585000Y-133865835D01*
%TO.C,R9*%
X95272936Y-155015000D02*
X95727064Y-155015000D01*
X95272936Y-156485000D02*
X95727064Y-156485000D01*
%TO.C,C15*%
X85211252Y-143390000D02*
X83788748Y-143390000D01*
X85211252Y-146110000D02*
X83788748Y-146110000D01*
%TO.C,U1*%
X69894689Y-132750000D02*
X70212887Y-132431802D01*
X70212887Y-133068198D02*
X69894689Y-132750000D01*
X74681802Y-127962887D02*
X75000000Y-127644689D01*
X75000000Y-127644689D02*
X75318198Y-127962887D01*
X75000000Y-137855311D02*
X74681802Y-137537113D01*
X75318198Y-137537113D02*
X75000000Y-137855311D01*
X79787113Y-132431802D02*
X80105311Y-132750000D01*
X80105311Y-132750000D02*
X79787113Y-133068198D01*
X69760339Y-133520746D02*
X69187582Y-133428823D01*
X69668415Y-132947990D01*
X69760339Y-133520746D01*
G36*
X69760339Y-133520746D02*
G01*
X69187582Y-133428823D01*
X69668415Y-132947990D01*
X69760339Y-133520746D01*
G37*
%TO.C,MP3*%
D14*
X134420000Y-104590000D02*
X144620000Y-104590000D01*
X134420000Y-114790000D02*
X134420000Y-104590000D01*
X144620000Y-104590000D02*
X144620000Y-114790000D01*
X144620000Y-114790000D02*
X134420000Y-114790000D01*
%TO.C,C9*%
D15*
X102130000Y-116210000D02*
X102130000Y-116290000D01*
X102170000Y-117063000D02*
X102170000Y-115437000D01*
X102210000Y-117415000D02*
X102210000Y-115085000D01*
X102250000Y-117685000D02*
X102250000Y-114815000D01*
X102290000Y-117911000D02*
X102290000Y-114589000D01*
X102330000Y-118109000D02*
X102330000Y-114391000D01*
X102370000Y-118288000D02*
X102370000Y-114212000D01*
X102410000Y-118452000D02*
X102410000Y-114048000D01*
X102450000Y-118605000D02*
X102450000Y-113895000D01*
X102490000Y-118747000D02*
X102490000Y-113753000D01*
X102530000Y-118881000D02*
X102530000Y-113619000D01*
X102570000Y-119009000D02*
X102570000Y-113491000D01*
X102610000Y-119130000D02*
X102610000Y-113370000D01*
X102650000Y-119246000D02*
X102650000Y-113254000D01*
X102690000Y-119357000D02*
X102690000Y-113143000D01*
X102730000Y-119463000D02*
X102730000Y-113037000D01*
X102770000Y-119566000D02*
X102770000Y-112934000D01*
X102810000Y-119666000D02*
X102810000Y-112834000D01*
X102850000Y-119762000D02*
X102850000Y-112738000D01*
X102890000Y-119855000D02*
X102890000Y-112645000D01*
X102930000Y-119945000D02*
X102930000Y-112555000D01*
X102970000Y-120033000D02*
X102970000Y-112467000D01*
X103010000Y-120119000D02*
X103010000Y-112381000D01*
X103050000Y-120202000D02*
X103050000Y-112298000D01*
X103090000Y-120283000D02*
X103090000Y-112217000D01*
X103130000Y-120362000D02*
X103130000Y-112138000D01*
X103170000Y-120439000D02*
X103170000Y-112061000D01*
X103210000Y-120515000D02*
X103210000Y-111985000D01*
X103250000Y-120589000D02*
X103250000Y-111911000D01*
X103290000Y-120661000D02*
X103290000Y-111839000D01*
X103330000Y-120732000D02*
X103330000Y-111768000D01*
X103370000Y-120801000D02*
X103370000Y-111699000D01*
X103410000Y-120869000D02*
X103410000Y-111631000D01*
X103450000Y-120936000D02*
X103450000Y-111564000D01*
X103490000Y-121001000D02*
X103490000Y-111499000D01*
X103530000Y-121066000D02*
X103530000Y-111434000D01*
X103570000Y-121129000D02*
X103570000Y-111371000D01*
X103610000Y-121190000D02*
X103610000Y-111310000D01*
X103650000Y-121251000D02*
X103650000Y-111249000D01*
X103690000Y-121311000D02*
X103690000Y-111189000D01*
X103730000Y-121370000D02*
X103730000Y-111130000D01*
X103770000Y-121428000D02*
X103770000Y-111072000D01*
X103810000Y-121485000D02*
X103810000Y-111015000D01*
X103850000Y-121541000D02*
X103850000Y-110959000D01*
X103890000Y-121596000D02*
X103890000Y-110904000D01*
X103930000Y-121650000D02*
X103930000Y-110850000D01*
X103970000Y-121703000D02*
X103970000Y-110797000D01*
X104010000Y-121756000D02*
X104010000Y-110744000D01*
X104050000Y-121808000D02*
X104050000Y-110692000D01*
X104090000Y-121859000D02*
X104090000Y-110641000D01*
X104130000Y-121909000D02*
X104130000Y-110591000D01*
X104170000Y-121959000D02*
X104170000Y-110541000D01*
X104210000Y-122008000D02*
X104210000Y-110492000D01*
X104250000Y-122056000D02*
X104250000Y-110444000D01*
X104290000Y-122103000D02*
X104290000Y-110397000D01*
X104330000Y-122150000D02*
X104330000Y-110350000D01*
X104370000Y-122197000D02*
X104370000Y-110303000D01*
X104410000Y-122242000D02*
X104410000Y-110258000D01*
X104450000Y-122287000D02*
X104450000Y-110213000D01*
X104490000Y-122332000D02*
X104490000Y-110168000D01*
X104530000Y-122376000D02*
X104530000Y-110124000D01*
X104570000Y-122419000D02*
X104570000Y-110081000D01*
X104610000Y-122462000D02*
X104610000Y-110038000D01*
X104650000Y-122504000D02*
X104650000Y-109996000D01*
X104690000Y-122546000D02*
X104690000Y-109954000D01*
X104730000Y-122587000D02*
X104730000Y-109913000D01*
X104770000Y-122627000D02*
X104770000Y-109873000D01*
X104810000Y-122668000D02*
X104810000Y-109832000D01*
X104850000Y-122707000D02*
X104850000Y-109793000D01*
X104890000Y-122746000D02*
X104890000Y-109754000D01*
X104930000Y-122785000D02*
X104930000Y-109715000D01*
X104970000Y-122823000D02*
X104970000Y-109677000D01*
X105010000Y-122861000D02*
X105010000Y-109639000D01*
X105050000Y-122898000D02*
X105050000Y-109602000D01*
X105090000Y-122935000D02*
X105090000Y-109565000D01*
X105130000Y-122972000D02*
X105130000Y-109528000D01*
X105170000Y-123008000D02*
X105170000Y-109492000D01*
X105210000Y-123043000D02*
X105210000Y-109457000D01*
X105250000Y-123078000D02*
X105250000Y-109422000D01*
X105290000Y-123113000D02*
X105290000Y-109387000D01*
X105330000Y-123147000D02*
X105330000Y-109353000D01*
X105370000Y-123181000D02*
X105370000Y-109319000D01*
X105410000Y-123215000D02*
X105410000Y-109285000D01*
X105450000Y-123248000D02*
X105450000Y-109252000D01*
X105490000Y-123281000D02*
X105490000Y-109219000D01*
X105530000Y-123313000D02*
X105530000Y-109187000D01*
X105570000Y-123345000D02*
X105570000Y-109155000D01*
X105610000Y-123377000D02*
X105610000Y-109123000D01*
X105650000Y-123408000D02*
X105650000Y-109092000D01*
X105690000Y-123439000D02*
X105690000Y-109061000D01*
X105730000Y-123470000D02*
X105730000Y-109030000D01*
X105770000Y-123500000D02*
X105770000Y-109000000D01*
X105810000Y-123530000D02*
X105810000Y-108970000D01*
X105850000Y-123559000D02*
X105850000Y-108941000D01*
X105890000Y-123589000D02*
X105890000Y-108911000D01*
X105930000Y-123618000D02*
X105930000Y-108882000D01*
X105970000Y-123646000D02*
X105970000Y-108854000D01*
X106010000Y-123674000D02*
X106010000Y-108826000D01*
X106050000Y-123702000D02*
X106050000Y-108798000D01*
X106090000Y-114810000D02*
X106090000Y-108770000D01*
X106090000Y-123730000D02*
X106090000Y-117690000D01*
X106130000Y-114810000D02*
X106130000Y-108743000D01*
X106130000Y-123757000D02*
X106130000Y-117690000D01*
X106170000Y-114810000D02*
X106170000Y-108716000D01*
X106170000Y-123784000D02*
X106170000Y-117690000D01*
X106210000Y-114810000D02*
X106210000Y-108689000D01*
X106210000Y-123811000D02*
X106210000Y-117690000D01*
X106250000Y-114810000D02*
X106250000Y-108663000D01*
X106250000Y-123837000D02*
X106250000Y-117690000D01*
X106290000Y-114810000D02*
X106290000Y-108637000D01*
X106290000Y-123863000D02*
X106290000Y-117690000D01*
X106330000Y-114810000D02*
X106330000Y-108611000D01*
X106330000Y-123889000D02*
X106330000Y-117690000D01*
X106370000Y-114810000D02*
X106370000Y-108585000D01*
X106370000Y-123915000D02*
X106370000Y-117690000D01*
X106410000Y-114810000D02*
X106410000Y-108560000D01*
X106410000Y-123940000D02*
X106410000Y-117690000D01*
X106450000Y-114810000D02*
X106450000Y-108535000D01*
X106450000Y-123965000D02*
X106450000Y-117690000D01*
X106490000Y-114810000D02*
X106490000Y-108511000D01*
X106490000Y-123989000D02*
X106490000Y-117690000D01*
X106530000Y-114810000D02*
X106530000Y-108486000D01*
X106530000Y-124014000D02*
X106530000Y-117690000D01*
X106570000Y-114810000D02*
X106570000Y-108462000D01*
X106570000Y-124038000D02*
X106570000Y-117690000D01*
X106610000Y-114810000D02*
X106610000Y-108439000D01*
X106610000Y-124061000D02*
X106610000Y-117690000D01*
X106650000Y-114810000D02*
X106650000Y-108415000D01*
X106650000Y-124085000D02*
X106650000Y-117690000D01*
X106690000Y-114810000D02*
X106690000Y-108392000D01*
X106690000Y-124108000D02*
X106690000Y-117690000D01*
X106730000Y-114810000D02*
X106730000Y-108369000D01*
X106730000Y-124131000D02*
X106730000Y-117690000D01*
X106770000Y-114810000D02*
X106770000Y-108346000D01*
X106770000Y-124154000D02*
X106770000Y-117690000D01*
X106810000Y-114810000D02*
X106810000Y-108324000D01*
X106810000Y-124176000D02*
X106810000Y-117690000D01*
X106850000Y-114810000D02*
X106850000Y-108302000D01*
X106850000Y-124198000D02*
X106850000Y-117690000D01*
X106890000Y-114810000D02*
X106890000Y-108280000D01*
X106890000Y-124220000D02*
X106890000Y-117690000D01*
X106930000Y-114810000D02*
X106930000Y-108258000D01*
X106930000Y-124242000D02*
X106930000Y-117690000D01*
X106970000Y-114810000D02*
X106970000Y-108237000D01*
X106970000Y-124263000D02*
X106970000Y-117690000D01*
X107010000Y-114810000D02*
X107010000Y-108216000D01*
X107010000Y-124284000D02*
X107010000Y-117690000D01*
X107050000Y-114810000D02*
X107050000Y-108195000D01*
X107050000Y-124305000D02*
X107050000Y-117690000D01*
X107090000Y-114810000D02*
X107090000Y-108174000D01*
X107090000Y-124326000D02*
X107090000Y-117690000D01*
X107130000Y-114810000D02*
X107130000Y-108154000D01*
X107130000Y-124346000D02*
X107130000Y-117690000D01*
X107170000Y-114810000D02*
X107170000Y-108134000D01*
X107170000Y-124366000D02*
X107170000Y-117690000D01*
X107210000Y-114810000D02*
X107210000Y-108114000D01*
X107210000Y-124386000D02*
X107210000Y-117690000D01*
X107250000Y-114810000D02*
X107250000Y-108094000D01*
X107250000Y-124406000D02*
X107250000Y-117690000D01*
X107290000Y-114810000D02*
X107290000Y-108075000D01*
X107290000Y-124425000D02*
X107290000Y-117690000D01*
X107330000Y-114810000D02*
X107330000Y-108055000D01*
X107330000Y-124445000D02*
X107330000Y-117690000D01*
X107370000Y-114810000D02*
X107370000Y-108037000D01*
X107370000Y-124463000D02*
X107370000Y-117690000D01*
X107410000Y-114810000D02*
X107410000Y-108018000D01*
X107410000Y-124482000D02*
X107410000Y-117690000D01*
X107450000Y-114810000D02*
X107450000Y-107999000D01*
X107450000Y-124501000D02*
X107450000Y-117690000D01*
X107490000Y-114810000D02*
X107490000Y-107981000D01*
X107490000Y-124519000D02*
X107490000Y-117690000D01*
X107530000Y-114810000D02*
X107530000Y-107963000D01*
X107530000Y-124537000D02*
X107530000Y-117690000D01*
X107570000Y-114810000D02*
X107570000Y-107945000D01*
X107570000Y-124555000D02*
X107570000Y-117690000D01*
X107610000Y-114810000D02*
X107610000Y-107928000D01*
X107610000Y-124572000D02*
X107610000Y-117690000D01*
X107650000Y-114810000D02*
X107650000Y-107911000D01*
X107650000Y-124589000D02*
X107650000Y-117690000D01*
X107690000Y-114810000D02*
X107690000Y-107894000D01*
X107690000Y-124606000D02*
X107690000Y-117690000D01*
X107730000Y-114810000D02*
X107730000Y-107877000D01*
X107730000Y-124623000D02*
X107730000Y-117690000D01*
X107770000Y-114810000D02*
X107770000Y-107860000D01*
X107770000Y-124640000D02*
X107770000Y-117690000D01*
X107810000Y-114810000D02*
X107810000Y-107844000D01*
X107810000Y-124656000D02*
X107810000Y-117690000D01*
X107850000Y-114810000D02*
X107850000Y-107827000D01*
X107850000Y-124673000D02*
X107850000Y-117690000D01*
X107890000Y-114810000D02*
X107890000Y-107812000D01*
X107890000Y-124688000D02*
X107890000Y-117690000D01*
X107930000Y-114810000D02*
X107930000Y-107796000D01*
X107930000Y-124704000D02*
X107930000Y-117690000D01*
X107970000Y-114810000D02*
X107970000Y-107780000D01*
X107970000Y-124720000D02*
X107970000Y-117690000D01*
X108010000Y-114810000D02*
X108010000Y-107765000D01*
X108010000Y-124735000D02*
X108010000Y-117690000D01*
X108050000Y-114810000D02*
X108050000Y-107750000D01*
X108050000Y-124750000D02*
X108050000Y-117690000D01*
X108090000Y-114810000D02*
X108090000Y-107735000D01*
X108090000Y-124765000D02*
X108090000Y-117690000D01*
X108130000Y-114810000D02*
X108130000Y-107720000D01*
X108130000Y-124780000D02*
X108130000Y-117690000D01*
X108170000Y-114810000D02*
X108170000Y-107706000D01*
X108170000Y-124794000D02*
X108170000Y-117690000D01*
X108210000Y-114810000D02*
X108210000Y-107692000D01*
X108210000Y-124808000D02*
X108210000Y-117690000D01*
X108250000Y-114810000D02*
X108250000Y-107678000D01*
X108250000Y-124822000D02*
X108250000Y-117690000D01*
X108290000Y-114810000D02*
X108290000Y-107664000D01*
X108290000Y-124836000D02*
X108290000Y-117690000D01*
X108330000Y-114810000D02*
X108330000Y-107650000D01*
X108330000Y-124850000D02*
X108330000Y-117690000D01*
X108370000Y-114810000D02*
X108370000Y-107637000D01*
X108370000Y-124863000D02*
X108370000Y-117690000D01*
X108410000Y-114810000D02*
X108410000Y-107623000D01*
X108410000Y-124877000D02*
X108410000Y-117690000D01*
X108450000Y-114810000D02*
X108450000Y-107610000D01*
X108450000Y-124890000D02*
X108450000Y-117690000D01*
X108490000Y-114810000D02*
X108490000Y-107598000D01*
X108490000Y-124902000D02*
X108490000Y-117690000D01*
X108530000Y-114810000D02*
X108530000Y-107585000D01*
X108530000Y-124915000D02*
X108530000Y-117690000D01*
X108570000Y-114810000D02*
X108570000Y-107573000D01*
X108570000Y-124927000D02*
X108570000Y-117690000D01*
X108610000Y-114810000D02*
X108610000Y-107560000D01*
X108610000Y-124940000D02*
X108610000Y-117690000D01*
X108650000Y-114810000D02*
X108650000Y-107548000D01*
X108650000Y-124952000D02*
X108650000Y-117690000D01*
X108690000Y-114810000D02*
X108690000Y-107537000D01*
X108690000Y-124963000D02*
X108690000Y-117690000D01*
X108730000Y-114810000D02*
X108730000Y-107525000D01*
X108730000Y-124975000D02*
X108730000Y-117690000D01*
X108770000Y-114810000D02*
X108770000Y-107514000D01*
X108770000Y-124986000D02*
X108770000Y-117690000D01*
X108810000Y-114810000D02*
X108810000Y-107502000D01*
X108810000Y-124998000D02*
X108810000Y-117690000D01*
X108850000Y-114810000D02*
X108850000Y-107491000D01*
X108850000Y-125009000D02*
X108850000Y-117690000D01*
X108890000Y-114810000D02*
X108890000Y-107481000D01*
X108890000Y-125019000D02*
X108890000Y-117690000D01*
X108930000Y-114810000D02*
X108930000Y-107470000D01*
X108930000Y-125030000D02*
X108930000Y-117690000D01*
X108970000Y-125040000D02*
X108970000Y-107460000D01*
X109010000Y-125051000D02*
X109010000Y-107449000D01*
X109050000Y-125061000D02*
X109050000Y-107439000D01*
X109090000Y-125071000D02*
X109090000Y-107429000D01*
X109130000Y-125080000D02*
X109130000Y-107420000D01*
X109170000Y-125090000D02*
X109170000Y-107410000D01*
X109210000Y-125099000D02*
X109210000Y-107401000D01*
X109250000Y-125108000D02*
X109250000Y-107392000D01*
X109290000Y-125117000D02*
X109290000Y-107383000D01*
X109330000Y-125126000D02*
X109330000Y-107374000D01*
X109370000Y-125134000D02*
X109370000Y-107366000D01*
X109410000Y-125142000D02*
X109410000Y-107358000D01*
X109450000Y-125151000D02*
X109450000Y-107349000D01*
X109490000Y-125159000D02*
X109490000Y-107341000D01*
X109530000Y-125166000D02*
X109530000Y-107334000D01*
X109570000Y-125174000D02*
X109570000Y-107326000D01*
X109610000Y-125181000D02*
X109610000Y-107319000D01*
X109650000Y-125189000D02*
X109650000Y-107311000D01*
X109690000Y-125196000D02*
X109690000Y-107304000D01*
X109730000Y-125202000D02*
X109730000Y-107298000D01*
X109770000Y-125209000D02*
X109770000Y-107291000D01*
X109810000Y-125216000D02*
X109810000Y-107284000D01*
X109850000Y-125222000D02*
X109850000Y-107278000D01*
X109890000Y-125228000D02*
X109890000Y-107272000D01*
X109930000Y-125234000D02*
X109930000Y-107266000D01*
X109970000Y-125240000D02*
X109970000Y-107260000D01*
X110010000Y-125245000D02*
X110010000Y-107255000D01*
X110050000Y-125251000D02*
X110050000Y-107249000D01*
X110090000Y-125256000D02*
X110090000Y-107244000D01*
X110130000Y-125261000D02*
X110130000Y-107239000D01*
X110170000Y-125266000D02*
X110170000Y-107234000D01*
X110210000Y-125271000D02*
X110210000Y-107229000D01*
X110250000Y-125275000D02*
X110250000Y-107225000D01*
X110290000Y-125279000D02*
X110290000Y-107221000D01*
X110330000Y-125283000D02*
X110330000Y-107217000D01*
X110370000Y-125287000D02*
X110370000Y-107213000D01*
X110410000Y-125291000D02*
X110410000Y-107209000D01*
X110450000Y-125295000D02*
X110450000Y-107205000D01*
X110490000Y-125298000D02*
X110490000Y-107202000D01*
X110530000Y-125302000D02*
X110530000Y-107198000D01*
X110570000Y-125305000D02*
X110570000Y-107195000D01*
X110610000Y-125308000D02*
X110610000Y-107192000D01*
X110650000Y-125310000D02*
X110650000Y-107190000D01*
X110690000Y-125313000D02*
X110690000Y-107187000D01*
X110730000Y-125315000D02*
X110730000Y-107185000D01*
X110770000Y-125317000D02*
X110770000Y-107183000D01*
X110810000Y-125319000D02*
X110810000Y-107181000D01*
X110850000Y-125321000D02*
X110850000Y-107179000D01*
X110890000Y-125323000D02*
X110890000Y-107177000D01*
X110930000Y-125324000D02*
X110930000Y-107176000D01*
X110970000Y-125326000D02*
X110970000Y-107174000D01*
X111010000Y-125327000D02*
X111010000Y-107173000D01*
X111050000Y-125328000D02*
X111050000Y-107172000D01*
X111090000Y-125329000D02*
X111090000Y-107171000D01*
X111130000Y-125329000D02*
X111130000Y-107171000D01*
X111170000Y-125330000D02*
X111170000Y-107170000D01*
X111210000Y-125330000D02*
X111210000Y-107170000D01*
X111250000Y-125330000D02*
X111250000Y-107170000D01*
X120109440Y-122265000D02*
X120109440Y-120465000D01*
X121009440Y-121365000D02*
X119209440Y-121365000D01*
X120370000Y-116250000D02*
G75*
G02*
X102130000Y-116250000I-9120000J0D01*
G01*
X102130000Y-116250000D02*
G75*
G02*
X120370000Y-116250000I9120000J0D01*
G01*
%TO.C,J3*%
X93880000Y-97150000D02*
X95210000Y-97150000D01*
X93880000Y-98480000D02*
X93880000Y-97150000D01*
X96480000Y-97150000D02*
X101620000Y-97150000D01*
X96480000Y-99810000D02*
X96480000Y-97150000D01*
X96480000Y-99810000D02*
X101620000Y-99810000D01*
X101620000Y-99810000D02*
X101620000Y-97150000D01*
%TO.C,R1*%
X66530436Y-110665000D02*
X66984564Y-110665000D01*
X66530436Y-112135000D02*
X66984564Y-112135000D01*
%TO.C,IC1*%
D14*
X76725000Y-113650000D02*
X78675000Y-113650000D01*
X79025000Y-113500000D02*
X82475000Y-113500000D01*
X79025000Y-120000000D02*
X79025000Y-113500000D01*
X82475000Y-113500000D02*
X82475000Y-120000000D01*
X82475000Y-120000000D02*
X79025000Y-120000000D01*
%TO.C,C5*%
D15*
X66496248Y-108165000D02*
X67018752Y-108165000D01*
X66496248Y-109635000D02*
X67018752Y-109635000D01*
%TD*%
M02*
