%TF.GenerationSoftware,KiCad,Pcbnew,10.0.1*%
%TF.CreationDate,2026-04-26T13:14:21-05:00*%
%TF.ProjectId,brushed_ethab_redo,62727573-6865-4645-9f65-746861625f72,1*%
%TF.SameCoordinates,Original*%
%TF.FileFunction,Legend,Bot*%
%TF.FilePolarity,Positive*%
%FSLAX46Y46*%
G04 Gerber Fmt 4.6, Leading zero omitted, Abs format (unit mm)*
G04 Created by KiCad (PCBNEW 10.0.1) date 2026-04-26 13:14:21*
%MOMM*%
%LPD*%
G01*
G04 APERTURE LIST*
%ADD10C,0.100000*%
G04 APERTURE END LIST*
D10*
X127362782Y-130128721D02*
X127219925Y-130176340D01*
X127219925Y-130176340D02*
X127172306Y-130223959D01*
X127172306Y-130223959D02*
X127124687Y-130319197D01*
X127124687Y-130319197D02*
X127124687Y-130462054D01*
X127124687Y-130462054D02*
X127172306Y-130557292D01*
X127172306Y-130557292D02*
X127219925Y-130604912D01*
X127219925Y-130604912D02*
X127315163Y-130652531D01*
X127315163Y-130652531D02*
X127696115Y-130652531D01*
X127696115Y-130652531D02*
X127696115Y-129652531D01*
X127696115Y-129652531D02*
X127362782Y-129652531D01*
X127362782Y-129652531D02*
X127267544Y-129700150D01*
X127267544Y-129700150D02*
X127219925Y-129747769D01*
X127219925Y-129747769D02*
X127172306Y-129843007D01*
X127172306Y-129843007D02*
X127172306Y-129938245D01*
X127172306Y-129938245D02*
X127219925Y-130033483D01*
X127219925Y-130033483D02*
X127267544Y-130081102D01*
X127267544Y-130081102D02*
X127362782Y-130128721D01*
X127362782Y-130128721D02*
X127696115Y-130128721D01*
X126696115Y-130652531D02*
X126696115Y-129985864D01*
X126696115Y-130176340D02*
X126648496Y-130081102D01*
X126648496Y-130081102D02*
X126600877Y-130033483D01*
X126600877Y-130033483D02*
X126505639Y-129985864D01*
X126505639Y-129985864D02*
X126410401Y-129985864D01*
X125648496Y-129985864D02*
X125648496Y-130652531D01*
X126077067Y-129985864D02*
X126077067Y-130509673D01*
X126077067Y-130509673D02*
X126029448Y-130604912D01*
X126029448Y-130604912D02*
X125934210Y-130652531D01*
X125934210Y-130652531D02*
X125791353Y-130652531D01*
X125791353Y-130652531D02*
X125696115Y-130604912D01*
X125696115Y-130604912D02*
X125648496Y-130557292D01*
X125219924Y-130604912D02*
X125124686Y-130652531D01*
X125124686Y-130652531D02*
X124934210Y-130652531D01*
X124934210Y-130652531D02*
X124838972Y-130604912D01*
X124838972Y-130604912D02*
X124791353Y-130509673D01*
X124791353Y-130509673D02*
X124791353Y-130462054D01*
X124791353Y-130462054D02*
X124838972Y-130366816D01*
X124838972Y-130366816D02*
X124934210Y-130319197D01*
X124934210Y-130319197D02*
X125077067Y-130319197D01*
X125077067Y-130319197D02*
X125172305Y-130271578D01*
X125172305Y-130271578D02*
X125219924Y-130176340D01*
X125219924Y-130176340D02*
X125219924Y-130128721D01*
X125219924Y-130128721D02*
X125172305Y-130033483D01*
X125172305Y-130033483D02*
X125077067Y-129985864D01*
X125077067Y-129985864D02*
X124934210Y-129985864D01*
X124934210Y-129985864D02*
X124838972Y-130033483D01*
X124362781Y-130652531D02*
X124362781Y-129652531D01*
X123934210Y-130652531D02*
X123934210Y-130128721D01*
X123934210Y-130128721D02*
X123981829Y-130033483D01*
X123981829Y-130033483D02*
X124077067Y-129985864D01*
X124077067Y-129985864D02*
X124219924Y-129985864D01*
X124219924Y-129985864D02*
X124315162Y-130033483D01*
X124315162Y-130033483D02*
X124362781Y-130081102D01*
X123077067Y-130604912D02*
X123172305Y-130652531D01*
X123172305Y-130652531D02*
X123362781Y-130652531D01*
X123362781Y-130652531D02*
X123458019Y-130604912D01*
X123458019Y-130604912D02*
X123505638Y-130509673D01*
X123505638Y-130509673D02*
X123505638Y-130128721D01*
X123505638Y-130128721D02*
X123458019Y-130033483D01*
X123458019Y-130033483D02*
X123362781Y-129985864D01*
X123362781Y-129985864D02*
X123172305Y-129985864D01*
X123172305Y-129985864D02*
X123077067Y-130033483D01*
X123077067Y-130033483D02*
X123029448Y-130128721D01*
X123029448Y-130128721D02*
X123029448Y-130223959D01*
X123029448Y-130223959D02*
X123505638Y-130319197D01*
X122172305Y-130652531D02*
X122172305Y-129652531D01*
X122172305Y-130604912D02*
X122267543Y-130652531D01*
X122267543Y-130652531D02*
X122458019Y-130652531D01*
X122458019Y-130652531D02*
X122553257Y-130604912D01*
X122553257Y-130604912D02*
X122600876Y-130557292D01*
X122600876Y-130557292D02*
X122648495Y-130462054D01*
X122648495Y-130462054D02*
X122648495Y-130176340D01*
X122648495Y-130176340D02*
X122600876Y-130081102D01*
X122600876Y-130081102D02*
X122553257Y-130033483D01*
X122553257Y-130033483D02*
X122458019Y-129985864D01*
X122458019Y-129985864D02*
X122267543Y-129985864D01*
X122267543Y-129985864D02*
X122172305Y-130033483D01*
X120934209Y-130652531D02*
X120934209Y-129652531D01*
X120934209Y-129652531D02*
X120600876Y-130366816D01*
X120600876Y-130366816D02*
X120267543Y-129652531D01*
X120267543Y-129652531D02*
X120267543Y-130652531D01*
X119648495Y-130652531D02*
X119743733Y-130604912D01*
X119743733Y-130604912D02*
X119791352Y-130557292D01*
X119791352Y-130557292D02*
X119838971Y-130462054D01*
X119838971Y-130462054D02*
X119838971Y-130176340D01*
X119838971Y-130176340D02*
X119791352Y-130081102D01*
X119791352Y-130081102D02*
X119743733Y-130033483D01*
X119743733Y-130033483D02*
X119648495Y-129985864D01*
X119648495Y-129985864D02*
X119505638Y-129985864D01*
X119505638Y-129985864D02*
X119410400Y-130033483D01*
X119410400Y-130033483D02*
X119362781Y-130081102D01*
X119362781Y-130081102D02*
X119315162Y-130176340D01*
X119315162Y-130176340D02*
X119315162Y-130462054D01*
X119315162Y-130462054D02*
X119362781Y-130557292D01*
X119362781Y-130557292D02*
X119410400Y-130604912D01*
X119410400Y-130604912D02*
X119505638Y-130652531D01*
X119505638Y-130652531D02*
X119648495Y-130652531D01*
X119029447Y-129985864D02*
X118648495Y-129985864D01*
X118886590Y-129652531D02*
X118886590Y-130509673D01*
X118886590Y-130509673D02*
X118838971Y-130604912D01*
X118838971Y-130604912D02*
X118743733Y-130652531D01*
X118743733Y-130652531D02*
X118648495Y-130652531D01*
X118172304Y-130652531D02*
X118267542Y-130604912D01*
X118267542Y-130604912D02*
X118315161Y-130557292D01*
X118315161Y-130557292D02*
X118362780Y-130462054D01*
X118362780Y-130462054D02*
X118362780Y-130176340D01*
X118362780Y-130176340D02*
X118315161Y-130081102D01*
X118315161Y-130081102D02*
X118267542Y-130033483D01*
X118267542Y-130033483D02*
X118172304Y-129985864D01*
X118172304Y-129985864D02*
X118029447Y-129985864D01*
X118029447Y-129985864D02*
X117934209Y-130033483D01*
X117934209Y-130033483D02*
X117886590Y-130081102D01*
X117886590Y-130081102D02*
X117838971Y-130176340D01*
X117838971Y-130176340D02*
X117838971Y-130462054D01*
X117838971Y-130462054D02*
X117886590Y-130557292D01*
X117886590Y-130557292D02*
X117934209Y-130604912D01*
X117934209Y-130604912D02*
X118029447Y-130652531D01*
X118029447Y-130652531D02*
X118172304Y-130652531D01*
X117410399Y-130652531D02*
X117410399Y-129985864D01*
X117410399Y-130176340D02*
X117362780Y-130081102D01*
X117362780Y-130081102D02*
X117315161Y-130033483D01*
X117315161Y-130033483D02*
X117219923Y-129985864D01*
X117219923Y-129985864D02*
X117124685Y-129985864D01*
X115458018Y-130557292D02*
X115505637Y-130604912D01*
X115505637Y-130604912D02*
X115648494Y-130652531D01*
X115648494Y-130652531D02*
X115743732Y-130652531D01*
X115743732Y-130652531D02*
X115886589Y-130604912D01*
X115886589Y-130604912D02*
X115981827Y-130509673D01*
X115981827Y-130509673D02*
X116029446Y-130414435D01*
X116029446Y-130414435D02*
X116077065Y-130223959D01*
X116077065Y-130223959D02*
X116077065Y-130081102D01*
X116077065Y-130081102D02*
X116029446Y-129890626D01*
X116029446Y-129890626D02*
X115981827Y-129795388D01*
X115981827Y-129795388D02*
X115886589Y-129700150D01*
X115886589Y-129700150D02*
X115743732Y-129652531D01*
X115743732Y-129652531D02*
X115648494Y-129652531D01*
X115648494Y-129652531D02*
X115505637Y-129700150D01*
X115505637Y-129700150D02*
X115458018Y-129747769D01*
X114886589Y-130652531D02*
X114981827Y-130604912D01*
X114981827Y-130604912D02*
X115029446Y-130557292D01*
X115029446Y-130557292D02*
X115077065Y-130462054D01*
X115077065Y-130462054D02*
X115077065Y-130176340D01*
X115077065Y-130176340D02*
X115029446Y-130081102D01*
X115029446Y-130081102D02*
X114981827Y-130033483D01*
X114981827Y-130033483D02*
X114886589Y-129985864D01*
X114886589Y-129985864D02*
X114743732Y-129985864D01*
X114743732Y-129985864D02*
X114648494Y-130033483D01*
X114648494Y-130033483D02*
X114600875Y-130081102D01*
X114600875Y-130081102D02*
X114553256Y-130176340D01*
X114553256Y-130176340D02*
X114553256Y-130462054D01*
X114553256Y-130462054D02*
X114600875Y-130557292D01*
X114600875Y-130557292D02*
X114648494Y-130604912D01*
X114648494Y-130604912D02*
X114743732Y-130652531D01*
X114743732Y-130652531D02*
X114886589Y-130652531D01*
X114124684Y-129985864D02*
X114124684Y-130652531D01*
X114124684Y-130081102D02*
X114077065Y-130033483D01*
X114077065Y-130033483D02*
X113981827Y-129985864D01*
X113981827Y-129985864D02*
X113838970Y-129985864D01*
X113838970Y-129985864D02*
X113743732Y-130033483D01*
X113743732Y-130033483D02*
X113696113Y-130128721D01*
X113696113Y-130128721D02*
X113696113Y-130652531D01*
X113362779Y-129985864D02*
X112981827Y-129985864D01*
X113219922Y-129652531D02*
X113219922Y-130509673D01*
X113219922Y-130509673D02*
X113172303Y-130604912D01*
X113172303Y-130604912D02*
X113077065Y-130652531D01*
X113077065Y-130652531D02*
X112981827Y-130652531D01*
X112648493Y-130652531D02*
X112648493Y-129985864D01*
X112648493Y-130176340D02*
X112600874Y-130081102D01*
X112600874Y-130081102D02*
X112553255Y-130033483D01*
X112553255Y-130033483D02*
X112458017Y-129985864D01*
X112458017Y-129985864D02*
X112362779Y-129985864D01*
X111886588Y-130652531D02*
X111981826Y-130604912D01*
X111981826Y-130604912D02*
X112029445Y-130557292D01*
X112029445Y-130557292D02*
X112077064Y-130462054D01*
X112077064Y-130462054D02*
X112077064Y-130176340D01*
X112077064Y-130176340D02*
X112029445Y-130081102D01*
X112029445Y-130081102D02*
X111981826Y-130033483D01*
X111981826Y-130033483D02*
X111886588Y-129985864D01*
X111886588Y-129985864D02*
X111743731Y-129985864D01*
X111743731Y-129985864D02*
X111648493Y-130033483D01*
X111648493Y-130033483D02*
X111600874Y-130081102D01*
X111600874Y-130081102D02*
X111553255Y-130176340D01*
X111553255Y-130176340D02*
X111553255Y-130462054D01*
X111553255Y-130462054D02*
X111600874Y-130557292D01*
X111600874Y-130557292D02*
X111648493Y-130604912D01*
X111648493Y-130604912D02*
X111743731Y-130652531D01*
X111743731Y-130652531D02*
X111886588Y-130652531D01*
X110981826Y-130652531D02*
X111077064Y-130604912D01*
X111077064Y-130604912D02*
X111124683Y-130509673D01*
X111124683Y-130509673D02*
X111124683Y-129652531D01*
X110458016Y-130652531D02*
X110553254Y-130604912D01*
X110553254Y-130604912D02*
X110600873Y-130509673D01*
X110600873Y-130509673D02*
X110600873Y-129652531D01*
X109696111Y-130604912D02*
X109791349Y-130652531D01*
X109791349Y-130652531D02*
X109981825Y-130652531D01*
X109981825Y-130652531D02*
X110077063Y-130604912D01*
X110077063Y-130604912D02*
X110124682Y-130509673D01*
X110124682Y-130509673D02*
X110124682Y-130128721D01*
X110124682Y-130128721D02*
X110077063Y-130033483D01*
X110077063Y-130033483D02*
X109981825Y-129985864D01*
X109981825Y-129985864D02*
X109791349Y-129985864D01*
X109791349Y-129985864D02*
X109696111Y-130033483D01*
X109696111Y-130033483D02*
X109648492Y-130128721D01*
X109648492Y-130128721D02*
X109648492Y-130223959D01*
X109648492Y-130223959D02*
X110124682Y-130319197D01*
X109219920Y-130652531D02*
X109219920Y-129985864D01*
X109219920Y-130176340D02*
X109172301Y-130081102D01*
X109172301Y-130081102D02*
X109124682Y-130033483D01*
X109124682Y-130033483D02*
X109029444Y-129985864D01*
X109029444Y-129985864D02*
X108934206Y-129985864D01*
X107981824Y-129652531D02*
X107648491Y-130652531D01*
X107648491Y-130652531D02*
X107315158Y-129652531D01*
X106458015Y-130652531D02*
X107029443Y-130652531D01*
X106743729Y-130652531D02*
X106743729Y-129652531D01*
X106743729Y-129652531D02*
X106838967Y-129795388D01*
X106838967Y-129795388D02*
X106934205Y-129890626D01*
X106934205Y-129890626D02*
X107029443Y-129938245D01*
X105315157Y-129747769D02*
X105267538Y-129700150D01*
X105267538Y-129700150D02*
X105172300Y-129652531D01*
X105172300Y-129652531D02*
X104934205Y-129652531D01*
X104934205Y-129652531D02*
X104838967Y-129700150D01*
X104838967Y-129700150D02*
X104791348Y-129747769D01*
X104791348Y-129747769D02*
X104743729Y-129843007D01*
X104743729Y-129843007D02*
X104743729Y-129938245D01*
X104743729Y-129938245D02*
X104791348Y-130081102D01*
X104791348Y-130081102D02*
X105362776Y-130652531D01*
X105362776Y-130652531D02*
X104743729Y-130652531D01*
X103886586Y-129652531D02*
X104077062Y-129652531D01*
X104077062Y-129652531D02*
X104172300Y-129700150D01*
X104172300Y-129700150D02*
X104219919Y-129747769D01*
X104219919Y-129747769D02*
X104315157Y-129890626D01*
X104315157Y-129890626D02*
X104362776Y-130081102D01*
X104362776Y-130081102D02*
X104362776Y-130462054D01*
X104362776Y-130462054D02*
X104315157Y-130557292D01*
X104315157Y-130557292D02*
X104267538Y-130604912D01*
X104267538Y-130604912D02*
X104172300Y-130652531D01*
X104172300Y-130652531D02*
X103981824Y-130652531D01*
X103981824Y-130652531D02*
X103886586Y-130604912D01*
X103886586Y-130604912D02*
X103838967Y-130557292D01*
X103838967Y-130557292D02*
X103791348Y-130462054D01*
X103791348Y-130462054D02*
X103791348Y-130223959D01*
X103791348Y-130223959D02*
X103838967Y-130128721D01*
X103838967Y-130128721D02*
X103886586Y-130081102D01*
X103886586Y-130081102D02*
X103981824Y-130033483D01*
X103981824Y-130033483D02*
X104172300Y-130033483D01*
X104172300Y-130033483D02*
X104267538Y-130081102D01*
X104267538Y-130081102D02*
X104315157Y-130128721D01*
X104315157Y-130128721D02*
X104362776Y-130223959D01*
X103362776Y-130271578D02*
X102600872Y-130271578D01*
X102172300Y-129747769D02*
X102124681Y-129700150D01*
X102124681Y-129700150D02*
X102029443Y-129652531D01*
X102029443Y-129652531D02*
X101791348Y-129652531D01*
X101791348Y-129652531D02*
X101696110Y-129700150D01*
X101696110Y-129700150D02*
X101648491Y-129747769D01*
X101648491Y-129747769D02*
X101600872Y-129843007D01*
X101600872Y-129843007D02*
X101600872Y-129938245D01*
X101600872Y-129938245D02*
X101648491Y-130081102D01*
X101648491Y-130081102D02*
X102219919Y-130652531D01*
X102219919Y-130652531D02*
X101600872Y-130652531D01*
X101267538Y-129652531D02*
X100600872Y-129652531D01*
X100600872Y-129652531D02*
X101029443Y-130652531D01*
X127696115Y-131738665D02*
X127362782Y-131738665D01*
X127219925Y-132262475D02*
X127696115Y-132262475D01*
X127696115Y-132262475D02*
X127696115Y-131262475D01*
X127696115Y-131262475D02*
X127219925Y-131262475D01*
X126934210Y-131595808D02*
X126553258Y-131595808D01*
X126791353Y-131262475D02*
X126791353Y-132119617D01*
X126791353Y-132119617D02*
X126743734Y-132214856D01*
X126743734Y-132214856D02*
X126648496Y-132262475D01*
X126648496Y-132262475D02*
X126553258Y-132262475D01*
X126219924Y-132262475D02*
X126219924Y-131262475D01*
X125791353Y-132262475D02*
X125791353Y-131738665D01*
X125791353Y-131738665D02*
X125838972Y-131643427D01*
X125838972Y-131643427D02*
X125934210Y-131595808D01*
X125934210Y-131595808D02*
X126077067Y-131595808D01*
X126077067Y-131595808D02*
X126172305Y-131643427D01*
X126172305Y-131643427D02*
X126219924Y-131691046D01*
X124886591Y-132262475D02*
X124886591Y-131738665D01*
X124886591Y-131738665D02*
X124934210Y-131643427D01*
X124934210Y-131643427D02*
X125029448Y-131595808D01*
X125029448Y-131595808D02*
X125219924Y-131595808D01*
X125219924Y-131595808D02*
X125315162Y-131643427D01*
X124886591Y-132214856D02*
X124981829Y-132262475D01*
X124981829Y-132262475D02*
X125219924Y-132262475D01*
X125219924Y-132262475D02*
X125315162Y-132214856D01*
X125315162Y-132214856D02*
X125362781Y-132119617D01*
X125362781Y-132119617D02*
X125362781Y-132024379D01*
X125362781Y-132024379D02*
X125315162Y-131929141D01*
X125315162Y-131929141D02*
X125219924Y-131881522D01*
X125219924Y-131881522D02*
X124981829Y-131881522D01*
X124981829Y-131881522D02*
X124886591Y-131833903D01*
X124410400Y-131595808D02*
X124410400Y-132262475D01*
X124410400Y-131691046D02*
X124362781Y-131643427D01*
X124362781Y-131643427D02*
X124267543Y-131595808D01*
X124267543Y-131595808D02*
X124124686Y-131595808D01*
X124124686Y-131595808D02*
X124029448Y-131643427D01*
X124029448Y-131643427D02*
X123981829Y-131738665D01*
X123981829Y-131738665D02*
X123981829Y-132262475D01*
X122172305Y-132262475D02*
X122505638Y-131786284D01*
X122743733Y-132262475D02*
X122743733Y-131262475D01*
X122743733Y-131262475D02*
X122362781Y-131262475D01*
X122362781Y-131262475D02*
X122267543Y-131310094D01*
X122267543Y-131310094D02*
X122219924Y-131357713D01*
X122219924Y-131357713D02*
X122172305Y-131452951D01*
X122172305Y-131452951D02*
X122172305Y-131595808D01*
X122172305Y-131595808D02*
X122219924Y-131691046D01*
X122219924Y-131691046D02*
X122267543Y-131738665D01*
X122267543Y-131738665D02*
X122362781Y-131786284D01*
X122362781Y-131786284D02*
X122743733Y-131786284D01*
X121838971Y-131595808D02*
X121600876Y-132262475D01*
X121362781Y-131595808D02*
X121600876Y-132262475D01*
X121600876Y-132262475D02*
X121696114Y-132500570D01*
X121696114Y-132500570D02*
X121743733Y-132548189D01*
X121743733Y-132548189D02*
X121838971Y-132595808D01*
X120981828Y-132262475D02*
X120981828Y-131262475D01*
X120981828Y-131643427D02*
X120886590Y-131595808D01*
X120886590Y-131595808D02*
X120696114Y-131595808D01*
X120696114Y-131595808D02*
X120600876Y-131643427D01*
X120600876Y-131643427D02*
X120553257Y-131691046D01*
X120553257Y-131691046D02*
X120505638Y-131786284D01*
X120505638Y-131786284D02*
X120505638Y-132071998D01*
X120505638Y-132071998D02*
X120553257Y-132167236D01*
X120553257Y-132167236D02*
X120600876Y-132214856D01*
X120600876Y-132214856D02*
X120696114Y-132262475D01*
X120696114Y-132262475D02*
X120886590Y-132262475D01*
X120886590Y-132262475D02*
X120981828Y-132214856D01*
X120077066Y-132262475D02*
X120077066Y-131262475D01*
X119981828Y-131881522D02*
X119696114Y-132262475D01*
X119696114Y-131595808D02*
X120077066Y-131976760D01*
X118838971Y-132262475D02*
X118838971Y-131738665D01*
X118838971Y-131738665D02*
X118886590Y-131643427D01*
X118886590Y-131643427D02*
X118981828Y-131595808D01*
X118981828Y-131595808D02*
X119172304Y-131595808D01*
X119172304Y-131595808D02*
X119267542Y-131643427D01*
X118838971Y-132214856D02*
X118934209Y-132262475D01*
X118934209Y-132262475D02*
X119172304Y-132262475D01*
X119172304Y-132262475D02*
X119267542Y-132214856D01*
X119267542Y-132214856D02*
X119315161Y-132119617D01*
X119315161Y-132119617D02*
X119315161Y-132024379D01*
X119315161Y-132024379D02*
X119267542Y-131929141D01*
X119267542Y-131929141D02*
X119172304Y-131881522D01*
X119172304Y-131881522D02*
X118934209Y-131881522D01*
X118934209Y-131881522D02*
X118838971Y-131833903D01*
X117696113Y-131595808D02*
X117505637Y-132262475D01*
X117505637Y-132262475D02*
X117315161Y-131786284D01*
X117315161Y-131786284D02*
X117124685Y-132262475D01*
X117124685Y-132262475D02*
X116934209Y-131595808D01*
X116553256Y-132262475D02*
X116553256Y-131595808D01*
X116553256Y-131262475D02*
X116600875Y-131310094D01*
X116600875Y-131310094D02*
X116553256Y-131357713D01*
X116553256Y-131357713D02*
X116505637Y-131310094D01*
X116505637Y-131310094D02*
X116553256Y-131262475D01*
X116553256Y-131262475D02*
X116553256Y-131357713D01*
X116219923Y-131595808D02*
X115838971Y-131595808D01*
X116077066Y-131262475D02*
X116077066Y-132119617D01*
X116077066Y-132119617D02*
X116029447Y-132214856D01*
X116029447Y-132214856D02*
X115934209Y-132262475D01*
X115934209Y-132262475D02*
X115838971Y-132262475D01*
X115505637Y-132262475D02*
X115505637Y-131262475D01*
X115077066Y-132262475D02*
X115077066Y-131738665D01*
X115077066Y-131738665D02*
X115124685Y-131643427D01*
X115124685Y-131643427D02*
X115219923Y-131595808D01*
X115219923Y-131595808D02*
X115362780Y-131595808D01*
X115362780Y-131595808D02*
X115458018Y-131643427D01*
X115458018Y-131643427D02*
X115505637Y-131691046D01*
X113696113Y-132262475D02*
X113791351Y-132214856D01*
X113791351Y-132214856D02*
X113838970Y-132119617D01*
X113838970Y-132119617D02*
X113838970Y-131262475D01*
X113172303Y-132262475D02*
X113267541Y-132214856D01*
X113267541Y-132214856D02*
X113315160Y-132167236D01*
X113315160Y-132167236D02*
X113362779Y-132071998D01*
X113362779Y-132071998D02*
X113362779Y-131786284D01*
X113362779Y-131786284D02*
X113315160Y-131691046D01*
X113315160Y-131691046D02*
X113267541Y-131643427D01*
X113267541Y-131643427D02*
X113172303Y-131595808D01*
X113172303Y-131595808D02*
X113029446Y-131595808D01*
X113029446Y-131595808D02*
X112934208Y-131643427D01*
X112934208Y-131643427D02*
X112886589Y-131691046D01*
X112886589Y-131691046D02*
X112838970Y-131786284D01*
X112838970Y-131786284D02*
X112838970Y-132071998D01*
X112838970Y-132071998D02*
X112886589Y-132167236D01*
X112886589Y-132167236D02*
X112934208Y-132214856D01*
X112934208Y-132214856D02*
X113029446Y-132262475D01*
X113029446Y-132262475D02*
X113172303Y-132262475D01*
X112553255Y-131595808D02*
X112172303Y-131595808D01*
X112410398Y-131262475D02*
X112410398Y-132119617D01*
X112410398Y-132119617D02*
X112362779Y-132214856D01*
X112362779Y-132214856D02*
X112267541Y-132262475D01*
X112267541Y-132262475D02*
X112172303Y-132262475D01*
X111886588Y-132214856D02*
X111791350Y-132262475D01*
X111791350Y-132262475D02*
X111600874Y-132262475D01*
X111600874Y-132262475D02*
X111505636Y-132214856D01*
X111505636Y-132214856D02*
X111458017Y-132119617D01*
X111458017Y-132119617D02*
X111458017Y-132071998D01*
X111458017Y-132071998D02*
X111505636Y-131976760D01*
X111505636Y-131976760D02*
X111600874Y-131929141D01*
X111600874Y-131929141D02*
X111743731Y-131929141D01*
X111743731Y-131929141D02*
X111838969Y-131881522D01*
X111838969Y-131881522D02*
X111886588Y-131786284D01*
X111886588Y-131786284D02*
X111886588Y-131738665D01*
X111886588Y-131738665D02*
X111838969Y-131643427D01*
X111838969Y-131643427D02*
X111743731Y-131595808D01*
X111743731Y-131595808D02*
X111600874Y-131595808D01*
X111600874Y-131595808D02*
X111505636Y-131643427D01*
X110124683Y-132262475D02*
X110219921Y-132214856D01*
X110219921Y-132214856D02*
X110267540Y-132167236D01*
X110267540Y-132167236D02*
X110315159Y-132071998D01*
X110315159Y-132071998D02*
X110315159Y-131786284D01*
X110315159Y-131786284D02*
X110267540Y-131691046D01*
X110267540Y-131691046D02*
X110219921Y-131643427D01*
X110219921Y-131643427D02*
X110124683Y-131595808D01*
X110124683Y-131595808D02*
X109981826Y-131595808D01*
X109981826Y-131595808D02*
X109886588Y-131643427D01*
X109886588Y-131643427D02*
X109838969Y-131691046D01*
X109838969Y-131691046D02*
X109791350Y-131786284D01*
X109791350Y-131786284D02*
X109791350Y-132071998D01*
X109791350Y-132071998D02*
X109838969Y-132167236D01*
X109838969Y-132167236D02*
X109886588Y-132214856D01*
X109886588Y-132214856D02*
X109981826Y-132262475D01*
X109981826Y-132262475D02*
X110124683Y-132262475D01*
X109505635Y-131595808D02*
X109124683Y-131595808D01*
X109362778Y-132262475D02*
X109362778Y-131405332D01*
X109362778Y-131405332D02*
X109315159Y-131310094D01*
X109315159Y-131310094D02*
X109219921Y-131262475D01*
X109219921Y-131262475D02*
X109124683Y-131262475D01*
X108029444Y-132262475D02*
X108029444Y-131262475D01*
X107600873Y-132262475D02*
X107600873Y-131738665D01*
X107600873Y-131738665D02*
X107648492Y-131643427D01*
X107648492Y-131643427D02*
X107743730Y-131595808D01*
X107743730Y-131595808D02*
X107886587Y-131595808D01*
X107886587Y-131595808D02*
X107981825Y-131643427D01*
X107981825Y-131643427D02*
X108029444Y-131691046D01*
X106743730Y-132214856D02*
X106838968Y-132262475D01*
X106838968Y-132262475D02*
X107029444Y-132262475D01*
X107029444Y-132262475D02*
X107124682Y-132214856D01*
X107124682Y-132214856D02*
X107172301Y-132119617D01*
X107172301Y-132119617D02*
X107172301Y-131738665D01*
X107172301Y-131738665D02*
X107124682Y-131643427D01*
X107124682Y-131643427D02*
X107029444Y-131595808D01*
X107029444Y-131595808D02*
X106838968Y-131595808D01*
X106838968Y-131595808D02*
X106743730Y-131643427D01*
X106743730Y-131643427D02*
X106696111Y-131738665D01*
X106696111Y-131738665D02*
X106696111Y-131833903D01*
X106696111Y-131833903D02*
X107172301Y-131929141D01*
X106124682Y-132262475D02*
X106219920Y-132214856D01*
X106219920Y-132214856D02*
X106267539Y-132119617D01*
X106267539Y-132119617D02*
X106267539Y-131262475D01*
X105743729Y-131595808D02*
X105743729Y-132595808D01*
X105743729Y-131643427D02*
X105648491Y-131595808D01*
X105648491Y-131595808D02*
X105458015Y-131595808D01*
X105458015Y-131595808D02*
X105362777Y-131643427D01*
X105362777Y-131643427D02*
X105315158Y-131691046D01*
X105315158Y-131691046D02*
X105267539Y-131786284D01*
X105267539Y-131786284D02*
X105267539Y-132071998D01*
X105267539Y-132071998D02*
X105315158Y-132167236D01*
X105315158Y-132167236D02*
X105362777Y-132214856D01*
X105362777Y-132214856D02*
X105458015Y-132262475D01*
X105458015Y-132262475D02*
X105648491Y-132262475D01*
X105648491Y-132262475D02*
X105743729Y-132214856D01*
X104219919Y-131595808D02*
X103838967Y-131595808D01*
X104077062Y-132262475D02*
X104077062Y-131405332D01*
X104077062Y-131405332D02*
X104029443Y-131310094D01*
X104029443Y-131310094D02*
X103934205Y-131262475D01*
X103934205Y-131262475D02*
X103838967Y-131262475D01*
X103505633Y-132262475D02*
X103505633Y-131595808D01*
X103505633Y-131786284D02*
X103458014Y-131691046D01*
X103458014Y-131691046D02*
X103410395Y-131643427D01*
X103410395Y-131643427D02*
X103315157Y-131595808D01*
X103315157Y-131595808D02*
X103219919Y-131595808D01*
X102743728Y-132262475D02*
X102838966Y-132214856D01*
X102838966Y-132214856D02*
X102886585Y-132167236D01*
X102886585Y-132167236D02*
X102934204Y-132071998D01*
X102934204Y-132071998D02*
X102934204Y-131786284D01*
X102934204Y-131786284D02*
X102886585Y-131691046D01*
X102886585Y-131691046D02*
X102838966Y-131643427D01*
X102838966Y-131643427D02*
X102743728Y-131595808D01*
X102743728Y-131595808D02*
X102600871Y-131595808D01*
X102600871Y-131595808D02*
X102505633Y-131643427D01*
X102505633Y-131643427D02*
X102458014Y-131691046D01*
X102458014Y-131691046D02*
X102410395Y-131786284D01*
X102410395Y-131786284D02*
X102410395Y-132071998D01*
X102410395Y-132071998D02*
X102458014Y-132167236D01*
X102458014Y-132167236D02*
X102505633Y-132214856D01*
X102505633Y-132214856D02*
X102600871Y-132262475D01*
X102600871Y-132262475D02*
X102743728Y-132262475D01*
X101981823Y-132262475D02*
X101981823Y-131595808D01*
X101981823Y-131691046D02*
X101934204Y-131643427D01*
X101934204Y-131643427D02*
X101838966Y-131595808D01*
X101838966Y-131595808D02*
X101696109Y-131595808D01*
X101696109Y-131595808D02*
X101600871Y-131643427D01*
X101600871Y-131643427D02*
X101553252Y-131738665D01*
X101553252Y-131738665D02*
X101553252Y-132262475D01*
X101553252Y-131738665D02*
X101505633Y-131643427D01*
X101505633Y-131643427D02*
X101410395Y-131595808D01*
X101410395Y-131595808D02*
X101267538Y-131595808D01*
X101267538Y-131595808D02*
X101172299Y-131643427D01*
X101172299Y-131643427D02*
X101124680Y-131738665D01*
X101124680Y-131738665D02*
X101124680Y-132262475D01*
X99886585Y-131738665D02*
X99553252Y-131738665D01*
X99410395Y-132262475D02*
X99886585Y-132262475D01*
X99886585Y-132262475D02*
X99886585Y-131262475D01*
X99886585Y-131262475D02*
X99410395Y-131262475D01*
X99029442Y-132214856D02*
X98934204Y-132262475D01*
X98934204Y-132262475D02*
X98743728Y-132262475D01*
X98743728Y-132262475D02*
X98648490Y-132214856D01*
X98648490Y-132214856D02*
X98600871Y-132119617D01*
X98600871Y-132119617D02*
X98600871Y-132071998D01*
X98600871Y-132071998D02*
X98648490Y-131976760D01*
X98648490Y-131976760D02*
X98743728Y-131929141D01*
X98743728Y-131929141D02*
X98886585Y-131929141D01*
X98886585Y-131929141D02*
X98981823Y-131881522D01*
X98981823Y-131881522D02*
X99029442Y-131786284D01*
X99029442Y-131786284D02*
X99029442Y-131738665D01*
X99029442Y-131738665D02*
X98981823Y-131643427D01*
X98981823Y-131643427D02*
X98886585Y-131595808D01*
X98886585Y-131595808D02*
X98743728Y-131595808D01*
X98743728Y-131595808D02*
X98648490Y-131643427D01*
X98315156Y-131595808D02*
X97934204Y-131595808D01*
X98172299Y-131262475D02*
X98172299Y-132119617D01*
X98172299Y-132119617D02*
X98124680Y-132214856D01*
X98124680Y-132214856D02*
X98029442Y-132262475D01*
X98029442Y-132262475D02*
X97934204Y-132262475D01*
X97219918Y-132214856D02*
X97315156Y-132262475D01*
X97315156Y-132262475D02*
X97505632Y-132262475D01*
X97505632Y-132262475D02*
X97600870Y-132214856D01*
X97600870Y-132214856D02*
X97648489Y-132119617D01*
X97648489Y-132119617D02*
X97648489Y-131738665D01*
X97648489Y-131738665D02*
X97600870Y-131643427D01*
X97600870Y-131643427D02*
X97505632Y-131595808D01*
X97505632Y-131595808D02*
X97315156Y-131595808D01*
X97315156Y-131595808D02*
X97219918Y-131643427D01*
X97219918Y-131643427D02*
X97172299Y-131738665D01*
X97172299Y-131738665D02*
X97172299Y-131833903D01*
X97172299Y-131833903D02*
X97648489Y-131929141D01*
X96600870Y-132262475D02*
X96696108Y-132214856D01*
X96696108Y-132214856D02*
X96743727Y-132119617D01*
X96743727Y-132119617D02*
X96743727Y-131262475D01*
X95791346Y-132262475D02*
X95791346Y-131738665D01*
X95791346Y-131738665D02*
X95838965Y-131643427D01*
X95838965Y-131643427D02*
X95934203Y-131595808D01*
X95934203Y-131595808D02*
X96124679Y-131595808D01*
X96124679Y-131595808D02*
X96219917Y-131643427D01*
X95791346Y-132214856D02*
X95886584Y-132262475D01*
X95886584Y-132262475D02*
X96124679Y-132262475D01*
X96124679Y-132262475D02*
X96219917Y-132214856D01*
X96219917Y-132214856D02*
X96267536Y-132119617D01*
X96267536Y-132119617D02*
X96267536Y-132024379D01*
X96267536Y-132024379D02*
X96219917Y-131929141D01*
X96219917Y-131929141D02*
X96124679Y-131881522D01*
X96124679Y-131881522D02*
X95886584Y-131881522D01*
X95886584Y-131881522D02*
X95791346Y-131833903D01*
X94553250Y-132262475D02*
X94553250Y-131262475D01*
X94553250Y-131262475D02*
X94219917Y-131976760D01*
X94219917Y-131976760D02*
X93886584Y-131262475D01*
X93886584Y-131262475D02*
X93886584Y-132262475D01*
X93029441Y-132214856D02*
X93124679Y-132262475D01*
X93124679Y-132262475D02*
X93315155Y-132262475D01*
X93315155Y-132262475D02*
X93410393Y-132214856D01*
X93410393Y-132214856D02*
X93458012Y-132119617D01*
X93458012Y-132119617D02*
X93458012Y-131738665D01*
X93458012Y-131738665D02*
X93410393Y-131643427D01*
X93410393Y-131643427D02*
X93315155Y-131595808D01*
X93315155Y-131595808D02*
X93124679Y-131595808D01*
X93124679Y-131595808D02*
X93029441Y-131643427D01*
X93029441Y-131643427D02*
X92981822Y-131738665D01*
X92981822Y-131738665D02*
X92981822Y-131833903D01*
X92981822Y-131833903D02*
X93458012Y-131929141D01*
X92124679Y-132262475D02*
X92124679Y-131262475D01*
X92124679Y-132214856D02*
X92219917Y-132262475D01*
X92219917Y-132262475D02*
X92410393Y-132262475D01*
X92410393Y-132262475D02*
X92505631Y-132214856D01*
X92505631Y-132214856D02*
X92553250Y-132167236D01*
X92553250Y-132167236D02*
X92600869Y-132071998D01*
X92600869Y-132071998D02*
X92600869Y-131786284D01*
X92600869Y-131786284D02*
X92553250Y-131691046D01*
X92553250Y-131691046D02*
X92505631Y-131643427D01*
X92505631Y-131643427D02*
X92410393Y-131595808D01*
X92410393Y-131595808D02*
X92219917Y-131595808D01*
X92219917Y-131595808D02*
X92124679Y-131643427D01*
X91648488Y-132262475D02*
X91648488Y-131595808D01*
X91648488Y-131786284D02*
X91600869Y-131691046D01*
X91600869Y-131691046D02*
X91553250Y-131643427D01*
X91553250Y-131643427D02*
X91458012Y-131595808D01*
X91458012Y-131595808D02*
X91362774Y-131595808D01*
X90600869Y-132262475D02*
X90600869Y-131738665D01*
X90600869Y-131738665D02*
X90648488Y-131643427D01*
X90648488Y-131643427D02*
X90743726Y-131595808D01*
X90743726Y-131595808D02*
X90934202Y-131595808D01*
X90934202Y-131595808D02*
X91029440Y-131643427D01*
X90600869Y-132214856D02*
X90696107Y-132262475D01*
X90696107Y-132262475D02*
X90934202Y-132262475D01*
X90934202Y-132262475D02*
X91029440Y-132214856D01*
X91029440Y-132214856D02*
X91077059Y-132119617D01*
X91077059Y-132119617D02*
X91077059Y-132024379D01*
X91077059Y-132024379D02*
X91029440Y-131929141D01*
X91029440Y-131929141D02*
X90934202Y-131881522D01*
X90934202Y-131881522D02*
X90696107Y-131881522D01*
X90696107Y-131881522D02*
X90600869Y-131833903D01*
X90124678Y-131595808D02*
X90124678Y-132262475D01*
X90124678Y-131691046D02*
X90077059Y-131643427D01*
X90077059Y-131643427D02*
X89981821Y-131595808D01*
X89981821Y-131595808D02*
X89838964Y-131595808D01*
X89838964Y-131595808D02*
X89743726Y-131643427D01*
X89743726Y-131643427D02*
X89696107Y-131738665D01*
X89696107Y-131738665D02*
X89696107Y-132262475D01*
X89077059Y-132262475D02*
X89172297Y-132214856D01*
X89172297Y-132214856D02*
X89219916Y-132167236D01*
X89219916Y-132167236D02*
X89267535Y-132071998D01*
X89267535Y-132071998D02*
X89267535Y-131786284D01*
X89267535Y-131786284D02*
X89219916Y-131691046D01*
X89219916Y-131691046D02*
X89172297Y-131643427D01*
X89172297Y-131643427D02*
X89077059Y-131595808D01*
X89077059Y-131595808D02*
X88934202Y-131595808D01*
X88934202Y-131595808D02*
X88838964Y-131643427D01*
X88838964Y-131643427D02*
X88791345Y-131691046D01*
X88791345Y-131691046D02*
X88743726Y-131786284D01*
X88743726Y-131786284D02*
X88743726Y-132071998D01*
X88743726Y-132071998D02*
X88791345Y-132167236D01*
X88791345Y-132167236D02*
X88838964Y-132214856D01*
X88838964Y-132214856D02*
X88934202Y-132262475D01*
X88934202Y-132262475D02*
X89077059Y-132262475D01*
X127743734Y-133824800D02*
X127600877Y-133872419D01*
X127600877Y-133872419D02*
X127362782Y-133872419D01*
X127362782Y-133872419D02*
X127267544Y-133824800D01*
X127267544Y-133824800D02*
X127219925Y-133777180D01*
X127219925Y-133777180D02*
X127172306Y-133681942D01*
X127172306Y-133681942D02*
X127172306Y-133586704D01*
X127172306Y-133586704D02*
X127219925Y-133491466D01*
X127219925Y-133491466D02*
X127267544Y-133443847D01*
X127267544Y-133443847D02*
X127362782Y-133396228D01*
X127362782Y-133396228D02*
X127553258Y-133348609D01*
X127553258Y-133348609D02*
X127648496Y-133300990D01*
X127648496Y-133300990D02*
X127696115Y-133253371D01*
X127696115Y-133253371D02*
X127743734Y-133158133D01*
X127743734Y-133158133D02*
X127743734Y-133062895D01*
X127743734Y-133062895D02*
X127696115Y-132967657D01*
X127696115Y-132967657D02*
X127648496Y-132920038D01*
X127648496Y-132920038D02*
X127553258Y-132872419D01*
X127553258Y-132872419D02*
X127315163Y-132872419D01*
X127315163Y-132872419D02*
X127172306Y-132920038D01*
X126743734Y-133348609D02*
X126410401Y-133348609D01*
X126267544Y-133872419D02*
X126743734Y-133872419D01*
X126743734Y-133872419D02*
X126743734Y-132872419D01*
X126743734Y-132872419D02*
X126267544Y-132872419D01*
X125838972Y-133872419D02*
X125838972Y-132872419D01*
X125838972Y-132872419D02*
X125505639Y-133586704D01*
X125505639Y-133586704D02*
X125172306Y-132872419D01*
X125172306Y-132872419D02*
X125172306Y-133872419D01*
M02*
