%TF.GenerationSoftware,KiCad,Pcbnew,10.0.1*%
%TF.CreationDate,2026-04-26T13:14:21-05:00*%
%TF.ProjectId,brushed_ethab_redo,62727573-6865-4645-9f65-746861625f72,1*%
%TF.SameCoordinates,Original*%
%TF.FileFunction,Soldermask,Bot*%
%TF.FilePolarity,Negative*%
%FSLAX46Y46*%
G04 Gerber Fmt 4.6, Leading zero omitted, Abs format (unit mm)*
G04 Created by KiCad (PCBNEW 10.0.1) date 2026-04-26 13:14:21*
%MOMM*%
%LPD*%
G01*
G04 APERTURE LIST*
G04 Aperture macros list*
%AMRoundRect*
0 Rectangle with rounded corners*
0 $1 Rounding radius*
0 $2 $3 $4 $5 $6 $7 $8 $9 X,Y pos of 4 corners*
0 Add a 4 corners polygon primitive as box body*
4,1,4,$2,$3,$4,$5,$6,$7,$8,$9,$2,$3,0*
0 Add four circle primitives for the rounded corners*
1,1,$1+$1,$2,$3*
1,1,$1+$1,$4,$5*
1,1,$1+$1,$6,$7*
1,1,$1+$1,$8,$9*
0 Add four rect primitives between the rounded corners*
20,1,$1+$1,$2,$3,$4,$5,0*
20,1,$1+$1,$4,$5,$6,$7,0*
20,1,$1+$1,$6,$7,$8,$9,0*
20,1,$1+$1,$8,$9,$2,$3,0*%
G04 Aperture macros list end*
%ADD10C,2.204000*%
%ADD11C,4.300000*%
%ADD12RoundRect,0.250001X-0.949999X0.949999X-0.949999X-0.949999X0.949999X-0.949999X0.949999X0.949999X0*%
%ADD13C,2.400000*%
%ADD14R,1.500000X1.500000*%
%ADD15C,1.500000*%
%ADD16C,4.995000*%
%ADD17R,1.700000X1.700000*%
%ADD18C,1.700000*%
%ADD19C,3.200000*%
%ADD20RoundRect,0.250001X0.949999X0.949999X-0.949999X0.949999X-0.949999X-0.949999X0.949999X-0.949999X0*%
G04 APERTURE END LIST*
D10*
%TO.C,MP2*%
X104940000Y-164560000D03*
X107480000Y-164560000D03*
X110020000Y-164560000D03*
X112560000Y-164560000D03*
X112560000Y-162020000D03*
X110020000Y-162020000D03*
X107480000Y-162020000D03*
X104940000Y-162020000D03*
X104940000Y-159480000D03*
X107480000Y-159480000D03*
X110020000Y-159480000D03*
X112560000Y-159480000D03*
X112560000Y-156940000D03*
X110020000Y-156940000D03*
X107480000Y-156940000D03*
X104940000Y-156940000D03*
%TD*%
%TO.C,MP4*%
X135870000Y-146540000D03*
X138410000Y-146540000D03*
X140950000Y-146540000D03*
X143490000Y-146540000D03*
X143490000Y-144000000D03*
X140950000Y-144000000D03*
X138410000Y-144000000D03*
X135870000Y-144000000D03*
X135870000Y-141460000D03*
X138410000Y-141460000D03*
X140950000Y-141460000D03*
X143490000Y-141460000D03*
X143490000Y-138920000D03*
X140950000Y-138920000D03*
X138410000Y-138920000D03*
X135870000Y-138920000D03*
%TD*%
%TO.C,MP1*%
X115210000Y-97440000D03*
X117750000Y-97440000D03*
X120290000Y-97440000D03*
X122830000Y-97440000D03*
X122830000Y-99980000D03*
X120290000Y-99980000D03*
X117750000Y-99980000D03*
X115210000Y-99980000D03*
X115210000Y-102520000D03*
X117750000Y-102520000D03*
X120290000Y-102520000D03*
X122830000Y-102520000D03*
X122830000Y-105060000D03*
X120290000Y-105060000D03*
X117750000Y-105060000D03*
X115210000Y-105060000D03*
%TD*%
%TO.C,MP3*%
X135710000Y-105880000D03*
X138250000Y-105880000D03*
X140790000Y-105880000D03*
X143330000Y-105880000D03*
X143330000Y-108420000D03*
X140790000Y-108420000D03*
X138250000Y-108420000D03*
X135710000Y-108420000D03*
X135710000Y-110960000D03*
X138250000Y-110960000D03*
X140790000Y-110960000D03*
X143330000Y-110960000D03*
X143330000Y-113500000D03*
X140790000Y-113500000D03*
X138250000Y-113500000D03*
X135710000Y-113500000D03*
%TD*%
D11*
%TO.C,H2*%
X141750000Y-99000000D03*
%TD*%
%TO.C,H1*%
X53750000Y-99000000D03*
%TD*%
%TO.C,H4*%
X141750000Y-162750000D03*
%TD*%
%TO.C,H3*%
X53750000Y-162750000D03*
%TD*%
D12*
%TO.C,C8*%
X136750000Y-121272220D03*
D13*
X136750000Y-128772220D03*
%TD*%
D14*
%TO.C,VR1*%
X66475000Y-151250000D03*
D15*
X66475000Y-147500000D03*
X66475000Y-143750000D03*
D16*
X56475000Y-152700000D03*
X56475000Y-142300000D03*
%TD*%
D17*
%TO.C,J2*%
X79210000Y-98250000D03*
D18*
X79210000Y-100790000D03*
X81750000Y-98250000D03*
X81750000Y-100790000D03*
X84290000Y-98250000D03*
X84290000Y-100790000D03*
X86830000Y-98250000D03*
X86830000Y-100790000D03*
X89370000Y-98250000D03*
X89370000Y-100790000D03*
%TD*%
D19*
%TO.C,J1*%
X72310000Y-96650000D03*
X60880000Y-96650000D03*
D14*
X71040000Y-103000000D03*
D15*
X69770000Y-105540000D03*
X68500000Y-103000000D03*
X67230000Y-105540000D03*
X65960000Y-103000000D03*
X64690000Y-105540000D03*
X63420000Y-103000000D03*
X62150000Y-105540000D03*
%TD*%
D20*
%TO.C,C9*%
X115000000Y-116250000D03*
D13*
X107500000Y-116250000D03*
%TD*%
D17*
%TO.C,J3*%
X95210000Y-98480000D03*
D18*
X97750000Y-98480000D03*
X100290000Y-98480000D03*
%TD*%
M02*
