M48
; DRILL file KiCad 10.0.1 date 2026-04-26T13:14:18
; FORMAT={-:-/ absolute / metric / decimal}
; #@! TF.CreationDate,2026-04-26T13:14:18-05:00
; #@! TF.GenerationSoftware,Kicad,Pcbnew,10.0.1
; #@! TF.FileFunction,Plated,1,2,PTH
FMAT,2
METRIC
; #@! TA.AperFunction,Plated,PTH,ViaDrill
T1C0.300
; #@! TA.AperFunction,Plated,PTH,ComponentDrill
T2C0.760
; #@! TA.AperFunction,Plated,PTH,ComponentDrill
T3C1.000
; #@! TA.AperFunction,Plated,PTH,ComponentDrill
T4C1.200
; #@! TA.AperFunction,Plated,PTH,ComponentDrill
T5C1.600
; #@! TA.AperFunction,Plated,PTH,ComponentDrill
T6C3.330
%
G90
G05
T1
X52.5Y-102.5
X52.5Y-107.5
X52.5Y-112.5
X52.5Y-117.5
X52.5Y-147.5
X52.5Y-152.5
X52.5Y-157.5
X55.0Y-105.0
X55.0Y-110.0
X55.0Y-115.0
X55.0Y-120.0
X55.0Y-145.0
X57.5Y-97.5
X57.5Y-102.5
X57.5Y-107.5
X57.5Y-112.5
X57.5Y-117.5
X57.5Y-147.5
X57.5Y-157.5
X60.0Y-100.0
X60.0Y-105.0
X60.0Y-110.0
X60.0Y-115.0
X60.0Y-120.0
X60.0Y-145.0
X60.0Y-150.0
X60.0Y-155.0
X60.0Y-160.0
X60.0Y-165.0
X62.5Y-117.5
X62.5Y-147.5
X62.5Y-152.5
X62.5Y-157.5
X62.5Y-162.5
X65.0Y-100.0
X65.0Y-120.0
X65.0Y-155.0
X65.0Y-160.0
X65.0Y-165.0
X65.5Y-125.75
X67.25Y-140.5
X67.5Y-97.5
X67.5Y-117.5
X67.5Y-157.5
X67.5Y-162.5
X67.503Y-139.741
X67.984Y-130.016
X68.0Y-138.25
X68.75Y-108.75
X69.0Y-128.25
X70.0Y-100.0
X70.0Y-120.0
X70.0Y-145.0
X70.0Y-150.0
X70.0Y-155.0
X70.0Y-160.0
X70.0Y-165.0
X70.5Y-113.0
X70.5Y-128.0
X71.5Y-132.5
X72.5Y-105.25
X72.5Y-107.5
X72.5Y-112.5
X72.5Y-117.5
X72.5Y-126.5
X72.5Y-147.5
X72.5Y-152.5
X72.5Y-157.5
X72.5Y-162.5
X72.75Y-141.25
X73.1Y-140.491
X74.25Y-134.5
X74.75Y-123.25
X75.0Y-100.0
X75.0Y-105.0
X75.0Y-110.0
X75.0Y-145.0
X75.0Y-150.0
X75.0Y-155.0
X75.0Y-160.0
X75.0Y-165.0
X75.25Y-130.0
X76.75Y-122.101
X77.25Y-124.75
X77.5Y-107.5
X77.5Y-112.5
X77.5Y-133.5
X77.5Y-147.5
X77.5Y-152.5
X77.5Y-157.5
X77.5Y-162.5
X78.0Y-125.5
X79.5Y-119.0
X80.0Y-124.0
X80.0Y-150.0
X80.0Y-155.0
X80.0Y-160.0
X80.0Y-165.0
X81.0Y-130.0
X82.5Y-107.5
X82.5Y-112.5
X82.5Y-137.5
X82.5Y-147.5
X82.5Y-152.5
X82.5Y-157.5
X82.5Y-162.5
X85.0Y-105.0
X85.0Y-110.0
X85.0Y-120.0
X85.0Y-135.0
X85.0Y-150.0
X85.0Y-160.0
X85.0Y-165.0
X87.5Y-107.5
X87.5Y-112.5
X87.5Y-117.5
X87.5Y-127.5
X87.5Y-132.5
X87.5Y-162.5
X90.0Y-105.0
X90.0Y-110.0
X90.0Y-115.0
X90.0Y-120.0
X90.0Y-125.0
X90.0Y-130.0
X90.0Y-160.0
X90.0Y-165.0
X92.5Y-102.5
X92.5Y-107.5
X92.5Y-112.5
X92.5Y-117.5
X92.5Y-147.5
X92.5Y-152.5
X92.5Y-157.5
X92.5Y-162.5
X95.0Y-105.0
X95.0Y-110.0
X95.0Y-115.0
X95.0Y-120.0
X95.0Y-145.0
X95.0Y-150.0
X95.0Y-160.0
X95.0Y-165.0
X97.5Y-102.5
X97.5Y-107.5
X97.5Y-112.5
X97.5Y-117.5
X97.5Y-147.5
X97.5Y-152.5
X97.5Y-162.5
X100.0Y-105.0
X100.0Y-110.0
X100.0Y-115.0
X100.0Y-120.0
X100.0Y-125.0
X100.0Y-150.0
X100.0Y-155.0
X100.0Y-160.0
X100.0Y-165.0
X100.25Y-130.0
X102.47Y-97.452
X102.5Y-102.5
X102.5Y-107.5
X102.5Y-112.5
X102.5Y-117.5
X102.5Y-122.5
X102.5Y-127.5
X102.5Y-132.5
X102.5Y-137.5
X102.5Y-142.5
X102.5Y-147.5
X102.5Y-152.5
X102.5Y-157.5
X102.5Y-162.5
X105.0Y-100.0
X105.0Y-105.0
X105.0Y-110.0
X105.0Y-115.0
X105.0Y-120.0
X105.0Y-125.0
X105.0Y-130.0
X105.0Y-135.0
X105.0Y-140.0
X105.0Y-145.0
X105.0Y-150.0
X105.0Y-155.0
X107.5Y-97.5
X107.5Y-102.5
X107.5Y-107.5
X107.5Y-112.5
X107.5Y-122.5
X107.5Y-127.5
X107.5Y-132.5
X107.5Y-137.5
X107.5Y-142.5
X107.5Y-147.5
X107.5Y-152.5
X110.0Y-100.0
X110.0Y-105.0
X110.0Y-125.0
X110.0Y-130.0
X110.0Y-135.0
X110.0Y-150.0
X110.0Y-155.0
X112.25Y-141.0
X112.25Y-143.0
X112.25Y-145.287
X112.5Y-127.5
X112.5Y-132.5
X112.5Y-147.5
X112.5Y-152.5
X114.0Y-140.0
X114.0Y-142.0
X114.0Y-144.0
X115.0Y-107.5
X115.0Y-112.5
X115.0Y-125.0
X115.0Y-130.0
X115.0Y-135.0
X115.0Y-150.0
X115.0Y-155.0
X115.0Y-160.0
X115.0Y-165.0
X115.75Y-139.0
X115.75Y-141.0
X115.75Y-143.0
X115.75Y-145.0
X117.5Y-110.0
X117.5Y-127.5
X117.5Y-132.5
X117.5Y-152.5
X117.5Y-157.5
X119.51Y-138.275
X119.51Y-139.475
X119.51Y-140.675
X119.51Y-141.875
X119.51Y-143.075
X119.51Y-144.275
X119.51Y-145.475
X120.0Y-107.5
X120.0Y-112.5
X120.0Y-117.5
X120.0Y-155.0
X120.0Y-160.0
X120.0Y-165.0
X122.25Y-121.75
X122.25Y-123.25
X122.5Y-110.0
X122.5Y-115.0
X122.5Y-152.5
X122.5Y-157.5
X122.5Y-162.5
X123.25Y-121.75
X123.25Y-123.25
X124.0Y-138.6
X124.0Y-140.6
X124.0Y-142.6
X124.0Y-144.6
X124.0Y-146.35
X124.25Y-121.75
X124.25Y-123.25
X125.0Y-107.5
X125.0Y-112.5
X125.0Y-117.5
X125.0Y-130.0
X125.0Y-135.0
X125.0Y-155.0
X125.0Y-160.0
X125.0Y-165.0
X125.25Y-121.75
X125.25Y-123.25
X126.5Y-138.6
X126.5Y-140.6
X126.5Y-142.6
X126.5Y-144.6
X126.5Y-146.35
X127.5Y-105.0
X127.5Y-110.0
X127.5Y-115.0
X127.5Y-120.0
X127.5Y-127.5
X127.5Y-132.5
X127.5Y-152.5
X127.5Y-157.5
X127.5Y-162.5
X128.75Y-138.6
X128.75Y-140.6
X128.75Y-142.6
X128.75Y-144.6
X128.75Y-146.35
X130.0Y-107.5
X130.0Y-112.5
X130.0Y-117.5
X130.0Y-122.5
X130.0Y-130.0
X130.0Y-135.0
X130.0Y-155.0
X130.0Y-160.0
X130.0Y-165.0
X130.75Y-138.6
X130.75Y-140.6
X130.75Y-142.6
X130.75Y-144.6
X130.75Y-146.35
X132.5Y-105.0
X132.5Y-110.0
X132.5Y-115.0
X132.5Y-120.0
X132.5Y-127.5
X132.5Y-132.5
X132.5Y-152.5
X132.5Y-157.5
X132.5Y-162.5
X135.0Y-117.5
X135.0Y-135.0
X135.0Y-155.0
X135.0Y-160.0
X135.0Y-165.0
X137.5Y-132.5
X137.5Y-152.5
X137.5Y-157.5
X140.0Y-117.5
X140.0Y-122.5
X140.0Y-130.0
X140.0Y-135.0
X140.0Y-155.0
X142.5Y-120.0
X142.5Y-127.5
X142.5Y-132.5
X142.5Y-152.5
X142.5Y-157.5
T2
X62.15Y-105.54
X63.42Y-103.0
X64.69Y-105.54
X65.96Y-103.0
X67.23Y-105.54
X68.5Y-103.0
X69.77Y-105.54
X71.04Y-103.0
T3
X66.475Y-143.75
X66.475Y-147.5
X66.475Y-151.25
X79.21Y-98.25
X79.21Y-100.79
X81.75Y-98.25
X81.75Y-100.79
X84.29Y-98.25
X84.29Y-100.79
X86.83Y-98.25
X86.83Y-100.79
X89.37Y-98.25
X89.37Y-100.79
X95.21Y-98.48
X97.75Y-98.48
X100.29Y-98.48
T4
X107.5Y-116.25
X115.0Y-116.25
X136.75Y-121.272
X136.75Y-128.772
T5
X104.94Y-156.94
X104.94Y-159.48
X104.94Y-162.02
X104.94Y-164.56
X107.48Y-156.94
X107.48Y-159.48
X107.48Y-162.02
X107.48Y-164.56
X110.02Y-156.94
X110.02Y-159.48
X110.02Y-162.02
X110.02Y-164.56
X112.56Y-156.94
X112.56Y-159.48
X112.56Y-162.02
X112.56Y-164.56
X115.21Y-97.44
X115.21Y-99.98
X115.21Y-102.52
X115.21Y-105.06
X117.75Y-97.44
X117.75Y-99.98
X117.75Y-102.52
X117.75Y-105.06
X120.29Y-97.44
X120.29Y-99.98
X120.29Y-102.52
X120.29Y-105.06
X122.83Y-97.44
X122.83Y-99.98
X122.83Y-102.52
X122.83Y-105.06
X135.71Y-105.88
X135.71Y-108.42
X135.71Y-110.96
X135.71Y-113.5
X135.87Y-138.92
X135.87Y-141.46
X135.87Y-144.0
X135.87Y-146.54
X138.25Y-105.88
X138.25Y-108.42
X138.25Y-110.96
X138.25Y-113.5
X138.41Y-138.92
X138.41Y-141.46
X138.41Y-144.0
X138.41Y-146.54
X140.79Y-105.88
X140.79Y-108.42
X140.79Y-110.96
X140.79Y-113.5
X140.95Y-138.92
X140.95Y-141.46
X140.95Y-144.0
X140.95Y-146.54
X143.33Y-105.88
X143.33Y-108.42
X143.33Y-110.96
X143.33Y-113.5
X143.49Y-138.92
X143.49Y-141.46
X143.49Y-144.0
X143.49Y-146.54
T6
X56.475Y-142.3
X56.475Y-152.7
M30
