%TF.GenerationSoftware,KiCad,Pcbnew,10.0.1*%
%TF.CreationDate,2026-04-26T13:14:21-05:00*%
%TF.ProjectId,brushed_ethab_redo,62727573-6865-4645-9f65-746861625f72,1*%
%TF.SameCoordinates,Original*%
%TF.FileFunction,Soldermask,Top*%
%TF.FilePolarity,Negative*%
%FSLAX46Y46*%
G04 Gerber Fmt 4.6, Leading zero omitted, Abs format (unit mm)*
G04 Created by KiCad (PCBNEW 10.0.1) date 2026-04-26 13:14:21*
%MOMM*%
%LPD*%
G01*
G04 APERTURE LIST*
G04 Aperture macros list*
%AMRoundRect*
0 Rectangle with rounded corners*
0 $1 Rounding radius*
0 $2 $3 $4 $5 $6 $7 $8 $9 X,Y pos of 4 corners*
0 Add a 4 corners polygon primitive as box body*
4,1,4,$2,$3,$4,$5,$6,$7,$8,$9,$2,$3,0*
0 Add four circle primitives for the rounded corners*
1,1,$1+$1,$2,$3*
1,1,$1+$1,$4,$5*
1,1,$1+$1,$6,$7*
1,1,$1+$1,$8,$9*
0 Add four rect primitives between the rounded corners*
20,1,$1+$1,$2,$3,$4,$5,0*
20,1,$1+$1,$4,$5,$6,$7,0*
20,1,$1+$1,$6,$7,$8,$9,0*
20,1,$1+$1,$8,$9,$2,$3,0*%
G04 Aperture macros list end*
%ADD10C,0.000000*%
%ADD11C,2.204000*%
%ADD12R,4.499966X3.914701*%
%ADD13R,0.508000X0.812800*%
%ADD14R,0.508000X0.533400*%
%ADD15RoundRect,0.162500X0.162500X-1.012500X0.162500X1.012500X-0.162500X1.012500X-0.162500X-1.012500X0*%
%ADD16C,4.300000*%
%ADD17RoundRect,0.250000X0.097227X-0.574524X0.574524X-0.097227X-0.097227X0.574524X-0.574524X0.097227X0*%
%ADD18RoundRect,0.250000X0.450000X-0.350000X0.450000X0.350000X-0.450000X0.350000X-0.450000X-0.350000X0*%
%ADD19RoundRect,0.250000X0.337500X0.475000X-0.337500X0.475000X-0.337500X-0.475000X0.337500X-0.475000X0*%
%ADD20RoundRect,0.250000X-0.475000X0.337500X-0.475000X-0.337500X0.475000X-0.337500X0.475000X0.337500X0*%
%ADD21RoundRect,0.237500X0.250000X0.237500X-0.250000X0.237500X-0.250000X-0.237500X0.250000X-0.237500X0*%
%ADD22RoundRect,0.250000X-0.574524X-0.097227X-0.097227X-0.574524X0.574524X0.097227X0.097227X0.574524X0*%
%ADD23RoundRect,0.160000X-0.197500X-0.160000X0.197500X-0.160000X0.197500X0.160000X-0.197500X0.160000X0*%
%ADD24RoundRect,0.250000X0.325000X0.650000X-0.325000X0.650000X-0.325000X-0.650000X0.325000X-0.650000X0*%
%ADD25RoundRect,0.250000X0.350000X0.450000X-0.350000X0.450000X-0.350000X-0.450000X0.350000X-0.450000X0*%
%ADD26RoundRect,0.250000X0.325000X1.100000X-0.325000X1.100000X-0.325000X-1.100000X0.325000X-1.100000X0*%
%ADD27RoundRect,0.237500X0.300000X0.237500X-0.300000X0.237500X-0.300000X-0.237500X0.300000X-0.237500X0*%
%ADD28R,1.100000X0.599999*%
%ADD29RoundRect,0.250000X-0.097227X0.574524X-0.574524X0.097227X0.097227X-0.574524X0.574524X-0.097227X0*%
%ADD30RoundRect,0.250000X-0.325000X-0.450000X0.325000X-0.450000X0.325000X0.450000X-0.325000X0.450000X0*%
%ADD31R,0.700000X1.000000*%
%ADD32RoundRect,0.250001X-0.949999X0.949999X-0.949999X-0.949999X0.949999X-0.949999X0.949999X0.949999X0*%
%ADD33C,2.400000*%
%ADD34R,4.000000X7.000000*%
%ADD35C,1.000000*%
%ADD36R,1.500000X1.500000*%
%ADD37C,1.500000*%
%ADD38C,4.995000*%
%ADD39R,1.700000X1.700000*%
%ADD40C,1.700000*%
%ADD41C,3.200000*%
%ADD42R,2.800000X0.800000*%
%ADD43R,8.100000X8.900000*%
%ADD44R,1.650000X0.650000*%
%ADD45R,2.900000X0.650000*%
%ADD46RoundRect,0.155000X-0.155000X0.212500X-0.155000X-0.212500X0.155000X-0.212500X0.155000X0.212500X0*%
%ADD47RoundRect,0.250000X-0.350000X-0.450000X0.350000X-0.450000X0.350000X0.450000X-0.350000X0.450000X0*%
%ADD48RoundRect,0.075000X-0.415425X-0.521491X0.521491X0.415425X0.415425X0.521491X-0.521491X-0.415425X0*%
%ADD49RoundRect,0.075000X0.415425X-0.521491X0.521491X-0.415425X-0.415425X0.521491X-0.521491X0.415425X0*%
%ADD50RoundRect,0.250001X0.949999X0.949999X-0.949999X0.949999X-0.949999X-0.949999X0.949999X-0.949999X0*%
%ADD51R,1.950000X0.900000*%
%ADD52R,1.950000X3.200000*%
%ADD53RoundRect,0.250000X-0.337500X-0.475000X0.337500X-0.475000X0.337500X0.475000X-0.337500X0.475000X0*%
G04 APERTURE END LIST*
D10*
%TO.C,U5*%
G36*
X122099000Y-121108600D02*
G01*
X122861000Y-121108600D01*
X122861000Y-120575200D01*
X123369000Y-120575200D01*
X123369000Y-121108600D01*
X124131000Y-121108600D01*
X124131000Y-120575200D01*
X124639000Y-120575200D01*
X124639000Y-121108600D01*
X125401000Y-121108600D01*
X125401000Y-120575200D01*
X125909000Y-120575200D01*
X125909000Y-124817003D01*
X121591000Y-124817003D01*
X121591000Y-120575200D01*
X122099000Y-120575200D01*
X122099000Y-121108600D01*
G37*
%TD*%
D11*
%TO.C,MP2*%
X104940000Y-164560000D03*
X107480000Y-164560000D03*
X110020000Y-164560000D03*
X112560000Y-164560000D03*
X112560000Y-162020000D03*
X110020000Y-162020000D03*
X107480000Y-162020000D03*
X104940000Y-162020000D03*
X104940000Y-159480000D03*
X107480000Y-159480000D03*
X110020000Y-159480000D03*
X112560000Y-159480000D03*
X112560000Y-156940000D03*
X110020000Y-156940000D03*
X107480000Y-156940000D03*
X104940000Y-156940000D03*
%TD*%
%TO.C,MP4*%
X135870000Y-146540000D03*
X138410000Y-146540000D03*
X140950000Y-146540000D03*
X143490000Y-146540000D03*
X143490000Y-144000000D03*
X140950000Y-144000000D03*
X138410000Y-144000000D03*
X135870000Y-144000000D03*
X135870000Y-141460000D03*
X138410000Y-141460000D03*
X140950000Y-141460000D03*
X143490000Y-141460000D03*
X143490000Y-138920000D03*
X140950000Y-138920000D03*
X138410000Y-138920000D03*
X135870000Y-138920000D03*
%TD*%
%TO.C,MP1*%
X115210000Y-97440000D03*
X117750000Y-97440000D03*
X120290000Y-97440000D03*
X122830000Y-97440000D03*
X122830000Y-99980000D03*
X120290000Y-99980000D03*
X117750000Y-99980000D03*
X115210000Y-99980000D03*
X115210000Y-102520000D03*
X117750000Y-102520000D03*
X120290000Y-102520000D03*
X122830000Y-102520000D03*
X122830000Y-105060000D03*
X120290000Y-105060000D03*
X117750000Y-105060000D03*
X115210000Y-105060000D03*
%TD*%
%TO.C,MP3*%
X135710000Y-105880000D03*
X138250000Y-105880000D03*
X140790000Y-105880000D03*
X143330000Y-105880000D03*
X143330000Y-108420000D03*
X140790000Y-108420000D03*
X138250000Y-108420000D03*
X135710000Y-108420000D03*
X135710000Y-110960000D03*
X138250000Y-110960000D03*
X140790000Y-110960000D03*
X143330000Y-110960000D03*
X143330000Y-113500000D03*
X140790000Y-113500000D03*
X138250000Y-113500000D03*
X135710000Y-113500000D03*
%TD*%
D12*
%TO.C,U5*%
X123750017Y-122937394D03*
D13*
X121845000Y-126518400D03*
X123115000Y-126518400D03*
X124385000Y-126518400D03*
X125655000Y-126518400D03*
D14*
X125655000Y-120841900D03*
X124385000Y-120841900D03*
X123115000Y-120841900D03*
X121845000Y-120841900D03*
%TD*%
D15*
%TO.C,U2*%
X62947500Y-123925000D03*
X65487500Y-123925000D03*
X68027500Y-123925000D03*
X70567500Y-123925000D03*
X70567500Y-114875000D03*
X68027500Y-114875000D03*
X65487500Y-114875000D03*
X62947500Y-114875000D03*
%TD*%
D16*
%TO.C,H2*%
X141750000Y-99000000D03*
%TD*%
D17*
%TO.C,C1*%
X81516377Y-135233623D03*
X82983623Y-133766377D03*
%TD*%
D18*
%TO.C,R17*%
X85750000Y-130250000D03*
X85750000Y-128250000D03*
%TD*%
D16*
%TO.C,H1*%
X53750000Y-99000000D03*
%TD*%
D19*
%TO.C,C17*%
X76287500Y-125750000D03*
X74212500Y-125750000D03*
%TD*%
D20*
%TO.C,C19*%
X70500000Y-138212500D03*
X70500000Y-140287500D03*
%TD*%
D21*
%TO.C,R4*%
X92075000Y-133250000D03*
X90250000Y-133250000D03*
%TD*%
D22*
%TO.C,C18*%
X67266377Y-134516377D03*
X68733623Y-135983623D03*
%TD*%
D23*
%TO.C,R3*%
X90902500Y-135250000D03*
X92097500Y-135250000D03*
%TD*%
D24*
%TO.C,C12*%
X95725000Y-129250000D03*
X92775000Y-129250000D03*
%TD*%
D25*
%TO.C,R14*%
X54000000Y-135000000D03*
X52000000Y-135000000D03*
%TD*%
D26*
%TO.C,C16*%
X85975000Y-140750000D03*
X83025000Y-140750000D03*
%TD*%
D16*
%TO.C,H4*%
X141750000Y-162750000D03*
%TD*%
D27*
%TO.C,C13*%
X95612500Y-131750000D03*
X93887500Y-131750000D03*
%TD*%
D28*
%TO.C,U3*%
X94375008Y-133299999D03*
X94375008Y-134250000D03*
X94375008Y-135200001D03*
X97074992Y-135200001D03*
X97074992Y-134250000D03*
X97074992Y-133299999D03*
%TD*%
D19*
%TO.C,C7*%
X89000000Y-151750000D03*
X86925000Y-151750000D03*
%TD*%
D29*
%TO.C,C2*%
X67983623Y-130016377D03*
X66516377Y-131483623D03*
%TD*%
D30*
%TO.C,D2*%
X55975000Y-132750000D03*
X58025000Y-132750000D03*
%TD*%
D16*
%TO.C,H3*%
X53750000Y-162750000D03*
%TD*%
D31*
%TO.C,U4*%
X88950001Y-154150500D03*
X88000000Y-154150500D03*
X87049999Y-154150500D03*
X87049999Y-156349500D03*
X88950001Y-156349500D03*
%TD*%
D32*
%TO.C,C8*%
X136750000Y-121272220D03*
D33*
X136750000Y-128772220D03*
%TD*%
D24*
%TO.C,C11*%
X95725000Y-126250000D03*
X92775000Y-126250000D03*
%TD*%
D20*
%TO.C,C6*%
X74750000Y-113212500D03*
X74750000Y-115287500D03*
%TD*%
D34*
%TO.C,L1*%
X99500000Y-142750000D03*
X89500000Y-142750000D03*
%TD*%
D19*
%TO.C,C4*%
X62795000Y-126650000D03*
X60720000Y-126650000D03*
%TD*%
D20*
%TO.C,C3*%
X74750000Y-117212500D03*
X74750000Y-119287500D03*
%TD*%
D35*
%TO.C,TP7*%
X96500000Y-158250000D03*
%TD*%
D18*
%TO.C,R16*%
X85750000Y-126250000D03*
X85750000Y-124250000D03*
%TD*%
D36*
%TO.C,VR1*%
X66475000Y-151250000D03*
D37*
X66475000Y-147500000D03*
X66475000Y-143750000D03*
D38*
X56475000Y-152700000D03*
X56475000Y-142300000D03*
%TD*%
D39*
%TO.C,J2*%
X79210000Y-98250000D03*
D40*
X79210000Y-100790000D03*
X81750000Y-98250000D03*
X81750000Y-100790000D03*
X84290000Y-98250000D03*
X84290000Y-100790000D03*
X86830000Y-98250000D03*
X86830000Y-100790000D03*
X89370000Y-98250000D03*
X89370000Y-100790000D03*
%TD*%
D18*
%TO.C,R10*%
X119500000Y-151750000D03*
X119500000Y-149750000D03*
%TD*%
D41*
%TO.C,J1*%
X72310000Y-96650000D03*
X60880000Y-96650000D03*
D36*
X71040000Y-103000000D03*
D37*
X69770000Y-105540000D03*
X68500000Y-103000000D03*
X67230000Y-105540000D03*
X65960000Y-103000000D03*
X64690000Y-105540000D03*
X63420000Y-103000000D03*
X62150000Y-105540000D03*
%TD*%
D42*
%TO.C,Q2*%
X119510000Y-138275000D03*
X119510000Y-139475000D03*
X119510000Y-140675000D03*
X119510000Y-141875000D03*
X119510000Y-143075000D03*
X119510000Y-144275000D03*
X119510000Y-145475000D03*
X119510000Y-146675000D03*
D43*
X127340000Y-142475000D03*
D44*
X130565000Y-137700000D03*
D45*
X125340000Y-137700000D03*
X125340000Y-147250000D03*
D44*
X130565000Y-147250000D03*
%TD*%
D30*
%TO.C,D1*%
X55975000Y-135000000D03*
X58025000Y-135000000D03*
%TD*%
D25*
%TO.C,R15*%
X54000000Y-132750000D03*
X52000000Y-132750000D03*
%TD*%
D24*
%TO.C,C10*%
X95725000Y-123250000D03*
X92775000Y-123250000D03*
%TD*%
D46*
%TO.C,C14*%
X99225000Y-133182500D03*
X99225000Y-134317500D03*
%TD*%
D47*
%TO.C,R9*%
X94500000Y-155750000D03*
X96500000Y-155750000D03*
%TD*%
D26*
%TO.C,C15*%
X85975000Y-144750000D03*
X83025000Y-144750000D03*
%TD*%
D48*
%TO.C,U1*%
X70112124Y-133748788D03*
X70465678Y-134102342D03*
X70819231Y-134455895D03*
X71172785Y-134809449D03*
X71526338Y-135163002D03*
X71879891Y-135516555D03*
X72233445Y-135870109D03*
X72586998Y-136223662D03*
X72940551Y-136577215D03*
X73294105Y-136930769D03*
X73647658Y-137284322D03*
X74001212Y-137637876D03*
D49*
X75998788Y-137637876D03*
X76352342Y-137284322D03*
X76705895Y-136930769D03*
X77059449Y-136577215D03*
X77413002Y-136223662D03*
X77766555Y-135870109D03*
X78120109Y-135516555D03*
X78473662Y-135163002D03*
X78827215Y-134809449D03*
X79180769Y-134455895D03*
X79534322Y-134102342D03*
X79887876Y-133748788D03*
D48*
X79887876Y-131751212D03*
X79534322Y-131397658D03*
X79180769Y-131044105D03*
X78827215Y-130690551D03*
X78473662Y-130336998D03*
X78120109Y-129983445D03*
X77766555Y-129629891D03*
X77413002Y-129276338D03*
X77059449Y-128922785D03*
X76705895Y-128569231D03*
X76352342Y-128215678D03*
X75998788Y-127862124D03*
D49*
X74001212Y-127862124D03*
X73647658Y-128215678D03*
X73294105Y-128569231D03*
X72940551Y-128922785D03*
X72586998Y-129276338D03*
X72233445Y-129629891D03*
X71879891Y-129983445D03*
X71526338Y-130336998D03*
X71172785Y-130690551D03*
X70819231Y-131044105D03*
X70465678Y-131397658D03*
X70112124Y-131751212D03*
%TD*%
D50*
%TO.C,C9*%
X115000000Y-116250000D03*
D33*
X107500000Y-116250000D03*
%TD*%
D39*
%TO.C,J3*%
X95210000Y-98480000D03*
D40*
X97750000Y-98480000D03*
X100290000Y-98480000D03*
%TD*%
D47*
%TO.C,R1*%
X65757500Y-111400000D03*
X67757500Y-111400000D03*
%TD*%
D51*
%TO.C,IC1*%
X77700000Y-114450000D03*
X77700000Y-116750000D03*
X77700000Y-119050000D03*
D52*
X83800000Y-116750000D03*
%TD*%
D53*
%TO.C,C5*%
X65720000Y-108900000D03*
X67795000Y-108900000D03*
%TD*%
M02*
